G75*
%MOIN*%
%OFA0B0*%
%FSLAX25Y25*%
%IPPOS*%
%LPD*%
%AMOC8*
5,1,8,0,0,1.08239X$1,22.5*
%
%ADD10C,0.00000*%
%ADD11C,0.25000*%
%ADD12R,0.12598X0.12598*%
%ADD13R,0.03150X0.03150*%
%ADD14R,0.07087X0.06299*%
%ADD15R,0.02756X0.04724*%
%ADD16R,0.03937X0.04724*%
%ADD17R,0.03937X0.03150*%
%ADD18R,0.03937X0.11024*%
%ADD19R,0.05118X0.07480*%
%ADD20C,0.05709*%
%ADD21C,0.04362*%
%ADD22C,0.01500*%
%ADD23C,0.00200*%
%ADD24R,0.03150X0.02362*%
%ADD25C,0.05937*%
%ADD26R,0.03937X0.07087*%
%ADD27R,0.05512X0.06299*%
%ADD28C,0.07400*%
%ADD29C,0.01000*%
%ADD30C,0.02578*%
%ADD31C,0.02400*%
%ADD32C,0.01200*%
D10*
X0038342Y0011500D02*
X0038342Y0171500D01*
X0170342Y0171500D01*
X0170342Y0011500D01*
X0038342Y0011500D01*
X0067763Y0025900D02*
X0067765Y0025981D01*
X0067771Y0026063D01*
X0067781Y0026144D01*
X0067795Y0026224D01*
X0067812Y0026303D01*
X0067834Y0026382D01*
X0067859Y0026459D01*
X0067888Y0026536D01*
X0067921Y0026610D01*
X0067958Y0026683D01*
X0067997Y0026754D01*
X0068041Y0026823D01*
X0068087Y0026890D01*
X0068137Y0026954D01*
X0068190Y0027016D01*
X0068246Y0027076D01*
X0068304Y0027132D01*
X0068366Y0027186D01*
X0068430Y0027237D01*
X0068496Y0027284D01*
X0068564Y0027328D01*
X0068635Y0027369D01*
X0068707Y0027406D01*
X0068782Y0027440D01*
X0068857Y0027470D01*
X0068935Y0027496D01*
X0069013Y0027519D01*
X0069092Y0027537D01*
X0069172Y0027552D01*
X0069253Y0027563D01*
X0069334Y0027570D01*
X0069416Y0027573D01*
X0069497Y0027572D01*
X0069578Y0027567D01*
X0069659Y0027558D01*
X0069740Y0027545D01*
X0069820Y0027528D01*
X0069898Y0027508D01*
X0069976Y0027483D01*
X0070053Y0027455D01*
X0070128Y0027423D01*
X0070201Y0027388D01*
X0070272Y0027349D01*
X0070342Y0027306D01*
X0070409Y0027261D01*
X0070475Y0027212D01*
X0070537Y0027160D01*
X0070597Y0027104D01*
X0070654Y0027046D01*
X0070709Y0026986D01*
X0070760Y0026922D01*
X0070808Y0026857D01*
X0070853Y0026789D01*
X0070895Y0026719D01*
X0070933Y0026647D01*
X0070968Y0026573D01*
X0070999Y0026498D01*
X0071026Y0026421D01*
X0071049Y0026343D01*
X0071069Y0026264D01*
X0071085Y0026184D01*
X0071097Y0026103D01*
X0071105Y0026022D01*
X0071109Y0025941D01*
X0071109Y0025859D01*
X0071105Y0025778D01*
X0071097Y0025697D01*
X0071085Y0025616D01*
X0071069Y0025536D01*
X0071049Y0025457D01*
X0071026Y0025379D01*
X0070999Y0025302D01*
X0070968Y0025227D01*
X0070933Y0025153D01*
X0070895Y0025081D01*
X0070853Y0025011D01*
X0070808Y0024943D01*
X0070760Y0024878D01*
X0070709Y0024814D01*
X0070654Y0024754D01*
X0070597Y0024696D01*
X0070537Y0024640D01*
X0070475Y0024588D01*
X0070409Y0024539D01*
X0070342Y0024494D01*
X0070273Y0024451D01*
X0070201Y0024412D01*
X0070128Y0024377D01*
X0070053Y0024345D01*
X0069976Y0024317D01*
X0069898Y0024292D01*
X0069820Y0024272D01*
X0069740Y0024255D01*
X0069659Y0024242D01*
X0069578Y0024233D01*
X0069497Y0024228D01*
X0069416Y0024227D01*
X0069334Y0024230D01*
X0069253Y0024237D01*
X0069172Y0024248D01*
X0069092Y0024263D01*
X0069013Y0024281D01*
X0068935Y0024304D01*
X0068857Y0024330D01*
X0068782Y0024360D01*
X0068707Y0024394D01*
X0068635Y0024431D01*
X0068564Y0024472D01*
X0068496Y0024516D01*
X0068430Y0024563D01*
X0068366Y0024614D01*
X0068304Y0024668D01*
X0068246Y0024724D01*
X0068190Y0024784D01*
X0068137Y0024846D01*
X0068087Y0024910D01*
X0068041Y0024977D01*
X0067997Y0025046D01*
X0067958Y0025117D01*
X0067921Y0025190D01*
X0067888Y0025264D01*
X0067859Y0025341D01*
X0067834Y0025418D01*
X0067812Y0025497D01*
X0067795Y0025576D01*
X0067781Y0025656D01*
X0067771Y0025737D01*
X0067765Y0025819D01*
X0067763Y0025900D01*
X0079574Y0025900D02*
X0079576Y0025981D01*
X0079582Y0026063D01*
X0079592Y0026144D01*
X0079606Y0026224D01*
X0079623Y0026303D01*
X0079645Y0026382D01*
X0079670Y0026459D01*
X0079699Y0026536D01*
X0079732Y0026610D01*
X0079769Y0026683D01*
X0079808Y0026754D01*
X0079852Y0026823D01*
X0079898Y0026890D01*
X0079948Y0026954D01*
X0080001Y0027016D01*
X0080057Y0027076D01*
X0080115Y0027132D01*
X0080177Y0027186D01*
X0080241Y0027237D01*
X0080307Y0027284D01*
X0080375Y0027328D01*
X0080446Y0027369D01*
X0080518Y0027406D01*
X0080593Y0027440D01*
X0080668Y0027470D01*
X0080746Y0027496D01*
X0080824Y0027519D01*
X0080903Y0027537D01*
X0080983Y0027552D01*
X0081064Y0027563D01*
X0081145Y0027570D01*
X0081227Y0027573D01*
X0081308Y0027572D01*
X0081389Y0027567D01*
X0081470Y0027558D01*
X0081551Y0027545D01*
X0081631Y0027528D01*
X0081709Y0027508D01*
X0081787Y0027483D01*
X0081864Y0027455D01*
X0081939Y0027423D01*
X0082012Y0027388D01*
X0082083Y0027349D01*
X0082153Y0027306D01*
X0082220Y0027261D01*
X0082286Y0027212D01*
X0082348Y0027160D01*
X0082408Y0027104D01*
X0082465Y0027046D01*
X0082520Y0026986D01*
X0082571Y0026922D01*
X0082619Y0026857D01*
X0082664Y0026789D01*
X0082706Y0026719D01*
X0082744Y0026647D01*
X0082779Y0026573D01*
X0082810Y0026498D01*
X0082837Y0026421D01*
X0082860Y0026343D01*
X0082880Y0026264D01*
X0082896Y0026184D01*
X0082908Y0026103D01*
X0082916Y0026022D01*
X0082920Y0025941D01*
X0082920Y0025859D01*
X0082916Y0025778D01*
X0082908Y0025697D01*
X0082896Y0025616D01*
X0082880Y0025536D01*
X0082860Y0025457D01*
X0082837Y0025379D01*
X0082810Y0025302D01*
X0082779Y0025227D01*
X0082744Y0025153D01*
X0082706Y0025081D01*
X0082664Y0025011D01*
X0082619Y0024943D01*
X0082571Y0024878D01*
X0082520Y0024814D01*
X0082465Y0024754D01*
X0082408Y0024696D01*
X0082348Y0024640D01*
X0082286Y0024588D01*
X0082220Y0024539D01*
X0082153Y0024494D01*
X0082084Y0024451D01*
X0082012Y0024412D01*
X0081939Y0024377D01*
X0081864Y0024345D01*
X0081787Y0024317D01*
X0081709Y0024292D01*
X0081631Y0024272D01*
X0081551Y0024255D01*
X0081470Y0024242D01*
X0081389Y0024233D01*
X0081308Y0024228D01*
X0081227Y0024227D01*
X0081145Y0024230D01*
X0081064Y0024237D01*
X0080983Y0024248D01*
X0080903Y0024263D01*
X0080824Y0024281D01*
X0080746Y0024304D01*
X0080668Y0024330D01*
X0080593Y0024360D01*
X0080518Y0024394D01*
X0080446Y0024431D01*
X0080375Y0024472D01*
X0080307Y0024516D01*
X0080241Y0024563D01*
X0080177Y0024614D01*
X0080115Y0024668D01*
X0080057Y0024724D01*
X0080001Y0024784D01*
X0079948Y0024846D01*
X0079898Y0024910D01*
X0079852Y0024977D01*
X0079808Y0025046D01*
X0079769Y0025117D01*
X0079732Y0025190D01*
X0079699Y0025264D01*
X0079670Y0025341D01*
X0079645Y0025418D01*
X0079623Y0025497D01*
X0079606Y0025576D01*
X0079592Y0025656D01*
X0079582Y0025737D01*
X0079576Y0025819D01*
X0079574Y0025900D01*
X0097163Y0025900D02*
X0097165Y0025981D01*
X0097171Y0026063D01*
X0097181Y0026144D01*
X0097195Y0026224D01*
X0097212Y0026303D01*
X0097234Y0026382D01*
X0097259Y0026459D01*
X0097288Y0026536D01*
X0097321Y0026610D01*
X0097358Y0026683D01*
X0097397Y0026754D01*
X0097441Y0026823D01*
X0097487Y0026890D01*
X0097537Y0026954D01*
X0097590Y0027016D01*
X0097646Y0027076D01*
X0097704Y0027132D01*
X0097766Y0027186D01*
X0097830Y0027237D01*
X0097896Y0027284D01*
X0097964Y0027328D01*
X0098035Y0027369D01*
X0098107Y0027406D01*
X0098182Y0027440D01*
X0098257Y0027470D01*
X0098335Y0027496D01*
X0098413Y0027519D01*
X0098492Y0027537D01*
X0098572Y0027552D01*
X0098653Y0027563D01*
X0098734Y0027570D01*
X0098816Y0027573D01*
X0098897Y0027572D01*
X0098978Y0027567D01*
X0099059Y0027558D01*
X0099140Y0027545D01*
X0099220Y0027528D01*
X0099298Y0027508D01*
X0099376Y0027483D01*
X0099453Y0027455D01*
X0099528Y0027423D01*
X0099601Y0027388D01*
X0099672Y0027349D01*
X0099742Y0027306D01*
X0099809Y0027261D01*
X0099875Y0027212D01*
X0099937Y0027160D01*
X0099997Y0027104D01*
X0100054Y0027046D01*
X0100109Y0026986D01*
X0100160Y0026922D01*
X0100208Y0026857D01*
X0100253Y0026789D01*
X0100295Y0026719D01*
X0100333Y0026647D01*
X0100368Y0026573D01*
X0100399Y0026498D01*
X0100426Y0026421D01*
X0100449Y0026343D01*
X0100469Y0026264D01*
X0100485Y0026184D01*
X0100497Y0026103D01*
X0100505Y0026022D01*
X0100509Y0025941D01*
X0100509Y0025859D01*
X0100505Y0025778D01*
X0100497Y0025697D01*
X0100485Y0025616D01*
X0100469Y0025536D01*
X0100449Y0025457D01*
X0100426Y0025379D01*
X0100399Y0025302D01*
X0100368Y0025227D01*
X0100333Y0025153D01*
X0100295Y0025081D01*
X0100253Y0025011D01*
X0100208Y0024943D01*
X0100160Y0024878D01*
X0100109Y0024814D01*
X0100054Y0024754D01*
X0099997Y0024696D01*
X0099937Y0024640D01*
X0099875Y0024588D01*
X0099809Y0024539D01*
X0099742Y0024494D01*
X0099673Y0024451D01*
X0099601Y0024412D01*
X0099528Y0024377D01*
X0099453Y0024345D01*
X0099376Y0024317D01*
X0099298Y0024292D01*
X0099220Y0024272D01*
X0099140Y0024255D01*
X0099059Y0024242D01*
X0098978Y0024233D01*
X0098897Y0024228D01*
X0098816Y0024227D01*
X0098734Y0024230D01*
X0098653Y0024237D01*
X0098572Y0024248D01*
X0098492Y0024263D01*
X0098413Y0024281D01*
X0098335Y0024304D01*
X0098257Y0024330D01*
X0098182Y0024360D01*
X0098107Y0024394D01*
X0098035Y0024431D01*
X0097964Y0024472D01*
X0097896Y0024516D01*
X0097830Y0024563D01*
X0097766Y0024614D01*
X0097704Y0024668D01*
X0097646Y0024724D01*
X0097590Y0024784D01*
X0097537Y0024846D01*
X0097487Y0024910D01*
X0097441Y0024977D01*
X0097397Y0025046D01*
X0097358Y0025117D01*
X0097321Y0025190D01*
X0097288Y0025264D01*
X0097259Y0025341D01*
X0097234Y0025418D01*
X0097212Y0025497D01*
X0097195Y0025576D01*
X0097181Y0025656D01*
X0097171Y0025737D01*
X0097165Y0025819D01*
X0097163Y0025900D01*
X0108974Y0025900D02*
X0108976Y0025981D01*
X0108982Y0026063D01*
X0108992Y0026144D01*
X0109006Y0026224D01*
X0109023Y0026303D01*
X0109045Y0026382D01*
X0109070Y0026459D01*
X0109099Y0026536D01*
X0109132Y0026610D01*
X0109169Y0026683D01*
X0109208Y0026754D01*
X0109252Y0026823D01*
X0109298Y0026890D01*
X0109348Y0026954D01*
X0109401Y0027016D01*
X0109457Y0027076D01*
X0109515Y0027132D01*
X0109577Y0027186D01*
X0109641Y0027237D01*
X0109707Y0027284D01*
X0109775Y0027328D01*
X0109846Y0027369D01*
X0109918Y0027406D01*
X0109993Y0027440D01*
X0110068Y0027470D01*
X0110146Y0027496D01*
X0110224Y0027519D01*
X0110303Y0027537D01*
X0110383Y0027552D01*
X0110464Y0027563D01*
X0110545Y0027570D01*
X0110627Y0027573D01*
X0110708Y0027572D01*
X0110789Y0027567D01*
X0110870Y0027558D01*
X0110951Y0027545D01*
X0111031Y0027528D01*
X0111109Y0027508D01*
X0111187Y0027483D01*
X0111264Y0027455D01*
X0111339Y0027423D01*
X0111412Y0027388D01*
X0111483Y0027349D01*
X0111553Y0027306D01*
X0111620Y0027261D01*
X0111686Y0027212D01*
X0111748Y0027160D01*
X0111808Y0027104D01*
X0111865Y0027046D01*
X0111920Y0026986D01*
X0111971Y0026922D01*
X0112019Y0026857D01*
X0112064Y0026789D01*
X0112106Y0026719D01*
X0112144Y0026647D01*
X0112179Y0026573D01*
X0112210Y0026498D01*
X0112237Y0026421D01*
X0112260Y0026343D01*
X0112280Y0026264D01*
X0112296Y0026184D01*
X0112308Y0026103D01*
X0112316Y0026022D01*
X0112320Y0025941D01*
X0112320Y0025859D01*
X0112316Y0025778D01*
X0112308Y0025697D01*
X0112296Y0025616D01*
X0112280Y0025536D01*
X0112260Y0025457D01*
X0112237Y0025379D01*
X0112210Y0025302D01*
X0112179Y0025227D01*
X0112144Y0025153D01*
X0112106Y0025081D01*
X0112064Y0025011D01*
X0112019Y0024943D01*
X0111971Y0024878D01*
X0111920Y0024814D01*
X0111865Y0024754D01*
X0111808Y0024696D01*
X0111748Y0024640D01*
X0111686Y0024588D01*
X0111620Y0024539D01*
X0111553Y0024494D01*
X0111484Y0024451D01*
X0111412Y0024412D01*
X0111339Y0024377D01*
X0111264Y0024345D01*
X0111187Y0024317D01*
X0111109Y0024292D01*
X0111031Y0024272D01*
X0110951Y0024255D01*
X0110870Y0024242D01*
X0110789Y0024233D01*
X0110708Y0024228D01*
X0110627Y0024227D01*
X0110545Y0024230D01*
X0110464Y0024237D01*
X0110383Y0024248D01*
X0110303Y0024263D01*
X0110224Y0024281D01*
X0110146Y0024304D01*
X0110068Y0024330D01*
X0109993Y0024360D01*
X0109918Y0024394D01*
X0109846Y0024431D01*
X0109775Y0024472D01*
X0109707Y0024516D01*
X0109641Y0024563D01*
X0109577Y0024614D01*
X0109515Y0024668D01*
X0109457Y0024724D01*
X0109401Y0024784D01*
X0109348Y0024846D01*
X0109298Y0024910D01*
X0109252Y0024977D01*
X0109208Y0025046D01*
X0109169Y0025117D01*
X0109132Y0025190D01*
X0109099Y0025264D01*
X0109070Y0025341D01*
X0109045Y0025418D01*
X0109023Y0025497D01*
X0109006Y0025576D01*
X0108992Y0025656D01*
X0108982Y0025737D01*
X0108976Y0025819D01*
X0108974Y0025900D01*
X0094274Y0055000D02*
X0094276Y0055081D01*
X0094282Y0055163D01*
X0094292Y0055244D01*
X0094306Y0055324D01*
X0094323Y0055403D01*
X0094345Y0055482D01*
X0094370Y0055559D01*
X0094399Y0055636D01*
X0094432Y0055710D01*
X0094469Y0055783D01*
X0094508Y0055854D01*
X0094552Y0055923D01*
X0094598Y0055990D01*
X0094648Y0056054D01*
X0094701Y0056116D01*
X0094757Y0056176D01*
X0094815Y0056232D01*
X0094877Y0056286D01*
X0094941Y0056337D01*
X0095007Y0056384D01*
X0095075Y0056428D01*
X0095146Y0056469D01*
X0095218Y0056506D01*
X0095293Y0056540D01*
X0095368Y0056570D01*
X0095446Y0056596D01*
X0095524Y0056619D01*
X0095603Y0056637D01*
X0095683Y0056652D01*
X0095764Y0056663D01*
X0095845Y0056670D01*
X0095927Y0056673D01*
X0096008Y0056672D01*
X0096089Y0056667D01*
X0096170Y0056658D01*
X0096251Y0056645D01*
X0096331Y0056628D01*
X0096409Y0056608D01*
X0096487Y0056583D01*
X0096564Y0056555D01*
X0096639Y0056523D01*
X0096712Y0056488D01*
X0096783Y0056449D01*
X0096853Y0056406D01*
X0096920Y0056361D01*
X0096986Y0056312D01*
X0097048Y0056260D01*
X0097108Y0056204D01*
X0097165Y0056146D01*
X0097220Y0056086D01*
X0097271Y0056022D01*
X0097319Y0055957D01*
X0097364Y0055889D01*
X0097406Y0055819D01*
X0097444Y0055747D01*
X0097479Y0055673D01*
X0097510Y0055598D01*
X0097537Y0055521D01*
X0097560Y0055443D01*
X0097580Y0055364D01*
X0097596Y0055284D01*
X0097608Y0055203D01*
X0097616Y0055122D01*
X0097620Y0055041D01*
X0097620Y0054959D01*
X0097616Y0054878D01*
X0097608Y0054797D01*
X0097596Y0054716D01*
X0097580Y0054636D01*
X0097560Y0054557D01*
X0097537Y0054479D01*
X0097510Y0054402D01*
X0097479Y0054327D01*
X0097444Y0054253D01*
X0097406Y0054181D01*
X0097364Y0054111D01*
X0097319Y0054043D01*
X0097271Y0053978D01*
X0097220Y0053914D01*
X0097165Y0053854D01*
X0097108Y0053796D01*
X0097048Y0053740D01*
X0096986Y0053688D01*
X0096920Y0053639D01*
X0096853Y0053594D01*
X0096784Y0053551D01*
X0096712Y0053512D01*
X0096639Y0053477D01*
X0096564Y0053445D01*
X0096487Y0053417D01*
X0096409Y0053392D01*
X0096331Y0053372D01*
X0096251Y0053355D01*
X0096170Y0053342D01*
X0096089Y0053333D01*
X0096008Y0053328D01*
X0095927Y0053327D01*
X0095845Y0053330D01*
X0095764Y0053337D01*
X0095683Y0053348D01*
X0095603Y0053363D01*
X0095524Y0053381D01*
X0095446Y0053404D01*
X0095368Y0053430D01*
X0095293Y0053460D01*
X0095218Y0053494D01*
X0095146Y0053531D01*
X0095075Y0053572D01*
X0095007Y0053616D01*
X0094941Y0053663D01*
X0094877Y0053714D01*
X0094815Y0053768D01*
X0094757Y0053824D01*
X0094701Y0053884D01*
X0094648Y0053946D01*
X0094598Y0054010D01*
X0094552Y0054077D01*
X0094508Y0054146D01*
X0094469Y0054217D01*
X0094432Y0054290D01*
X0094399Y0054364D01*
X0094370Y0054441D01*
X0094345Y0054518D01*
X0094323Y0054597D01*
X0094306Y0054676D01*
X0094292Y0054756D01*
X0094282Y0054837D01*
X0094276Y0054919D01*
X0094274Y0055000D01*
X0082463Y0055000D02*
X0082465Y0055081D01*
X0082471Y0055163D01*
X0082481Y0055244D01*
X0082495Y0055324D01*
X0082512Y0055403D01*
X0082534Y0055482D01*
X0082559Y0055559D01*
X0082588Y0055636D01*
X0082621Y0055710D01*
X0082658Y0055783D01*
X0082697Y0055854D01*
X0082741Y0055923D01*
X0082787Y0055990D01*
X0082837Y0056054D01*
X0082890Y0056116D01*
X0082946Y0056176D01*
X0083004Y0056232D01*
X0083066Y0056286D01*
X0083130Y0056337D01*
X0083196Y0056384D01*
X0083264Y0056428D01*
X0083335Y0056469D01*
X0083407Y0056506D01*
X0083482Y0056540D01*
X0083557Y0056570D01*
X0083635Y0056596D01*
X0083713Y0056619D01*
X0083792Y0056637D01*
X0083872Y0056652D01*
X0083953Y0056663D01*
X0084034Y0056670D01*
X0084116Y0056673D01*
X0084197Y0056672D01*
X0084278Y0056667D01*
X0084359Y0056658D01*
X0084440Y0056645D01*
X0084520Y0056628D01*
X0084598Y0056608D01*
X0084676Y0056583D01*
X0084753Y0056555D01*
X0084828Y0056523D01*
X0084901Y0056488D01*
X0084972Y0056449D01*
X0085042Y0056406D01*
X0085109Y0056361D01*
X0085175Y0056312D01*
X0085237Y0056260D01*
X0085297Y0056204D01*
X0085354Y0056146D01*
X0085409Y0056086D01*
X0085460Y0056022D01*
X0085508Y0055957D01*
X0085553Y0055889D01*
X0085595Y0055819D01*
X0085633Y0055747D01*
X0085668Y0055673D01*
X0085699Y0055598D01*
X0085726Y0055521D01*
X0085749Y0055443D01*
X0085769Y0055364D01*
X0085785Y0055284D01*
X0085797Y0055203D01*
X0085805Y0055122D01*
X0085809Y0055041D01*
X0085809Y0054959D01*
X0085805Y0054878D01*
X0085797Y0054797D01*
X0085785Y0054716D01*
X0085769Y0054636D01*
X0085749Y0054557D01*
X0085726Y0054479D01*
X0085699Y0054402D01*
X0085668Y0054327D01*
X0085633Y0054253D01*
X0085595Y0054181D01*
X0085553Y0054111D01*
X0085508Y0054043D01*
X0085460Y0053978D01*
X0085409Y0053914D01*
X0085354Y0053854D01*
X0085297Y0053796D01*
X0085237Y0053740D01*
X0085175Y0053688D01*
X0085109Y0053639D01*
X0085042Y0053594D01*
X0084973Y0053551D01*
X0084901Y0053512D01*
X0084828Y0053477D01*
X0084753Y0053445D01*
X0084676Y0053417D01*
X0084598Y0053392D01*
X0084520Y0053372D01*
X0084440Y0053355D01*
X0084359Y0053342D01*
X0084278Y0053333D01*
X0084197Y0053328D01*
X0084116Y0053327D01*
X0084034Y0053330D01*
X0083953Y0053337D01*
X0083872Y0053348D01*
X0083792Y0053363D01*
X0083713Y0053381D01*
X0083635Y0053404D01*
X0083557Y0053430D01*
X0083482Y0053460D01*
X0083407Y0053494D01*
X0083335Y0053531D01*
X0083264Y0053572D01*
X0083196Y0053616D01*
X0083130Y0053663D01*
X0083066Y0053714D01*
X0083004Y0053768D01*
X0082946Y0053824D01*
X0082890Y0053884D01*
X0082837Y0053946D01*
X0082787Y0054010D01*
X0082741Y0054077D01*
X0082697Y0054146D01*
X0082658Y0054217D01*
X0082621Y0054290D01*
X0082588Y0054364D01*
X0082559Y0054441D01*
X0082534Y0054518D01*
X0082512Y0054597D01*
X0082495Y0054676D01*
X0082481Y0054756D01*
X0082471Y0054837D01*
X0082465Y0054919D01*
X0082463Y0055000D01*
D11*
X0064742Y0096500D03*
D12*
X0064742Y0128883D03*
X0064742Y0064117D03*
D13*
X0075242Y0067000D03*
X0075242Y0060800D03*
X0081242Y0060800D03*
X0081242Y0067000D03*
X0095242Y0081000D03*
X0095242Y0087200D03*
X0095242Y0093400D03*
X0101242Y0093400D03*
X0107442Y0093400D03*
X0107442Y0087200D03*
X0107442Y0081000D03*
X0101242Y0081000D03*
X0101242Y0087200D03*
X0101342Y0074800D03*
X0107342Y0074800D03*
X0113442Y0081000D03*
X0113442Y0087200D03*
X0113442Y0093400D03*
X0126642Y0097500D03*
X0132642Y0097500D03*
X0133842Y0063900D03*
X0139842Y0063900D03*
X0138342Y0056200D03*
X0144342Y0056200D03*
X0129442Y0046500D03*
X0129442Y0040500D03*
X0126742Y0022900D03*
X0132742Y0022900D03*
X0140942Y0022900D03*
X0146942Y0022900D03*
X0093042Y0022700D03*
X0087042Y0022700D03*
X0087042Y0029100D03*
X0093042Y0029100D03*
X0090742Y0041100D03*
X0090742Y0047100D03*
X0063542Y0047100D03*
X0063542Y0041100D03*
X0081642Y0127700D03*
X0081642Y0133700D03*
X0088342Y0133700D03*
X0088342Y0127700D03*
X0072342Y0142900D03*
X0072342Y0148900D03*
X0072342Y0154700D03*
X0072342Y0160700D03*
X0065642Y0161500D03*
X0059642Y0161500D03*
X0059642Y0155200D03*
X0065642Y0155200D03*
X0066042Y0148900D03*
X0066042Y0142900D03*
X0059742Y0142900D03*
X0059742Y0148900D03*
D14*
X0127342Y0086112D03*
X0127342Y0075088D03*
D15*
X0126648Y0107300D03*
X0122317Y0107300D03*
X0117987Y0107300D03*
X0113656Y0107300D03*
X0109325Y0107300D03*
X0105585Y0107300D03*
X0130979Y0107300D03*
X0135310Y0107300D03*
X0139640Y0107300D03*
D16*
X0145743Y0107300D03*
X0101845Y0124229D03*
D17*
X0101845Y0148639D03*
D18*
X0101845Y0164977D03*
D19*
X0154995Y0166749D03*
D20*
X0056972Y0039943D03*
X0056972Y0020257D03*
D21*
X0048523Y0016320D02*
X0044161Y0016320D01*
X0044161Y0043880D02*
X0048523Y0043880D01*
D22*
X0063192Y0014250D02*
X0064692Y0014250D01*
X0063192Y0014250D02*
X0063192Y0018750D01*
X0064692Y0018750D01*
X0064692Y0014250D01*
X0064692Y0015749D02*
X0063192Y0015749D01*
X0063192Y0017248D02*
X0064692Y0017248D01*
X0064692Y0018747D02*
X0063192Y0018747D01*
X0071192Y0014250D02*
X0072692Y0014250D01*
X0071192Y0014250D02*
X0071192Y0018750D01*
X0072692Y0018750D01*
X0072692Y0014250D01*
X0072692Y0015749D02*
X0071192Y0015749D01*
X0071192Y0017248D02*
X0072692Y0017248D01*
X0072692Y0018747D02*
X0071192Y0018747D01*
D23*
X0072442Y0018845D02*
X0067978Y0018845D01*
X0068169Y0018646D02*
X0072442Y0018646D01*
X0072442Y0018448D02*
X0068361Y0018448D01*
X0068553Y0018249D02*
X0072442Y0018249D01*
X0072442Y0018051D02*
X0068744Y0018051D01*
X0068936Y0017852D02*
X0072442Y0017852D01*
X0072442Y0017654D02*
X0069128Y0017654D01*
X0069319Y0017455D02*
X0072442Y0017455D01*
X0072442Y0017257D02*
X0069511Y0017257D01*
X0069703Y0017058D02*
X0072442Y0017058D01*
X0072442Y0016860D02*
X0069894Y0016860D01*
X0070086Y0016661D02*
X0072442Y0016661D01*
X0072442Y0016463D02*
X0070206Y0016463D01*
X0070242Y0016500D02*
X0067442Y0019400D01*
X0072442Y0019400D01*
X0072442Y0013600D01*
X0067442Y0013600D01*
X0070242Y0016500D01*
X0070014Y0016264D02*
X0072442Y0016264D01*
X0072442Y0016066D02*
X0069823Y0016066D01*
X0069631Y0015867D02*
X0072442Y0015867D01*
X0072442Y0015669D02*
X0069439Y0015669D01*
X0069248Y0015470D02*
X0072442Y0015470D01*
X0072442Y0015272D02*
X0069056Y0015272D01*
X0068864Y0015073D02*
X0072442Y0015073D01*
X0072442Y0014875D02*
X0068673Y0014875D01*
X0068481Y0014676D02*
X0072442Y0014676D01*
X0072442Y0014478D02*
X0068289Y0014478D01*
X0068098Y0014279D02*
X0072442Y0014279D01*
X0072442Y0014081D02*
X0067906Y0014081D01*
X0067714Y0013882D02*
X0072442Y0013882D01*
X0072442Y0013684D02*
X0067523Y0013684D01*
X0066569Y0014478D02*
X0063442Y0014478D01*
X0063442Y0014676D02*
X0066768Y0014676D01*
X0066966Y0014875D02*
X0063442Y0014875D01*
X0063442Y0015073D02*
X0067165Y0015073D01*
X0067364Y0015272D02*
X0063442Y0015272D01*
X0063442Y0015470D02*
X0067562Y0015470D01*
X0067761Y0015669D02*
X0063442Y0015669D01*
X0063442Y0015867D02*
X0067959Y0015867D01*
X0068158Y0016066D02*
X0063442Y0016066D01*
X0063442Y0016264D02*
X0068356Y0016264D01*
X0068555Y0016463D02*
X0063442Y0016463D01*
X0063442Y0016661D02*
X0068431Y0016661D01*
X0068592Y0016500D02*
X0065692Y0019400D01*
X0063442Y0019400D01*
X0063442Y0013600D01*
X0065692Y0013600D01*
X0068592Y0016500D01*
X0068232Y0016860D02*
X0063442Y0016860D01*
X0063442Y0017058D02*
X0068033Y0017058D01*
X0067835Y0017257D02*
X0063442Y0017257D01*
X0063442Y0017455D02*
X0067636Y0017455D01*
X0067438Y0017654D02*
X0063442Y0017654D01*
X0063442Y0017852D02*
X0067239Y0017852D01*
X0067041Y0018051D02*
X0063442Y0018051D01*
X0063442Y0018249D02*
X0066842Y0018249D01*
X0066644Y0018448D02*
X0063442Y0018448D01*
X0063442Y0018646D02*
X0066445Y0018646D01*
X0066247Y0018845D02*
X0063442Y0018845D01*
X0063442Y0019043D02*
X0066048Y0019043D01*
X0065850Y0019242D02*
X0063442Y0019242D01*
X0067594Y0019242D02*
X0072442Y0019242D01*
X0072442Y0019043D02*
X0067786Y0019043D01*
X0066371Y0014279D02*
X0063442Y0014279D01*
X0063442Y0014081D02*
X0066172Y0014081D01*
X0065974Y0013882D02*
X0063442Y0013882D01*
X0063442Y0013684D02*
X0065775Y0013684D01*
D24*
X0069063Y0167400D03*
X0059221Y0167400D03*
D25*
X0051910Y0164590D02*
X0045973Y0164590D01*
X0045973Y0150810D02*
X0051910Y0150810D01*
D26*
X0071630Y0048700D03*
X0082654Y0048700D03*
D27*
X0082654Y0038700D03*
X0071630Y0038700D03*
D28*
X0163642Y0037900D03*
X0163642Y0047900D03*
X0163642Y0057900D03*
X0163642Y0067900D03*
X0163642Y0077900D03*
X0163642Y0087900D03*
X0163642Y0097900D03*
X0163642Y0115100D03*
X0163642Y0125100D03*
X0163642Y0135100D03*
X0163642Y0145100D03*
X0163642Y0155100D03*
X0163642Y0165100D03*
X0163642Y0027900D03*
X0163642Y0017900D03*
D29*
X0164142Y0017491D02*
X0168842Y0017491D01*
X0168827Y0017400D02*
X0164142Y0017400D01*
X0164142Y0018400D01*
X0168827Y0018400D01*
X0168714Y0019118D01*
X0168461Y0019896D01*
X0168089Y0020625D01*
X0167608Y0021288D01*
X0167029Y0021866D01*
X0166367Y0022347D01*
X0165638Y0022719D01*
X0164859Y0022972D01*
X0164824Y0022978D01*
X0166474Y0023661D01*
X0167881Y0025068D01*
X0168642Y0026905D01*
X0168642Y0028895D01*
X0167881Y0030732D01*
X0166474Y0032139D01*
X0164636Y0032900D01*
X0166474Y0033661D01*
X0167881Y0035068D01*
X0168642Y0036905D01*
X0168642Y0038895D01*
X0167881Y0040732D01*
X0166474Y0042139D01*
X0164824Y0042822D01*
X0164859Y0042828D01*
X0165638Y0043081D01*
X0166367Y0043453D01*
X0167029Y0043934D01*
X0167608Y0044512D01*
X0168089Y0045175D01*
X0168461Y0045904D01*
X0168714Y0046682D01*
X0168827Y0047400D01*
X0164142Y0047400D01*
X0164142Y0048400D01*
X0168827Y0048400D01*
X0168714Y0049118D01*
X0168461Y0049896D01*
X0168089Y0050625D01*
X0167608Y0051288D01*
X0167029Y0051866D01*
X0166367Y0052347D01*
X0165638Y0052719D01*
X0164859Y0052972D01*
X0164824Y0052978D01*
X0166474Y0053661D01*
X0167881Y0055068D01*
X0168642Y0056905D01*
X0168642Y0058895D01*
X0167881Y0060732D01*
X0166474Y0062139D01*
X0164636Y0062900D01*
X0166474Y0063661D01*
X0167881Y0065068D01*
X0168642Y0066905D01*
X0168642Y0068895D01*
X0167881Y0070732D01*
X0166474Y0072139D01*
X0164824Y0072822D01*
X0164859Y0072828D01*
X0165638Y0073081D01*
X0166367Y0073453D01*
X0167029Y0073934D01*
X0167608Y0074512D01*
X0168089Y0075175D01*
X0168461Y0075904D01*
X0168714Y0076682D01*
X0168827Y0077400D01*
X0164142Y0077400D01*
X0164142Y0078400D01*
X0168827Y0078400D01*
X0168714Y0079118D01*
X0168461Y0079896D01*
X0168089Y0080625D01*
X0167608Y0081288D01*
X0167029Y0081866D01*
X0166367Y0082347D01*
X0165638Y0082719D01*
X0164859Y0082972D01*
X0164824Y0082978D01*
X0166474Y0083661D01*
X0167881Y0085068D01*
X0168642Y0086905D01*
X0168642Y0088895D01*
X0167881Y0090732D01*
X0166474Y0092139D01*
X0164636Y0092900D01*
X0166474Y0093661D01*
X0167881Y0095068D01*
X0168642Y0096905D01*
X0168642Y0098895D01*
X0167881Y0100732D01*
X0166474Y0102139D01*
X0164636Y0102900D01*
X0162647Y0102900D01*
X0160810Y0102139D01*
X0159403Y0100732D01*
X0158642Y0098895D01*
X0158642Y0096905D01*
X0159403Y0095068D01*
X0160810Y0093661D01*
X0162647Y0092900D01*
X0164636Y0092900D01*
X0162647Y0092900D01*
X0160810Y0092139D01*
X0159403Y0090732D01*
X0158642Y0088895D01*
X0158642Y0086905D01*
X0159403Y0085068D01*
X0160810Y0083661D01*
X0162460Y0082978D01*
X0162424Y0082972D01*
X0161646Y0082719D01*
X0160916Y0082347D01*
X0160254Y0081866D01*
X0159675Y0081288D01*
X0159194Y0080625D01*
X0158823Y0079896D01*
X0158570Y0079118D01*
X0158456Y0078400D01*
X0163142Y0078400D01*
X0163142Y0077400D01*
X0158456Y0077400D01*
X0158570Y0076682D01*
X0158823Y0075904D01*
X0159194Y0075175D01*
X0159675Y0074512D01*
X0160254Y0073934D01*
X0160916Y0073453D01*
X0161646Y0073081D01*
X0162424Y0072828D01*
X0162460Y0072822D01*
X0160810Y0072139D01*
X0159403Y0070732D01*
X0158642Y0068895D01*
X0158642Y0066905D01*
X0159403Y0065068D01*
X0160810Y0063661D01*
X0162647Y0062900D01*
X0164636Y0062900D01*
X0162647Y0062900D01*
X0160810Y0062139D01*
X0159403Y0060732D01*
X0158642Y0058895D01*
X0158642Y0056905D01*
X0159403Y0055068D01*
X0160810Y0053661D01*
X0162460Y0052978D01*
X0162424Y0052972D01*
X0161646Y0052719D01*
X0160916Y0052347D01*
X0160254Y0051866D01*
X0159675Y0051288D01*
X0159194Y0050625D01*
X0158823Y0049896D01*
X0158570Y0049118D01*
X0158456Y0048400D01*
X0163142Y0048400D01*
X0163142Y0047400D01*
X0158456Y0047400D01*
X0158570Y0046682D01*
X0158823Y0045904D01*
X0159194Y0045175D01*
X0159675Y0044512D01*
X0160254Y0043934D01*
X0160916Y0043453D01*
X0161646Y0043081D01*
X0162424Y0042828D01*
X0162460Y0042822D01*
X0160810Y0042139D01*
X0160429Y0041758D01*
X0155342Y0046846D01*
X0155342Y0059013D01*
X0155342Y0061895D01*
X0145937Y0071300D01*
X0132085Y0071300D01*
X0132185Y0071400D01*
X0132185Y0078776D01*
X0131424Y0079538D01*
X0123260Y0079538D01*
X0122498Y0078776D01*
X0122498Y0076888D01*
X0120684Y0076888D01*
X0115796Y0072000D01*
X0115345Y0072000D01*
X0114426Y0071619D01*
X0113722Y0070916D01*
X0113620Y0070668D01*
X0112987Y0071300D01*
X0107077Y0071300D01*
X0106758Y0071619D01*
X0106020Y0071925D01*
X0109455Y0071925D01*
X0110217Y0072687D01*
X0110217Y0073000D01*
X0114029Y0073000D01*
X0115142Y0074113D01*
X0121042Y0080013D01*
X0121042Y0080764D01*
X0121261Y0080984D01*
X0121642Y0081903D01*
X0121642Y0082897D01*
X0121261Y0083816D01*
X0120558Y0084519D01*
X0119639Y0084900D01*
X0118645Y0084900D01*
X0117726Y0084519D01*
X0117022Y0083816D01*
X0116642Y0082897D01*
X0116642Y0081903D01*
X0116910Y0081255D01*
X0116367Y0080713D01*
X0113729Y0080713D01*
X0113729Y0081287D01*
X0116517Y0081287D01*
X0116517Y0082772D01*
X0116414Y0083154D01*
X0116217Y0083496D01*
X0115938Y0083775D01*
X0115596Y0083973D01*
X0115214Y0084075D01*
X0113729Y0084075D01*
X0113729Y0081287D01*
X0113154Y0081287D01*
X0113154Y0080713D01*
X0110367Y0080713D01*
X0110367Y0079228D01*
X0110469Y0078846D01*
X0110667Y0078504D01*
X0110946Y0078225D01*
X0111288Y0078027D01*
X0111670Y0077925D01*
X0113154Y0077925D01*
X0113154Y0080713D01*
X0113729Y0080713D01*
X0113729Y0078074D01*
X0112455Y0076800D01*
X0110217Y0076800D01*
X0110217Y0076913D01*
X0109455Y0077675D01*
X0109342Y0077675D01*
X0109342Y0078125D01*
X0109555Y0078125D01*
X0110317Y0078887D01*
X0110317Y0083113D01*
X0109555Y0083875D01*
X0109342Y0083875D01*
X0109342Y0084325D01*
X0109555Y0084325D01*
X0110317Y0085087D01*
X0110317Y0089313D01*
X0109555Y0090075D01*
X0109342Y0090075D01*
X0109342Y0090525D01*
X0109555Y0090525D01*
X0110317Y0091287D01*
X0110317Y0095513D01*
X0109555Y0096275D01*
X0105329Y0096275D01*
X0104567Y0095513D01*
X0104567Y0095300D01*
X0104117Y0095300D01*
X0104117Y0095513D01*
X0103355Y0096275D01*
X0099129Y0096275D01*
X0098367Y0095513D01*
X0098367Y0091287D01*
X0099129Y0090525D01*
X0099342Y0090525D01*
X0099342Y0090075D01*
X0099129Y0090075D01*
X0098367Y0089313D01*
X0098367Y0085087D01*
X0099129Y0084325D01*
X0099342Y0084325D01*
X0099342Y0083875D01*
X0099129Y0083875D01*
X0098367Y0083113D01*
X0098367Y0078887D01*
X0099129Y0078125D01*
X0103355Y0078125D01*
X0104117Y0078887D01*
X0104117Y0079100D01*
X0104567Y0079100D01*
X0104567Y0078887D01*
X0105329Y0078125D01*
X0105542Y0078125D01*
X0105542Y0077675D01*
X0105229Y0077675D01*
X0104467Y0076913D01*
X0104467Y0072687D01*
X0105154Y0072000D01*
X0104845Y0072000D01*
X0103926Y0071619D01*
X0103222Y0070916D01*
X0102842Y0069997D01*
X0102842Y0069003D01*
X0103222Y0068084D01*
X0103926Y0067381D01*
X0104845Y0067000D01*
X0105839Y0067000D01*
X0106758Y0067381D01*
X0107077Y0067700D01*
X0111320Y0067700D01*
X0111126Y0067619D01*
X0110422Y0066916D01*
X0110042Y0065997D01*
X0110042Y0065003D01*
X0110209Y0064600D01*
X0105987Y0064600D01*
X0088642Y0081946D01*
X0088642Y0082397D01*
X0088261Y0083316D01*
X0087558Y0084019D01*
X0086639Y0084400D01*
X0085645Y0084400D01*
X0084726Y0084019D01*
X0084022Y0083316D01*
X0083642Y0082397D01*
X0083642Y0081403D01*
X0084022Y0080484D01*
X0084726Y0079781D01*
X0085645Y0079400D01*
X0086096Y0079400D01*
X0088296Y0077200D01*
X0087377Y0077200D01*
X0087058Y0077519D01*
X0086139Y0077900D01*
X0085145Y0077900D01*
X0084226Y0077519D01*
X0083542Y0076836D01*
X0083542Y0113664D01*
X0083761Y0113884D01*
X0084142Y0114803D01*
X0084142Y0115797D01*
X0083761Y0116716D01*
X0083542Y0116936D01*
X0083542Y0124825D01*
X0083755Y0124825D01*
X0084517Y0125587D01*
X0084517Y0129813D01*
X0083755Y0130575D01*
X0079529Y0130575D01*
X0078767Y0129813D01*
X0078767Y0125587D01*
X0079529Y0124825D01*
X0079742Y0124825D01*
X0079742Y0116936D01*
X0079522Y0116716D01*
X0079461Y0116568D01*
X0072341Y0123688D01*
X0072341Y0135721D01*
X0071579Y0136483D01*
X0057904Y0136483D01*
X0057143Y0135721D01*
X0057143Y0122046D01*
X0057904Y0121284D01*
X0069371Y0121284D01*
X0077942Y0112713D01*
X0077942Y0101214D01*
X0077939Y0101222D01*
X0077413Y0102493D01*
X0076764Y0103706D01*
X0076000Y0104850D01*
X0075128Y0105913D01*
X0074155Y0106886D01*
X0073092Y0107758D01*
X0071948Y0108523D01*
X0070735Y0109171D01*
X0069464Y0109698D01*
X0068148Y0110097D01*
X0066799Y0110365D01*
X0065430Y0110500D01*
X0065242Y0110500D01*
X0065242Y0097000D01*
X0064242Y0097000D01*
X0064242Y0110500D01*
X0064054Y0110500D01*
X0062685Y0110365D01*
X0061336Y0110097D01*
X0060020Y0109698D01*
X0058749Y0109171D01*
X0057536Y0108523D01*
X0056392Y0107758D01*
X0055329Y0106886D01*
X0054356Y0105913D01*
X0053483Y0104850D01*
X0052719Y0103706D01*
X0052071Y0102493D01*
X0051544Y0101222D01*
X0051145Y0099906D01*
X0050877Y0098557D01*
X0050742Y0097188D01*
X0050742Y0097000D01*
X0064242Y0097000D01*
X0064242Y0096000D01*
X0065242Y0096000D01*
X0065242Y0082500D01*
X0065430Y0082500D01*
X0066799Y0082635D01*
X0068148Y0082903D01*
X0069464Y0083302D01*
X0070735Y0083829D01*
X0071948Y0084477D01*
X0072742Y0085008D01*
X0072742Y0084603D01*
X0073122Y0083684D01*
X0073342Y0083464D01*
X0073342Y0069875D01*
X0073129Y0069875D01*
X0072367Y0069113D01*
X0072367Y0064887D01*
X0073129Y0064125D01*
X0073342Y0064125D01*
X0073342Y0063675D01*
X0073129Y0063675D01*
X0072367Y0062913D01*
X0072367Y0058687D01*
X0073129Y0057925D01*
X0077355Y0057925D01*
X0078117Y0058687D01*
X0078117Y0062913D01*
X0077355Y0063675D01*
X0077142Y0063675D01*
X0077142Y0064125D01*
X0077355Y0064125D01*
X0078117Y0064887D01*
X0078117Y0069113D01*
X0077355Y0069875D01*
X0077142Y0069875D01*
X0077142Y0083464D01*
X0077361Y0083684D01*
X0077742Y0084603D01*
X0077742Y0085597D01*
X0077361Y0086516D01*
X0076658Y0087219D01*
X0075739Y0087600D01*
X0075549Y0087600D01*
X0076000Y0088150D01*
X0076764Y0089294D01*
X0077413Y0090507D01*
X0077939Y0091778D01*
X0077942Y0091786D01*
X0077942Y0072836D01*
X0077722Y0072616D01*
X0077342Y0071697D01*
X0077342Y0070703D01*
X0077722Y0069784D01*
X0078380Y0069126D01*
X0078367Y0069113D01*
X0078367Y0064887D01*
X0079129Y0064125D01*
X0083355Y0064125D01*
X0083430Y0064200D01*
X0093306Y0064200D01*
X0093526Y0063981D01*
X0094445Y0063600D01*
X0095439Y0063600D01*
X0096358Y0063981D01*
X0097061Y0064684D01*
X0097442Y0065603D01*
X0097442Y0065792D01*
X0107879Y0055354D01*
X0108933Y0054300D01*
X0135467Y0054300D01*
X0135467Y0054087D01*
X0136229Y0053325D01*
X0140455Y0053325D01*
X0141217Y0054087D01*
X0141217Y0058313D01*
X0140455Y0059075D01*
X0136229Y0059075D01*
X0135467Y0058313D01*
X0135467Y0057900D01*
X0110425Y0057900D01*
X0107325Y0061000D01*
X0133487Y0061000D01*
X0133513Y0061025D01*
X0135955Y0061025D01*
X0136717Y0061787D01*
X0136717Y0066013D01*
X0136630Y0066100D01*
X0137054Y0066100D01*
X0136967Y0066013D01*
X0136967Y0061787D01*
X0137729Y0061025D01*
X0141955Y0061025D01*
X0142717Y0061787D01*
X0142717Y0062100D01*
X0143006Y0062100D01*
X0143326Y0061781D01*
X0144245Y0061400D01*
X0145239Y0061400D01*
X0146158Y0061781D01*
X0146861Y0062484D01*
X0147000Y0062818D01*
X0150142Y0059676D01*
X0150142Y0058533D01*
X0149739Y0058700D01*
X0148745Y0058700D01*
X0147826Y0058319D01*
X0147506Y0058000D01*
X0147217Y0058000D01*
X0147217Y0058313D01*
X0146455Y0059075D01*
X0142229Y0059075D01*
X0141467Y0058313D01*
X0141467Y0054087D01*
X0142229Y0053325D01*
X0146455Y0053325D01*
X0147217Y0054087D01*
X0147217Y0054400D01*
X0147506Y0054400D01*
X0147826Y0054081D01*
X0148745Y0053700D01*
X0149739Y0053700D01*
X0150142Y0053867D01*
X0150142Y0037054D01*
X0151196Y0036000D01*
X0158642Y0028554D01*
X0158642Y0026905D01*
X0159403Y0025068D01*
X0160810Y0023661D01*
X0162460Y0022978D01*
X0162424Y0022972D01*
X0161646Y0022719D01*
X0160916Y0022347D01*
X0160254Y0021866D01*
X0159675Y0021288D01*
X0159194Y0020625D01*
X0158823Y0019896D01*
X0158570Y0019118D01*
X0158456Y0018400D01*
X0163142Y0018400D01*
X0163142Y0017400D01*
X0158456Y0017400D01*
X0158570Y0016682D01*
X0158823Y0015904D01*
X0159194Y0015175D01*
X0159675Y0014512D01*
X0160254Y0013934D01*
X0160916Y0013453D01*
X0161646Y0013081D01*
X0161895Y0013000D01*
X0074568Y0013000D01*
X0074788Y0013382D01*
X0074942Y0013954D01*
X0074942Y0016250D01*
X0072192Y0016250D01*
X0072192Y0016750D01*
X0074942Y0016750D01*
X0074942Y0019046D01*
X0074788Y0019618D01*
X0074492Y0020132D01*
X0074073Y0020550D01*
X0073560Y0020847D01*
X0073261Y0020927D01*
X0074469Y0020927D01*
X0074496Y0020900D01*
X0079696Y0020900D01*
X0083096Y0017500D01*
X0093187Y0017500D01*
X0094242Y0018554D01*
X0094842Y0019154D01*
X0094842Y0019825D01*
X0095155Y0019825D01*
X0095917Y0020587D01*
X0095917Y0020900D01*
X0112887Y0020900D01*
X0118887Y0026900D01*
X0119942Y0027954D01*
X0119942Y0029384D01*
X0120145Y0029300D01*
X0121139Y0029300D01*
X0122058Y0029681D01*
X0122277Y0029900D01*
X0126864Y0029900D01*
X0130989Y0025775D01*
X0130629Y0025775D01*
X0129867Y0025013D01*
X0129867Y0020787D01*
X0130629Y0020025D01*
X0134855Y0020025D01*
X0135556Y0020726D01*
X0136345Y0020400D01*
X0137339Y0020400D01*
X0138127Y0020726D01*
X0138829Y0020025D01*
X0143055Y0020025D01*
X0143817Y0020787D01*
X0143817Y0025013D01*
X0143055Y0025775D01*
X0138829Y0025775D01*
X0138127Y0025074D01*
X0137339Y0025400D01*
X0136738Y0025400D01*
X0128438Y0033700D01*
X0122277Y0033700D01*
X0122058Y0033919D01*
X0121139Y0034300D01*
X0120145Y0034300D01*
X0119942Y0034216D01*
X0119942Y0045346D01*
X0118887Y0046400D01*
X0118042Y0047246D01*
X0118042Y0047697D01*
X0117661Y0048616D01*
X0116958Y0049319D01*
X0116039Y0049700D01*
X0115045Y0049700D01*
X0114126Y0049319D01*
X0113422Y0048616D01*
X0113042Y0047697D01*
X0113042Y0046703D01*
X0113422Y0045784D01*
X0114006Y0045200D01*
X0113422Y0044616D01*
X0113042Y0043697D01*
X0113042Y0042703D01*
X0113422Y0041784D01*
X0113842Y0041364D01*
X0113842Y0036146D01*
X0108596Y0030900D01*
X0095917Y0030900D01*
X0095917Y0031213D01*
X0095155Y0031975D01*
X0094842Y0031975D01*
X0094842Y0032646D01*
X0094242Y0033246D01*
X0093187Y0034300D01*
X0085998Y0034300D01*
X0086710Y0035012D01*
X0086710Y0035100D01*
X0087506Y0035100D01*
X0087726Y0034881D01*
X0088645Y0034500D01*
X0089639Y0034500D01*
X0090558Y0034881D01*
X0091261Y0035584D01*
X0091642Y0036503D01*
X0091642Y0037497D01*
X0091340Y0038225D01*
X0092855Y0038225D01*
X0093617Y0038987D01*
X0093617Y0043213D01*
X0092855Y0043975D01*
X0088629Y0043975D01*
X0087867Y0043213D01*
X0087867Y0043000D01*
X0086098Y0043000D01*
X0085948Y0043150D01*
X0084554Y0043150D01*
X0084554Y0043857D01*
X0085161Y0043857D01*
X0085922Y0044618D01*
X0085922Y0052305D01*
X0085934Y0052310D01*
X0086826Y0053203D01*
X0087310Y0054369D01*
X0087310Y0055631D01*
X0086826Y0056797D01*
X0085934Y0057690D01*
X0084767Y0058173D01*
X0083886Y0058173D01*
X0084017Y0058304D01*
X0084214Y0058646D01*
X0084317Y0059028D01*
X0084317Y0060513D01*
X0081529Y0060513D01*
X0081529Y0061087D01*
X0084317Y0061087D01*
X0084317Y0062572D01*
X0084214Y0062954D01*
X0084017Y0063296D01*
X0083738Y0063575D01*
X0083396Y0063773D01*
X0083014Y0063875D01*
X0081529Y0063875D01*
X0081529Y0061087D01*
X0080954Y0061087D01*
X0080954Y0060513D01*
X0078167Y0060513D01*
X0078167Y0059028D01*
X0078269Y0058646D01*
X0078467Y0058304D01*
X0078746Y0058025D01*
X0079088Y0057827D01*
X0079470Y0057725D01*
X0080954Y0057725D01*
X0080954Y0060513D01*
X0081529Y0060513D01*
X0081529Y0057725D01*
X0082424Y0057725D01*
X0082339Y0057690D01*
X0081446Y0056797D01*
X0080963Y0055631D01*
X0080963Y0054369D01*
X0081305Y0053543D01*
X0080147Y0053543D01*
X0079385Y0052782D01*
X0079385Y0044618D01*
X0080147Y0043857D01*
X0080754Y0043857D01*
X0080754Y0043150D01*
X0079359Y0043150D01*
X0078598Y0042388D01*
X0078598Y0035012D01*
X0079310Y0034300D01*
X0075220Y0034300D01*
X0075307Y0034350D01*
X0075586Y0034629D01*
X0075784Y0034971D01*
X0075886Y0035353D01*
X0075886Y0038200D01*
X0072130Y0038200D01*
X0072130Y0039200D01*
X0071130Y0039200D01*
X0071130Y0043350D01*
X0068677Y0043350D01*
X0068295Y0043247D01*
X0067953Y0043050D01*
X0067674Y0042771D01*
X0067476Y0042429D01*
X0067374Y0042047D01*
X0067374Y0039200D01*
X0071130Y0039200D01*
X0071130Y0038200D01*
X0067374Y0038200D01*
X0067374Y0035353D01*
X0067476Y0034971D01*
X0067674Y0034629D01*
X0067953Y0034350D01*
X0068040Y0034300D01*
X0065677Y0034300D01*
X0065358Y0034619D01*
X0064439Y0035000D01*
X0063445Y0035000D01*
X0062526Y0034619D01*
X0061822Y0033916D01*
X0061442Y0032997D01*
X0061442Y0032003D01*
X0061822Y0031084D01*
X0062406Y0030500D01*
X0061822Y0029916D01*
X0061442Y0028997D01*
X0061442Y0028003D01*
X0061822Y0027084D01*
X0062142Y0026764D01*
X0062142Y0026054D01*
X0062635Y0025561D01*
X0062475Y0025495D01*
X0061747Y0024767D01*
X0061353Y0023815D01*
X0061353Y0022785D01*
X0061747Y0021833D01*
X0062142Y0021439D01*
X0062142Y0020599D01*
X0061142Y0019599D01*
X0061142Y0013401D01*
X0061543Y0013000D01*
X0049603Y0013000D01*
X0050495Y0013369D01*
X0051474Y0014349D01*
X0052004Y0015628D01*
X0052004Y0017013D01*
X0051474Y0018292D01*
X0050495Y0019272D01*
X0049215Y0019802D01*
X0043468Y0019802D01*
X0042189Y0019272D01*
X0041210Y0018292D01*
X0040680Y0017013D01*
X0040680Y0015628D01*
X0041210Y0014349D01*
X0042189Y0013369D01*
X0043081Y0013000D01*
X0039842Y0013000D01*
X0039842Y0170000D01*
X0098576Y0170000D01*
X0098576Y0158927D01*
X0099338Y0158165D01*
X0103301Y0158165D01*
X0103301Y0151513D01*
X0099338Y0151513D01*
X0098576Y0150752D01*
X0098576Y0147916D01*
X0097096Y0146435D01*
X0096042Y0145381D01*
X0096042Y0136116D01*
X0095839Y0136200D01*
X0094845Y0136200D01*
X0093926Y0135819D01*
X0093606Y0135500D01*
X0091217Y0135500D01*
X0091217Y0135813D01*
X0090455Y0136575D01*
X0086229Y0136575D01*
X0085467Y0135813D01*
X0085467Y0131587D01*
X0086229Y0130825D01*
X0090455Y0130825D01*
X0091217Y0131587D01*
X0091217Y0131900D01*
X0093606Y0131900D01*
X0093926Y0131581D01*
X0094845Y0131200D01*
X0095839Y0131200D01*
X0096042Y0131284D01*
X0096042Y0114392D01*
X0095539Y0114600D01*
X0094545Y0114600D01*
X0093626Y0114219D01*
X0093306Y0113900D01*
X0091396Y0113900D01*
X0090342Y0112846D01*
X0084342Y0106846D01*
X0084342Y0101136D01*
X0084022Y0100816D01*
X0083642Y0099897D01*
X0083642Y0098903D01*
X0084022Y0097984D01*
X0084726Y0097281D01*
X0085645Y0096900D01*
X0086639Y0096900D01*
X0087558Y0097281D01*
X0088261Y0097984D01*
X0088642Y0098903D01*
X0088642Y0099897D01*
X0088261Y0100816D01*
X0087942Y0101136D01*
X0087942Y0105354D01*
X0092887Y0110300D01*
X0093306Y0110300D01*
X0093626Y0109981D01*
X0094545Y0109600D01*
X0095539Y0109600D01*
X0096042Y0109808D01*
X0096042Y0105754D01*
X0105296Y0096500D01*
X0112006Y0096500D01*
X0112031Y0096475D01*
X0111670Y0096475D01*
X0111288Y0096373D01*
X0110946Y0096175D01*
X0110667Y0095896D01*
X0110469Y0095554D01*
X0110367Y0095172D01*
X0110367Y0093687D01*
X0113154Y0093687D01*
X0113154Y0093113D01*
X0110367Y0093113D01*
X0110367Y0091628D01*
X0110469Y0091246D01*
X0110667Y0090904D01*
X0110946Y0090625D01*
X0111288Y0090427D01*
X0111670Y0090325D01*
X0113154Y0090325D01*
X0113154Y0093113D01*
X0113729Y0093113D01*
X0113729Y0093687D01*
X0116517Y0093687D01*
X0116517Y0095172D01*
X0116414Y0095554D01*
X0116217Y0095896D01*
X0115938Y0096175D01*
X0115596Y0096373D01*
X0115402Y0096424D01*
X0115861Y0096884D01*
X0115964Y0097132D01*
X0117642Y0095454D01*
X0117642Y0095003D01*
X0118022Y0094084D01*
X0118726Y0093381D01*
X0119645Y0093000D01*
X0120142Y0093000D01*
X0120142Y0092303D01*
X0120522Y0091384D01*
X0121226Y0090681D01*
X0122145Y0090300D01*
X0122716Y0090300D01*
X0122598Y0090182D01*
X0122401Y0089840D01*
X0122298Y0089459D01*
X0122298Y0086612D01*
X0126842Y0086612D01*
X0126842Y0090761D01*
X0124139Y0090761D01*
X0124761Y0091384D01*
X0125142Y0092303D01*
X0125142Y0093297D01*
X0124761Y0094216D01*
X0124442Y0094536D01*
X0124442Y0094712D01*
X0124529Y0094625D01*
X0128755Y0094625D01*
X0129517Y0095387D01*
X0129517Y0099613D01*
X0129430Y0099700D01*
X0129696Y0099700D01*
X0129669Y0099654D01*
X0129567Y0099272D01*
X0129567Y0097787D01*
X0132354Y0097787D01*
X0132354Y0097213D01*
X0129567Y0097213D01*
X0129567Y0095728D01*
X0129669Y0095346D01*
X0129867Y0095004D01*
X0130146Y0094725D01*
X0130488Y0094527D01*
X0130870Y0094425D01*
X0132354Y0094425D01*
X0132354Y0097213D01*
X0132929Y0097213D01*
X0132929Y0097787D01*
X0135717Y0097787D01*
X0135717Y0099272D01*
X0135614Y0099654D01*
X0135588Y0099700D01*
X0144555Y0099700D01*
X0147742Y0096513D01*
X0147742Y0096403D01*
X0148122Y0095484D01*
X0148826Y0094781D01*
X0149745Y0094400D01*
X0150739Y0094400D01*
X0151658Y0094781D01*
X0152361Y0095484D01*
X0152742Y0096403D01*
X0152742Y0097397D01*
X0152361Y0098316D01*
X0151658Y0099019D01*
X0150739Y0099400D01*
X0150229Y0099400D01*
X0147242Y0102387D01*
X0146129Y0103500D01*
X0128363Y0103500D01*
X0128363Y0103638D01*
X0128565Y0103638D01*
X0128813Y0103887D01*
X0129062Y0103638D01*
X0132895Y0103638D01*
X0133144Y0103887D01*
X0133393Y0103638D01*
X0137226Y0103638D01*
X0137475Y0103887D01*
X0137724Y0103638D01*
X0141557Y0103638D01*
X0142318Y0104399D01*
X0142318Y0110201D01*
X0141557Y0110962D01*
X0141425Y0110962D01*
X0140387Y0112000D01*
X0131087Y0121300D01*
X0118742Y0121300D01*
X0118742Y0122064D01*
X0119061Y0122384D01*
X0119442Y0123303D01*
X0119442Y0124297D01*
X0119061Y0125216D01*
X0118592Y0125685D01*
X0142147Y0125685D01*
X0142909Y0126447D01*
X0142909Y0133823D01*
X0142147Y0134584D01*
X0108657Y0134584D01*
X0108657Y0162563D01*
X0107895Y0163324D01*
X0105113Y0163324D01*
X0105113Y0170000D01*
X0138931Y0170000D01*
X0138931Y0164636D01*
X0139692Y0163874D01*
X0150809Y0163874D01*
X0151136Y0164201D01*
X0151136Y0162470D01*
X0151897Y0161709D01*
X0158092Y0161709D01*
X0158854Y0162470D01*
X0158854Y0163594D01*
X0159403Y0162268D01*
X0160810Y0160861D01*
X0162647Y0160100D01*
X0160810Y0159339D01*
X0159403Y0157932D01*
X0158642Y0156095D01*
X0158642Y0154105D01*
X0159403Y0152268D01*
X0160810Y0150861D01*
X0162460Y0150178D01*
X0162424Y0150172D01*
X0161646Y0149919D01*
X0160916Y0149547D01*
X0160254Y0149066D01*
X0159675Y0148488D01*
X0159194Y0147825D01*
X0158823Y0147096D01*
X0158570Y0146318D01*
X0158456Y0145600D01*
X0163142Y0145600D01*
X0163142Y0144600D01*
X0158456Y0144600D01*
X0158570Y0143882D01*
X0158823Y0143104D01*
X0159194Y0142375D01*
X0159675Y0141712D01*
X0160254Y0141134D01*
X0160916Y0140653D01*
X0161646Y0140281D01*
X0162424Y0140028D01*
X0162460Y0140022D01*
X0160810Y0139339D01*
X0159403Y0137932D01*
X0158642Y0136095D01*
X0158642Y0134105D01*
X0159403Y0132268D01*
X0160810Y0130861D01*
X0162647Y0130100D01*
X0160810Y0129339D01*
X0159403Y0127932D01*
X0158642Y0126095D01*
X0158642Y0124105D01*
X0159403Y0122268D01*
X0160810Y0120861D01*
X0162647Y0120100D01*
X0160810Y0119339D01*
X0159403Y0117932D01*
X0158642Y0116095D01*
X0158642Y0114105D01*
X0159403Y0112268D01*
X0160810Y0110861D01*
X0162647Y0110100D01*
X0164636Y0110100D01*
X0166474Y0110861D01*
X0167881Y0112268D01*
X0168642Y0114105D01*
X0168642Y0116095D01*
X0167881Y0117932D01*
X0166474Y0119339D01*
X0164636Y0120100D01*
X0162647Y0120100D01*
X0164636Y0120100D01*
X0166474Y0120861D01*
X0167881Y0122268D01*
X0168642Y0124105D01*
X0168642Y0126095D01*
X0167881Y0127932D01*
X0166474Y0129339D01*
X0164636Y0130100D01*
X0162647Y0130100D01*
X0164636Y0130100D01*
X0166474Y0130861D01*
X0167881Y0132268D01*
X0168642Y0134105D01*
X0168642Y0136095D01*
X0167881Y0137932D01*
X0166474Y0139339D01*
X0164824Y0140022D01*
X0164859Y0140028D01*
X0165638Y0140281D01*
X0166367Y0140653D01*
X0167029Y0141134D01*
X0167608Y0141712D01*
X0168089Y0142375D01*
X0168461Y0143104D01*
X0168714Y0143882D01*
X0168827Y0144600D01*
X0164142Y0144600D01*
X0164142Y0145600D01*
X0168827Y0145600D01*
X0168714Y0146318D01*
X0168461Y0147096D01*
X0168089Y0147825D01*
X0167608Y0148488D01*
X0167029Y0149066D01*
X0166367Y0149547D01*
X0165638Y0149919D01*
X0164859Y0150172D01*
X0164824Y0150178D01*
X0166474Y0150861D01*
X0167881Y0152268D01*
X0168642Y0154105D01*
X0168642Y0156095D01*
X0167881Y0157932D01*
X0166474Y0159339D01*
X0164636Y0160100D01*
X0162647Y0160100D01*
X0164636Y0160100D01*
X0166474Y0160861D01*
X0167881Y0162268D01*
X0168642Y0164105D01*
X0168642Y0166095D01*
X0167881Y0167932D01*
X0166474Y0169339D01*
X0164878Y0170000D01*
X0168842Y0170000D01*
X0168842Y0013000D01*
X0165389Y0013000D01*
X0165638Y0013081D01*
X0166367Y0013453D01*
X0167029Y0013934D01*
X0167608Y0014512D01*
X0168089Y0015175D01*
X0168461Y0015904D01*
X0168714Y0016682D01*
X0168827Y0017400D01*
X0168842Y0016493D02*
X0168652Y0016493D01*
X0168842Y0015494D02*
X0168252Y0015494D01*
X0168842Y0014496D02*
X0167591Y0014496D01*
X0166428Y0013497D02*
X0168842Y0013497D01*
X0168813Y0018490D02*
X0168842Y0018490D01*
X0168842Y0019488D02*
X0168593Y0019488D01*
X0168842Y0020487D02*
X0168160Y0020487D01*
X0168842Y0021485D02*
X0167411Y0021485D01*
X0166100Y0022484D02*
X0168842Y0022484D01*
X0168842Y0023482D02*
X0166042Y0023482D01*
X0167294Y0024481D02*
X0168842Y0024481D01*
X0168842Y0025479D02*
X0168051Y0025479D01*
X0168465Y0026478D02*
X0168842Y0026478D01*
X0168842Y0027476D02*
X0168642Y0027476D01*
X0168642Y0028475D02*
X0168842Y0028475D01*
X0168842Y0029473D02*
X0168402Y0029473D01*
X0167989Y0030472D02*
X0168842Y0030472D01*
X0168842Y0031470D02*
X0167143Y0031470D01*
X0165677Y0032469D02*
X0168842Y0032469D01*
X0168842Y0033467D02*
X0166006Y0033467D01*
X0164636Y0032900D02*
X0162647Y0032900D01*
X0160810Y0033661D01*
X0159403Y0035068D01*
X0158642Y0036905D01*
X0158642Y0038454D01*
X0153742Y0043354D01*
X0153742Y0038546D01*
X0160479Y0031808D01*
X0160810Y0032139D01*
X0162647Y0032900D01*
X0164636Y0032900D01*
X0161606Y0032469D02*
X0159819Y0032469D01*
X0158820Y0033467D02*
X0161278Y0033467D01*
X0160005Y0034466D02*
X0157822Y0034466D01*
X0156823Y0035464D02*
X0159239Y0035464D01*
X0158825Y0036463D02*
X0155825Y0036463D01*
X0154826Y0037461D02*
X0158642Y0037461D01*
X0158636Y0038460D02*
X0153828Y0038460D01*
X0153742Y0039458D02*
X0157638Y0039458D01*
X0156639Y0040457D02*
X0153742Y0040457D01*
X0153742Y0041455D02*
X0155641Y0041455D01*
X0154642Y0042454D02*
X0153742Y0042454D01*
X0150142Y0042454D02*
X0132317Y0042454D01*
X0132317Y0042613D02*
X0131555Y0043375D01*
X0127329Y0043375D01*
X0126567Y0042613D01*
X0126567Y0042400D01*
X0126177Y0042400D01*
X0125958Y0042619D01*
X0125039Y0043000D01*
X0124045Y0043000D01*
X0123126Y0042619D01*
X0122422Y0041916D01*
X0122042Y0040997D01*
X0122042Y0040003D01*
X0122422Y0039084D01*
X0123126Y0038381D01*
X0124045Y0038000D01*
X0125039Y0038000D01*
X0125958Y0038381D01*
X0126177Y0038600D01*
X0126567Y0038600D01*
X0126567Y0038387D01*
X0127329Y0037625D01*
X0131555Y0037625D01*
X0132317Y0038387D01*
X0132317Y0042613D01*
X0132317Y0041455D02*
X0150142Y0041455D01*
X0150142Y0040457D02*
X0132317Y0040457D01*
X0132317Y0039458D02*
X0150142Y0039458D01*
X0150142Y0038460D02*
X0132317Y0038460D01*
X0131214Y0043425D02*
X0131596Y0043527D01*
X0131938Y0043725D01*
X0132217Y0044004D01*
X0132414Y0044346D01*
X0132517Y0044728D01*
X0132517Y0046213D01*
X0129729Y0046213D01*
X0129729Y0046787D01*
X0132517Y0046787D01*
X0132517Y0048272D01*
X0132414Y0048654D01*
X0132217Y0048996D01*
X0131938Y0049275D01*
X0131596Y0049473D01*
X0131214Y0049575D01*
X0129729Y0049575D01*
X0129729Y0046787D01*
X0129154Y0046787D01*
X0129154Y0046213D01*
X0126367Y0046213D01*
X0126367Y0044728D01*
X0126469Y0044346D01*
X0126667Y0044004D01*
X0126946Y0043725D01*
X0127288Y0043527D01*
X0127670Y0043425D01*
X0129154Y0043425D01*
X0129154Y0046213D01*
X0129729Y0046213D01*
X0129729Y0043425D01*
X0131214Y0043425D01*
X0131315Y0043452D02*
X0150142Y0043452D01*
X0150142Y0044451D02*
X0132442Y0044451D01*
X0132517Y0045449D02*
X0150142Y0045449D01*
X0150142Y0046448D02*
X0129729Y0046448D01*
X0129154Y0046448D02*
X0118839Y0046448D01*
X0118042Y0047446D02*
X0126367Y0047446D01*
X0126367Y0046787D02*
X0129154Y0046787D01*
X0129154Y0049575D01*
X0127670Y0049575D01*
X0127288Y0049473D01*
X0126946Y0049275D01*
X0126667Y0048996D01*
X0126469Y0048654D01*
X0126367Y0048272D01*
X0126367Y0046787D01*
X0126367Y0045449D02*
X0119838Y0045449D01*
X0119942Y0044451D02*
X0126441Y0044451D01*
X0127568Y0043452D02*
X0119942Y0043452D01*
X0119942Y0042454D02*
X0122960Y0042454D01*
X0122232Y0041455D02*
X0119942Y0041455D01*
X0119942Y0040457D02*
X0122042Y0040457D01*
X0122267Y0039458D02*
X0119942Y0039458D01*
X0119942Y0038460D02*
X0123046Y0038460D01*
X0126037Y0038460D02*
X0126567Y0038460D01*
X0126567Y0042454D02*
X0126123Y0042454D01*
X0129154Y0043452D02*
X0129729Y0043452D01*
X0129729Y0044451D02*
X0129154Y0044451D01*
X0129154Y0045449D02*
X0129729Y0045449D01*
X0129729Y0047446D02*
X0129154Y0047446D01*
X0129154Y0048445D02*
X0129729Y0048445D01*
X0129729Y0049443D02*
X0129154Y0049443D01*
X0127238Y0049443D02*
X0116658Y0049443D01*
X0117732Y0048445D02*
X0126413Y0048445D01*
X0131646Y0049443D02*
X0150142Y0049443D01*
X0150142Y0048445D02*
X0132470Y0048445D01*
X0132517Y0047446D02*
X0150142Y0047446D01*
X0150142Y0050442D02*
X0085922Y0050442D01*
X0085922Y0051440D02*
X0150142Y0051440D01*
X0150142Y0052439D02*
X0097874Y0052439D01*
X0097745Y0052310D02*
X0098637Y0053203D01*
X0099121Y0054369D01*
X0099121Y0055631D01*
X0098637Y0056797D01*
X0097745Y0057690D01*
X0096579Y0058173D01*
X0095316Y0058173D01*
X0094150Y0057690D01*
X0093257Y0056797D01*
X0092774Y0055631D01*
X0092774Y0054369D01*
X0093257Y0053203D01*
X0094150Y0052310D01*
X0095316Y0051827D01*
X0096579Y0051827D01*
X0097745Y0052310D01*
X0098735Y0053437D02*
X0136116Y0053437D01*
X0138242Y0056100D02*
X0138342Y0056200D01*
X0138242Y0056100D02*
X0109679Y0056100D01*
X0090379Y0075400D01*
X0085642Y0075400D01*
X0087176Y0077402D02*
X0088094Y0077402D01*
X0087096Y0078400D02*
X0083542Y0078400D01*
X0083542Y0077402D02*
X0084108Y0077402D01*
X0083542Y0079399D02*
X0086097Y0079399D01*
X0084109Y0080397D02*
X0083542Y0080397D01*
X0083542Y0081396D02*
X0083645Y0081396D01*
X0083642Y0082394D02*
X0083542Y0082394D01*
X0083542Y0083393D02*
X0084099Y0083393D01*
X0083542Y0084391D02*
X0085624Y0084391D01*
X0086660Y0084391D02*
X0092804Y0084391D01*
X0092746Y0084425D02*
X0093088Y0084227D01*
X0093470Y0084125D01*
X0094954Y0084125D01*
X0094954Y0086913D01*
X0092167Y0086913D01*
X0092167Y0085428D01*
X0092269Y0085046D01*
X0092467Y0084704D01*
X0092746Y0084425D01*
X0093088Y0083973D02*
X0092746Y0083775D01*
X0092467Y0083496D01*
X0092269Y0083154D01*
X0092167Y0082772D01*
X0092167Y0081287D01*
X0094954Y0081287D01*
X0094954Y0080713D01*
X0092167Y0080713D01*
X0092167Y0079228D01*
X0092269Y0078846D01*
X0092467Y0078504D01*
X0092746Y0078225D01*
X0093088Y0078027D01*
X0093470Y0077925D01*
X0094954Y0077925D01*
X0094954Y0080713D01*
X0095529Y0080713D01*
X0095529Y0081287D01*
X0098317Y0081287D01*
X0098317Y0082772D01*
X0098214Y0083154D01*
X0098017Y0083496D01*
X0097738Y0083775D01*
X0097396Y0083973D01*
X0097014Y0084075D01*
X0095529Y0084075D01*
X0095529Y0081287D01*
X0094954Y0081287D01*
X0094954Y0084075D01*
X0093470Y0084075D01*
X0093088Y0083973D01*
X0092407Y0083393D02*
X0088185Y0083393D01*
X0088642Y0082394D02*
X0092167Y0082394D01*
X0092167Y0081396D02*
X0089192Y0081396D01*
X0090190Y0080397D02*
X0092167Y0080397D01*
X0092167Y0079399D02*
X0091189Y0079399D01*
X0092187Y0078400D02*
X0092571Y0078400D01*
X0093186Y0077402D02*
X0098673Y0077402D01*
X0098567Y0077296D02*
X0098369Y0076954D01*
X0098267Y0076572D01*
X0098267Y0075087D01*
X0101054Y0075087D01*
X0101054Y0074513D01*
X0098267Y0074513D01*
X0098267Y0073028D01*
X0098369Y0072646D01*
X0098567Y0072304D01*
X0098846Y0072025D01*
X0099188Y0071827D01*
X0099570Y0071725D01*
X0101054Y0071725D01*
X0101054Y0074513D01*
X0101629Y0074513D01*
X0101629Y0075087D01*
X0104417Y0075087D01*
X0104417Y0076572D01*
X0104314Y0076954D01*
X0104117Y0077296D01*
X0103838Y0077575D01*
X0103496Y0077773D01*
X0103114Y0077875D01*
X0101629Y0077875D01*
X0101629Y0075087D01*
X0101054Y0075087D01*
X0101054Y0077875D01*
X0099570Y0077875D01*
X0099188Y0077773D01*
X0098846Y0077575D01*
X0098567Y0077296D01*
X0098267Y0076403D02*
X0094184Y0076403D01*
X0095183Y0075405D02*
X0098267Y0075405D01*
X0098267Y0074406D02*
X0096181Y0074406D01*
X0097180Y0073408D02*
X0098267Y0073408D01*
X0098178Y0072409D02*
X0098506Y0072409D01*
X0099177Y0071411D02*
X0103717Y0071411D01*
X0103496Y0071827D02*
X0103838Y0072025D01*
X0104117Y0072304D01*
X0104314Y0072646D01*
X0104417Y0073028D01*
X0104417Y0074513D01*
X0101629Y0074513D01*
X0101629Y0071725D01*
X0103114Y0071725D01*
X0103496Y0071827D01*
X0104178Y0072409D02*
X0104745Y0072409D01*
X0104467Y0073408D02*
X0104417Y0073408D01*
X0104417Y0074406D02*
X0104467Y0074406D01*
X0104467Y0075405D02*
X0104417Y0075405D01*
X0104417Y0076403D02*
X0104467Y0076403D01*
X0104011Y0077402D02*
X0104955Y0077402D01*
X0105053Y0078400D02*
X0103630Y0078400D01*
X0101629Y0077402D02*
X0101054Y0077402D01*
X0101054Y0076403D02*
X0101629Y0076403D01*
X0101629Y0075405D02*
X0101054Y0075405D01*
X0101054Y0074406D02*
X0101629Y0074406D01*
X0101629Y0073408D02*
X0101054Y0073408D01*
X0101054Y0072409D02*
X0101629Y0072409D01*
X0103014Y0070412D02*
X0100175Y0070412D01*
X0101174Y0069414D02*
X0102842Y0069414D01*
X0103085Y0068415D02*
X0102172Y0068415D01*
X0103171Y0067417D02*
X0103890Y0067417D01*
X0104169Y0066418D02*
X0110216Y0066418D01*
X0110042Y0065420D02*
X0105168Y0065420D01*
X0106794Y0067417D02*
X0110923Y0067417D01*
X0112242Y0069500D02*
X0114942Y0066800D01*
X0116742Y0066800D01*
X0119442Y0069500D01*
X0145191Y0069500D01*
X0153542Y0061149D01*
X0153542Y0059759D01*
X0153542Y0059759D01*
X0153542Y0046100D01*
X0161742Y0037900D01*
X0163642Y0037900D01*
X0167158Y0041455D02*
X0168842Y0041455D01*
X0168842Y0040457D02*
X0167995Y0040457D01*
X0168408Y0039458D02*
X0168842Y0039458D01*
X0168842Y0038460D02*
X0168642Y0038460D01*
X0168642Y0037461D02*
X0168842Y0037461D01*
X0168842Y0036463D02*
X0168458Y0036463D01*
X0168842Y0035464D02*
X0168045Y0035464D01*
X0167279Y0034466D02*
X0168842Y0034466D01*
X0163642Y0027900D02*
X0161842Y0027900D01*
X0151942Y0037800D01*
X0151942Y0060422D01*
X0144463Y0067900D01*
X0120105Y0067900D01*
X0117405Y0065200D01*
X0112842Y0065200D01*
X0112542Y0065500D01*
X0112242Y0069500D02*
X0105342Y0069500D01*
X0106967Y0071411D02*
X0114217Y0071411D01*
X0114437Y0073408D02*
X0117204Y0073408D01*
X0118202Y0074406D02*
X0115435Y0074406D01*
X0116434Y0075405D02*
X0119201Y0075405D01*
X0120199Y0076403D02*
X0117432Y0076403D01*
X0118431Y0077402D02*
X0122498Y0077402D01*
X0122498Y0078400D02*
X0119429Y0078400D01*
X0120428Y0079399D02*
X0123121Y0079399D01*
X0123601Y0081462D02*
X0126842Y0081462D01*
X0126842Y0085612D01*
X0127842Y0085612D01*
X0127842Y0086612D01*
X0126842Y0086612D01*
X0126842Y0085612D01*
X0122298Y0085612D01*
X0122298Y0082765D01*
X0122401Y0082383D01*
X0122598Y0082041D01*
X0122877Y0081762D01*
X0123220Y0081564D01*
X0123601Y0081462D01*
X0122398Y0082394D02*
X0121642Y0082394D01*
X0121437Y0083393D02*
X0122298Y0083393D01*
X0122298Y0084391D02*
X0120686Y0084391D01*
X0122298Y0085390D02*
X0116506Y0085390D01*
X0116517Y0085428D02*
X0116517Y0086913D01*
X0113729Y0086913D01*
X0113729Y0087487D01*
X0116517Y0087487D01*
X0116517Y0088972D01*
X0116414Y0089354D01*
X0116217Y0089696D01*
X0115938Y0089975D01*
X0115596Y0090173D01*
X0115214Y0090275D01*
X0113729Y0090275D01*
X0113729Y0087487D01*
X0113154Y0087487D01*
X0113154Y0086913D01*
X0110367Y0086913D01*
X0110367Y0085428D01*
X0110469Y0085046D01*
X0110667Y0084704D01*
X0110946Y0084425D01*
X0111288Y0084227D01*
X0111670Y0084125D01*
X0113154Y0084125D01*
X0113154Y0086913D01*
X0113729Y0086913D01*
X0113729Y0084125D01*
X0115214Y0084125D01*
X0115596Y0084227D01*
X0115938Y0084425D01*
X0116217Y0084704D01*
X0116414Y0085046D01*
X0116517Y0085428D01*
X0116517Y0086388D02*
X0126842Y0086388D01*
X0126842Y0085390D02*
X0127842Y0085390D01*
X0127842Y0085612D02*
X0127842Y0081462D01*
X0131083Y0081462D01*
X0131464Y0081564D01*
X0131806Y0081762D01*
X0132085Y0082041D01*
X0132283Y0082383D01*
X0132385Y0082765D01*
X0132385Y0085612D01*
X0127842Y0085612D01*
X0127842Y0086388D02*
X0158856Y0086388D01*
X0158642Y0087387D02*
X0132385Y0087387D01*
X0132385Y0086612D02*
X0132385Y0089459D01*
X0132283Y0089840D01*
X0132085Y0090182D01*
X0131806Y0090462D01*
X0131464Y0090659D01*
X0131083Y0090761D01*
X0127842Y0090761D01*
X0127842Y0086612D01*
X0132385Y0086612D01*
X0132385Y0085390D02*
X0159270Y0085390D01*
X0160079Y0084391D02*
X0132385Y0084391D01*
X0132385Y0083393D02*
X0161457Y0083393D01*
X0161008Y0082394D02*
X0132286Y0082394D01*
X0131563Y0079399D02*
X0158661Y0079399D01*
X0158456Y0078400D02*
X0132185Y0078400D01*
X0132185Y0077402D02*
X0163142Y0077402D01*
X0164142Y0077402D02*
X0168842Y0077402D01*
X0168827Y0078400D02*
X0168842Y0078400D01*
X0168842Y0079399D02*
X0168622Y0079399D01*
X0168842Y0080397D02*
X0168205Y0080397D01*
X0168842Y0081396D02*
X0167500Y0081396D01*
X0166275Y0082394D02*
X0168842Y0082394D01*
X0168842Y0083393D02*
X0165826Y0083393D01*
X0167204Y0084391D02*
X0168842Y0084391D01*
X0168842Y0085390D02*
X0168014Y0085390D01*
X0168428Y0086388D02*
X0168842Y0086388D01*
X0168842Y0087387D02*
X0168642Y0087387D01*
X0168642Y0088385D02*
X0168842Y0088385D01*
X0168842Y0089384D02*
X0168439Y0089384D01*
X0168842Y0090382D02*
X0168026Y0090382D01*
X0167232Y0091381D02*
X0168842Y0091381D01*
X0168842Y0092379D02*
X0165893Y0092379D01*
X0165790Y0093378D02*
X0168842Y0093378D01*
X0168842Y0094376D02*
X0167189Y0094376D01*
X0168008Y0095375D02*
X0168842Y0095375D01*
X0168842Y0096373D02*
X0168421Y0096373D01*
X0168642Y0097372D02*
X0168842Y0097372D01*
X0168842Y0098370D02*
X0168642Y0098370D01*
X0168445Y0099369D02*
X0168842Y0099369D01*
X0168842Y0100368D02*
X0168032Y0100368D01*
X0167247Y0101366D02*
X0168842Y0101366D01*
X0168842Y0102365D02*
X0165929Y0102365D01*
X0168842Y0103363D02*
X0146266Y0103363D01*
X0147264Y0102365D02*
X0161355Y0102365D01*
X0160037Y0101366D02*
X0148263Y0101366D01*
X0149261Y0100368D02*
X0159252Y0100368D01*
X0158838Y0099369D02*
X0150814Y0099369D01*
X0152307Y0098370D02*
X0158642Y0098370D01*
X0158642Y0097372D02*
X0152742Y0097372D01*
X0152730Y0096373D02*
X0158862Y0096373D01*
X0159276Y0095375D02*
X0152252Y0095375D01*
X0148231Y0095375D02*
X0135622Y0095375D01*
X0135614Y0095346D02*
X0135717Y0095728D01*
X0135717Y0097213D01*
X0132929Y0097213D01*
X0132929Y0094425D01*
X0134414Y0094425D01*
X0134796Y0094527D01*
X0135138Y0094725D01*
X0135417Y0095004D01*
X0135614Y0095346D01*
X0135717Y0096373D02*
X0147754Y0096373D01*
X0146883Y0097372D02*
X0132929Y0097372D01*
X0132354Y0097372D02*
X0129517Y0097372D01*
X0129517Y0098370D02*
X0129567Y0098370D01*
X0129593Y0099369D02*
X0129517Y0099369D01*
X0129517Y0096373D02*
X0129567Y0096373D01*
X0129505Y0095375D02*
X0129662Y0095375D01*
X0132354Y0095375D02*
X0132929Y0095375D01*
X0132929Y0096373D02*
X0132354Y0096373D01*
X0135717Y0098370D02*
X0145884Y0098370D01*
X0144886Y0099369D02*
X0135691Y0099369D01*
X0135310Y0107300D02*
X0135342Y0107332D01*
X0135342Y0110200D01*
X0127642Y0117900D01*
X0117005Y0117900D01*
X0113742Y0121163D01*
X0113742Y0123900D01*
X0116942Y0123800D02*
X0116942Y0120400D01*
X0117842Y0119500D01*
X0130342Y0119500D01*
X0139642Y0110200D01*
X0139642Y0107302D01*
X0139640Y0107300D01*
X0142318Y0107357D02*
X0142474Y0107357D01*
X0142474Y0106359D02*
X0142318Y0106359D01*
X0142318Y0105360D02*
X0142474Y0105360D01*
X0142474Y0104399D02*
X0143236Y0103638D01*
X0148250Y0103638D01*
X0149011Y0104399D01*
X0149011Y0110201D01*
X0148250Y0110962D01*
X0143236Y0110962D01*
X0142474Y0110201D01*
X0142474Y0104399D01*
X0142512Y0104362D02*
X0142280Y0104362D01*
X0142318Y0108356D02*
X0142474Y0108356D01*
X0142474Y0109354D02*
X0142318Y0109354D01*
X0142166Y0110353D02*
X0142626Y0110353D01*
X0141036Y0111351D02*
X0160320Y0111351D01*
X0159369Y0112350D02*
X0140038Y0112350D01*
X0139039Y0113348D02*
X0158955Y0113348D01*
X0158642Y0114347D02*
X0138041Y0114347D01*
X0137042Y0115345D02*
X0158642Y0115345D01*
X0158745Y0116344D02*
X0136044Y0116344D01*
X0135045Y0117342D02*
X0159159Y0117342D01*
X0159811Y0118341D02*
X0134047Y0118341D01*
X0133048Y0119339D02*
X0160811Y0119339D01*
X0162073Y0120338D02*
X0132050Y0120338D01*
X0124842Y0116300D02*
X0116342Y0116300D01*
X0108742Y0123900D01*
X0106991Y0125685D02*
X0106622Y0125316D01*
X0106242Y0124397D01*
X0106242Y0123403D01*
X0106622Y0122484D01*
X0107326Y0121781D01*
X0108245Y0121400D01*
X0108696Y0121400D01*
X0113596Y0116500D01*
X0112977Y0116500D01*
X0112658Y0116819D01*
X0111739Y0117200D01*
X0110745Y0117200D01*
X0109826Y0116819D01*
X0109122Y0116116D01*
X0108742Y0115197D01*
X0108742Y0114203D01*
X0109122Y0113284D01*
X0109826Y0112581D01*
X0110745Y0112200D01*
X0111739Y0112200D01*
X0112658Y0112581D01*
X0112977Y0112900D01*
X0117096Y0112900D01*
X0118834Y0111162D01*
X0118176Y0111162D01*
X0118176Y0107489D01*
X0117798Y0107489D01*
X0117798Y0111162D01*
X0116411Y0111162D01*
X0116030Y0111060D01*
X0115688Y0110862D01*
X0115680Y0110855D01*
X0115572Y0110962D01*
X0111740Y0110962D01*
X0111491Y0110713D01*
X0111242Y0110962D01*
X0107711Y0110962D01*
X0107542Y0111060D01*
X0107161Y0111162D01*
X0105774Y0111162D01*
X0105774Y0107489D01*
X0105396Y0107489D01*
X0105396Y0107111D01*
X0102707Y0107111D01*
X0102707Y0104740D01*
X0102809Y0104359D01*
X0103007Y0104017D01*
X0103286Y0103737D01*
X0103628Y0103540D01*
X0104010Y0103438D01*
X0105396Y0103438D01*
X0105396Y0107111D01*
X0105774Y0107111D01*
X0105774Y0103438D01*
X0107161Y0103438D01*
X0107542Y0103540D01*
X0107711Y0103638D01*
X0109458Y0103638D01*
X0112574Y0100522D01*
X0112326Y0100419D01*
X0112006Y0100100D01*
X0106787Y0100100D01*
X0099642Y0107246D01*
X0099642Y0107862D01*
X0099732Y0107772D01*
X0102707Y0107772D01*
X0102707Y0107489D01*
X0105396Y0107489D01*
X0105396Y0111162D01*
X0104523Y0111162D01*
X0104523Y0120738D01*
X0105113Y0121328D01*
X0105113Y0127130D01*
X0104523Y0127720D01*
X0104523Y0130803D01*
X0106057Y0130803D01*
X0106057Y0126447D01*
X0106818Y0125685D01*
X0106991Y0125685D01*
X0106637Y0125330D02*
X0105113Y0125330D01*
X0105113Y0124332D02*
X0106242Y0124332D01*
X0106271Y0123333D02*
X0105113Y0123333D01*
X0105113Y0122335D02*
X0106772Y0122335D01*
X0105113Y0121336D02*
X0108760Y0121336D01*
X0109758Y0120338D02*
X0104523Y0120338D01*
X0104523Y0119339D02*
X0110757Y0119339D01*
X0111755Y0118341D02*
X0104523Y0118341D01*
X0104523Y0117342D02*
X0112754Y0117342D01*
X0111242Y0114700D02*
X0117842Y0114700D01*
X0122342Y0110200D01*
X0122342Y0107324D01*
X0122317Y0107300D01*
X0118176Y0108356D02*
X0117798Y0108356D01*
X0117798Y0109354D02*
X0118176Y0109354D01*
X0118176Y0110353D02*
X0117798Y0110353D01*
X0118645Y0111351D02*
X0104523Y0111351D01*
X0104523Y0112350D02*
X0110383Y0112350D01*
X0109096Y0113348D02*
X0104523Y0113348D01*
X0104523Y0114347D02*
X0108742Y0114347D01*
X0108803Y0115345D02*
X0104523Y0115345D01*
X0104523Y0116344D02*
X0109350Y0116344D01*
X0112100Y0112350D02*
X0117647Y0112350D01*
X0113656Y0107300D02*
X0114142Y0106814D01*
X0114142Y0105000D01*
X0122642Y0096500D01*
X0122642Y0092800D01*
X0124601Y0094376D02*
X0160094Y0094376D01*
X0161493Y0093378D02*
X0125108Y0093378D01*
X0125142Y0092379D02*
X0161390Y0092379D01*
X0160052Y0091381D02*
X0124758Y0091381D01*
X0126842Y0090382D02*
X0127842Y0090382D01*
X0127842Y0089384D02*
X0126842Y0089384D01*
X0126842Y0088385D02*
X0127842Y0088385D01*
X0127842Y0087387D02*
X0126842Y0087387D01*
X0126842Y0084391D02*
X0127842Y0084391D01*
X0127842Y0083393D02*
X0126842Y0083393D01*
X0126842Y0082394D02*
X0127842Y0082394D01*
X0132185Y0076403D02*
X0158661Y0076403D01*
X0159077Y0075405D02*
X0132185Y0075405D01*
X0132185Y0074406D02*
X0159782Y0074406D01*
X0161004Y0073408D02*
X0132185Y0073408D01*
X0132185Y0072409D02*
X0161462Y0072409D01*
X0160081Y0071411D02*
X0132185Y0071411D01*
X0127342Y0075088D02*
X0121430Y0075088D01*
X0115842Y0069500D01*
X0116205Y0072409D02*
X0109939Y0072409D01*
X0109728Y0077402D02*
X0113057Y0077402D01*
X0113154Y0078400D02*
X0113729Y0078400D01*
X0113729Y0079399D02*
X0113154Y0079399D01*
X0113154Y0080397D02*
X0113729Y0080397D01*
X0113729Y0081396D02*
X0113154Y0081396D01*
X0113154Y0081287D02*
X0113154Y0084075D01*
X0111670Y0084075D01*
X0111288Y0083973D01*
X0110946Y0083775D01*
X0110667Y0083496D01*
X0110469Y0083154D01*
X0110367Y0082772D01*
X0110367Y0081287D01*
X0113154Y0081287D01*
X0113154Y0082394D02*
X0113729Y0082394D01*
X0113729Y0083393D02*
X0113154Y0083393D01*
X0113154Y0084391D02*
X0113729Y0084391D01*
X0113729Y0085390D02*
X0113154Y0085390D01*
X0113154Y0086388D02*
X0113729Y0086388D01*
X0113729Y0087387D02*
X0122298Y0087387D01*
X0122298Y0088385D02*
X0116517Y0088385D01*
X0116397Y0089384D02*
X0122298Y0089384D01*
X0121946Y0090382D02*
X0115428Y0090382D01*
X0115596Y0090427D02*
X0115938Y0090625D01*
X0116217Y0090904D01*
X0116414Y0091246D01*
X0116517Y0091628D01*
X0116517Y0093113D01*
X0113729Y0093113D01*
X0113729Y0090325D01*
X0115214Y0090325D01*
X0115596Y0090427D01*
X0116450Y0091381D02*
X0120525Y0091381D01*
X0120142Y0092379D02*
X0116517Y0092379D01*
X0116517Y0094376D02*
X0117901Y0094376D01*
X0117642Y0095375D02*
X0116462Y0095375D01*
X0116723Y0096373D02*
X0115592Y0096373D01*
X0113742Y0098300D02*
X0106042Y0098300D01*
X0097842Y0106500D01*
X0097842Y0144635D01*
X0101845Y0148639D01*
X0099116Y0151292D02*
X0077201Y0151292D01*
X0076939Y0151400D02*
X0076575Y0151400D01*
X0078484Y0153308D01*
X0078745Y0153200D01*
X0079739Y0153200D01*
X0080658Y0153581D01*
X0081361Y0154284D01*
X0081742Y0155203D01*
X0081742Y0156197D01*
X0081361Y0157116D01*
X0080777Y0157700D01*
X0081361Y0158284D01*
X0081742Y0159203D01*
X0081742Y0160197D01*
X0081361Y0161116D01*
X0080658Y0161819D01*
X0079739Y0162200D01*
X0078745Y0162200D01*
X0077826Y0161819D01*
X0077606Y0161600D01*
X0075217Y0161600D01*
X0075217Y0162813D01*
X0074455Y0163575D01*
X0070229Y0163575D01*
X0069467Y0162813D01*
X0069467Y0158587D01*
X0070229Y0157825D01*
X0072530Y0157825D01*
X0072555Y0157800D01*
X0077606Y0157800D01*
X0077706Y0157700D01*
X0077606Y0157600D01*
X0077401Y0157600D01*
X0075417Y0155615D01*
X0075417Y0156472D01*
X0075314Y0156854D01*
X0075117Y0157196D01*
X0074838Y0157475D01*
X0074496Y0157673D01*
X0074114Y0157775D01*
X0072629Y0157775D01*
X0072629Y0154987D01*
X0072054Y0154987D01*
X0072054Y0154413D01*
X0069267Y0154413D01*
X0069267Y0153825D01*
X0068717Y0153825D01*
X0068717Y0154913D01*
X0065929Y0154913D01*
X0065929Y0155487D01*
X0068717Y0155487D01*
X0068717Y0156972D01*
X0068614Y0157354D01*
X0068417Y0157696D01*
X0068138Y0157975D01*
X0067796Y0158173D01*
X0067414Y0158275D01*
X0065929Y0158275D01*
X0065929Y0155487D01*
X0065354Y0155487D01*
X0065354Y0154913D01*
X0062567Y0154913D01*
X0062567Y0153428D01*
X0062669Y0153046D01*
X0062867Y0152704D01*
X0063146Y0152425D01*
X0063488Y0152227D01*
X0063870Y0152125D01*
X0065354Y0152125D01*
X0065354Y0154913D01*
X0065929Y0154913D01*
X0065929Y0152125D01*
X0066572Y0152125D01*
X0066222Y0151775D01*
X0063929Y0151775D01*
X0063167Y0151013D01*
X0063167Y0150800D01*
X0062617Y0150800D01*
X0062617Y0151013D01*
X0061855Y0151775D01*
X0057629Y0151775D01*
X0056867Y0151013D01*
X0056867Y0148712D01*
X0044242Y0136087D01*
X0044242Y0143423D01*
X0047360Y0146542D01*
X0052759Y0146542D01*
X0054328Y0147192D01*
X0055529Y0148392D01*
X0056179Y0149961D01*
X0056179Y0151659D01*
X0055529Y0153228D01*
X0055457Y0153300D01*
X0056767Y0153300D01*
X0056767Y0153087D01*
X0057529Y0152325D01*
X0061755Y0152325D01*
X0062517Y0153087D01*
X0062517Y0157313D01*
X0061755Y0158075D01*
X0061542Y0158075D01*
X0061542Y0158625D01*
X0061755Y0158625D01*
X0062517Y0159387D01*
X0062517Y0163613D01*
X0061755Y0164375D01*
X0061542Y0164375D01*
X0061542Y0165127D01*
X0062095Y0165680D01*
X0062095Y0169120D01*
X0061334Y0169881D01*
X0057107Y0169881D01*
X0056346Y0169120D01*
X0056346Y0165680D01*
X0057107Y0164919D01*
X0057742Y0164919D01*
X0057742Y0164375D01*
X0057529Y0164375D01*
X0056767Y0163613D01*
X0056767Y0159387D01*
X0057529Y0158625D01*
X0057742Y0158625D01*
X0057742Y0158075D01*
X0057529Y0158075D01*
X0056767Y0157313D01*
X0056767Y0157100D01*
X0052545Y0157100D01*
X0051432Y0155987D01*
X0050523Y0155079D01*
X0045124Y0155079D01*
X0043555Y0154429D01*
X0042355Y0153228D01*
X0041705Y0151659D01*
X0041705Y0149961D01*
X0042355Y0148392D01*
X0043096Y0147651D01*
X0041555Y0146110D01*
X0040442Y0144997D01*
X0040442Y0064388D01*
X0041555Y0063275D01*
X0042034Y0063275D01*
X0056009Y0049300D01*
X0058220Y0049300D01*
X0058026Y0049219D01*
X0057322Y0048516D01*
X0056942Y0047597D01*
X0056942Y0046603D01*
X0057322Y0045684D01*
X0058026Y0044981D01*
X0058945Y0044600D01*
X0059939Y0044600D01*
X0060727Y0044926D01*
X0061429Y0044225D01*
X0065655Y0044225D01*
X0066417Y0044987D01*
X0066417Y0045200D01*
X0068361Y0045200D01*
X0068361Y0044618D01*
X0069123Y0043857D01*
X0074137Y0043857D01*
X0074898Y0044618D01*
X0074898Y0052726D01*
X0075445Y0052500D01*
X0076439Y0052500D01*
X0077358Y0052881D01*
X0078061Y0053584D01*
X0078442Y0054503D01*
X0078442Y0055497D01*
X0078061Y0056416D01*
X0077358Y0057119D01*
X0076439Y0057500D01*
X0075445Y0057500D01*
X0074526Y0057119D01*
X0074306Y0056900D01*
X0071962Y0056900D01*
X0072341Y0057279D01*
X0072341Y0070954D01*
X0071579Y0071716D01*
X0057904Y0071716D01*
X0057143Y0070954D01*
X0057143Y0057279D01*
X0057521Y0056900D01*
X0056329Y0056900D01*
X0046042Y0067187D01*
X0046042Y0132513D01*
X0056716Y0143187D01*
X0059454Y0143187D01*
X0059454Y0142613D01*
X0056667Y0142613D01*
X0056667Y0141128D01*
X0056769Y0140746D01*
X0056967Y0140404D01*
X0057246Y0140125D01*
X0057588Y0139927D01*
X0057970Y0139825D01*
X0059454Y0139825D01*
X0059454Y0142613D01*
X0060029Y0142613D01*
X0060029Y0143187D01*
X0062817Y0143187D01*
X0062817Y0144672D01*
X0062714Y0145054D01*
X0062517Y0145396D01*
X0062238Y0145675D01*
X0061896Y0145873D01*
X0061514Y0145975D01*
X0060029Y0145975D01*
X0060029Y0143187D01*
X0059454Y0143187D01*
X0059454Y0145926D01*
X0059554Y0146025D01*
X0061855Y0146025D01*
X0062617Y0146787D01*
X0062617Y0147000D01*
X0063167Y0147000D01*
X0063167Y0146787D01*
X0063929Y0146025D01*
X0068155Y0146025D01*
X0068917Y0146787D01*
X0068917Y0149096D01*
X0069467Y0149646D01*
X0069467Y0146787D01*
X0070229Y0146025D01*
X0074455Y0146025D01*
X0075156Y0146726D01*
X0075945Y0146400D01*
X0076939Y0146400D01*
X0077858Y0146781D01*
X0078561Y0147484D01*
X0078942Y0148403D01*
X0078942Y0149397D01*
X0078561Y0150316D01*
X0077858Y0151019D01*
X0076939Y0151400D01*
X0077466Y0152290D02*
X0103301Y0152290D01*
X0103301Y0153289D02*
X0079953Y0153289D01*
X0078531Y0153289D02*
X0078464Y0153289D01*
X0076086Y0156284D02*
X0075417Y0156284D01*
X0075030Y0157283D02*
X0077084Y0157283D01*
X0072629Y0157283D02*
X0072054Y0157283D01*
X0072054Y0157775D02*
X0070570Y0157775D01*
X0070188Y0157673D01*
X0069846Y0157475D01*
X0069567Y0157196D01*
X0069369Y0156854D01*
X0069267Y0156472D01*
X0069267Y0154987D01*
X0072054Y0154987D01*
X0072054Y0157775D01*
X0072054Y0156284D02*
X0072629Y0156284D01*
X0072629Y0155286D02*
X0072054Y0155286D01*
X0069267Y0155286D02*
X0065929Y0155286D01*
X0065354Y0155286D02*
X0062517Y0155286D01*
X0062567Y0155487D02*
X0065354Y0155487D01*
X0065354Y0158275D01*
X0063870Y0158275D01*
X0063488Y0158173D01*
X0063146Y0157975D01*
X0062867Y0157696D01*
X0062669Y0157354D01*
X0062567Y0156972D01*
X0062567Y0155487D01*
X0062567Y0156284D02*
X0062517Y0156284D01*
X0062517Y0157283D02*
X0062650Y0157283D01*
X0061542Y0158281D02*
X0069773Y0158281D01*
X0069654Y0157283D02*
X0068633Y0157283D01*
X0068717Y0156284D02*
X0069267Y0156284D01*
X0069267Y0154287D02*
X0068717Y0154287D01*
X0065929Y0154287D02*
X0065354Y0154287D01*
X0065354Y0153289D02*
X0065929Y0153289D01*
X0065929Y0152290D02*
X0065354Y0152290D01*
X0063379Y0152290D02*
X0055918Y0152290D01*
X0056179Y0151292D02*
X0057145Y0151292D01*
X0056867Y0150293D02*
X0056179Y0150293D01*
X0055903Y0149295D02*
X0056867Y0149295D01*
X0056451Y0148296D02*
X0055433Y0148296D01*
X0055452Y0147298D02*
X0054434Y0147298D01*
X0054454Y0146299D02*
X0047118Y0146299D01*
X0046119Y0145301D02*
X0053455Y0145301D01*
X0052457Y0144302D02*
X0045121Y0144302D01*
X0044242Y0143303D02*
X0051458Y0143303D01*
X0050460Y0142305D02*
X0044242Y0142305D01*
X0044242Y0141306D02*
X0049461Y0141306D01*
X0048463Y0140308D02*
X0044242Y0140308D01*
X0044242Y0139309D02*
X0047464Y0139309D01*
X0046466Y0138311D02*
X0044242Y0138311D01*
X0044242Y0137312D02*
X0045467Y0137312D01*
X0044469Y0136314D02*
X0044242Y0136314D01*
X0040442Y0136314D02*
X0039842Y0136314D01*
X0039842Y0137312D02*
X0040442Y0137312D01*
X0040442Y0138311D02*
X0039842Y0138311D01*
X0039842Y0139309D02*
X0040442Y0139309D01*
X0040442Y0140308D02*
X0039842Y0140308D01*
X0039842Y0141306D02*
X0040442Y0141306D01*
X0040442Y0142305D02*
X0039842Y0142305D01*
X0039842Y0143303D02*
X0040442Y0143303D01*
X0040442Y0144302D02*
X0039842Y0144302D01*
X0039842Y0145301D02*
X0040745Y0145301D01*
X0039842Y0146299D02*
X0041744Y0146299D01*
X0042742Y0147298D02*
X0039842Y0147298D01*
X0039842Y0148296D02*
X0042451Y0148296D01*
X0041981Y0149295D02*
X0039842Y0149295D01*
X0039842Y0150293D02*
X0041705Y0150293D01*
X0041705Y0151292D02*
X0039842Y0151292D01*
X0039842Y0152290D02*
X0041966Y0152290D01*
X0042415Y0153289D02*
X0039842Y0153289D01*
X0039842Y0154287D02*
X0043414Y0154287D01*
X0039842Y0155286D02*
X0050730Y0155286D01*
X0051729Y0156284D02*
X0039842Y0156284D01*
X0039842Y0157283D02*
X0056767Y0157283D01*
X0057742Y0158281D02*
X0039842Y0158281D01*
X0039842Y0159280D02*
X0056874Y0159280D01*
X0056767Y0160278D02*
X0053101Y0160278D01*
X0052957Y0160231D02*
X0053626Y0160449D01*
X0054252Y0160768D01*
X0054821Y0161181D01*
X0055319Y0161679D01*
X0055732Y0162248D01*
X0056051Y0162874D01*
X0056269Y0163543D01*
X0056358Y0164105D01*
X0049426Y0164105D01*
X0049426Y0160121D01*
X0052262Y0160121D01*
X0052957Y0160231D01*
X0054917Y0161277D02*
X0056767Y0161277D01*
X0056767Y0162275D02*
X0055746Y0162275D01*
X0056181Y0163274D02*
X0056767Y0163274D01*
X0057426Y0164272D02*
X0049426Y0164272D01*
X0049426Y0164105D02*
X0049426Y0165074D01*
X0048458Y0165074D01*
X0048458Y0169058D01*
X0045622Y0169058D01*
X0044927Y0168948D01*
X0044258Y0168731D01*
X0043631Y0168412D01*
X0043062Y0167998D01*
X0042565Y0167501D01*
X0042151Y0166932D01*
X0041832Y0166305D01*
X0041615Y0165636D01*
X0041526Y0165074D01*
X0048457Y0165074D01*
X0048457Y0164105D01*
X0048458Y0164105D02*
X0049426Y0164105D01*
X0049426Y0163274D02*
X0048458Y0163274D01*
X0048458Y0164105D02*
X0048458Y0160121D01*
X0045622Y0160121D01*
X0044927Y0160231D01*
X0044258Y0160449D01*
X0043631Y0160768D01*
X0043062Y0161181D01*
X0042565Y0161679D01*
X0042151Y0162248D01*
X0041832Y0162874D01*
X0041615Y0163543D01*
X0041526Y0164105D01*
X0048457Y0164105D01*
X0048457Y0164272D02*
X0039842Y0164272D01*
X0039842Y0163274D02*
X0041702Y0163274D01*
X0042137Y0162275D02*
X0039842Y0162275D01*
X0039842Y0161277D02*
X0042967Y0161277D01*
X0044783Y0160278D02*
X0039842Y0160278D01*
X0039842Y0165271D02*
X0041557Y0165271D01*
X0041821Y0166269D02*
X0039842Y0166269D01*
X0039842Y0167268D02*
X0042396Y0167268D01*
X0043431Y0168266D02*
X0039842Y0168266D01*
X0039842Y0169265D02*
X0056491Y0169265D01*
X0056346Y0168266D02*
X0054452Y0168266D01*
X0054252Y0168412D02*
X0053626Y0168731D01*
X0052957Y0168948D01*
X0052262Y0169058D01*
X0049426Y0169058D01*
X0049426Y0165074D01*
X0056358Y0165074D01*
X0056269Y0165636D01*
X0056051Y0166305D01*
X0055732Y0166932D01*
X0055319Y0167501D01*
X0054821Y0167998D01*
X0054252Y0168412D01*
X0055488Y0167268D02*
X0056346Y0167268D01*
X0056346Y0166269D02*
X0056063Y0166269D01*
X0056327Y0165271D02*
X0056755Y0165271D01*
X0061686Y0165271D02*
X0066598Y0165271D01*
X0066950Y0164919D02*
X0071176Y0164919D01*
X0071517Y0165260D01*
X0072145Y0165000D01*
X0073139Y0165000D01*
X0074058Y0165381D01*
X0074761Y0166084D01*
X0075142Y0167003D01*
X0075142Y0167997D01*
X0074761Y0168916D01*
X0074058Y0169619D01*
X0073139Y0170000D01*
X0072145Y0170000D01*
X0071376Y0169682D01*
X0071176Y0169881D01*
X0066950Y0169881D01*
X0066188Y0169120D01*
X0066188Y0165680D01*
X0066950Y0164919D01*
X0067414Y0164575D02*
X0065929Y0164575D01*
X0065929Y0161787D01*
X0068717Y0161787D01*
X0068717Y0163272D01*
X0068614Y0163654D01*
X0068417Y0163996D01*
X0068138Y0164275D01*
X0067796Y0164473D01*
X0067414Y0164575D01*
X0068140Y0164272D02*
X0098576Y0164272D01*
X0098576Y0163274D02*
X0074756Y0163274D01*
X0075217Y0162275D02*
X0098576Y0162275D01*
X0098576Y0161277D02*
X0081201Y0161277D01*
X0081708Y0160278D02*
X0098576Y0160278D01*
X0098576Y0159280D02*
X0081742Y0159280D01*
X0081358Y0158281D02*
X0099222Y0158281D01*
X0103301Y0157283D02*
X0081195Y0157283D01*
X0081706Y0156284D02*
X0103301Y0156284D01*
X0103301Y0155286D02*
X0081742Y0155286D01*
X0081363Y0154287D02*
X0103301Y0154287D01*
X0108657Y0154287D02*
X0158642Y0154287D01*
X0158642Y0155286D02*
X0108657Y0155286D01*
X0108657Y0156284D02*
X0158720Y0156284D01*
X0159134Y0157283D02*
X0108657Y0157283D01*
X0108657Y0158281D02*
X0159752Y0158281D01*
X0160750Y0159280D02*
X0108657Y0159280D01*
X0108657Y0160278D02*
X0162217Y0160278D01*
X0160394Y0161277D02*
X0108657Y0161277D01*
X0108657Y0162275D02*
X0151330Y0162275D01*
X0151136Y0163274D02*
X0107946Y0163274D01*
X0105113Y0164272D02*
X0139294Y0164272D01*
X0138931Y0165271D02*
X0105113Y0165271D01*
X0105113Y0166269D02*
X0138931Y0166269D01*
X0138931Y0167268D02*
X0105113Y0167268D01*
X0105113Y0168266D02*
X0138931Y0168266D01*
X0138931Y0169265D02*
X0105113Y0169265D01*
X0098576Y0169265D02*
X0074413Y0169265D01*
X0075030Y0168266D02*
X0098576Y0168266D01*
X0098576Y0167268D02*
X0075142Y0167268D01*
X0074838Y0166269D02*
X0098576Y0166269D01*
X0098576Y0165271D02*
X0073793Y0165271D01*
X0069927Y0163274D02*
X0068716Y0163274D01*
X0068717Y0162275D02*
X0069467Y0162275D01*
X0069467Y0161277D02*
X0065929Y0161277D01*
X0065929Y0161213D02*
X0065929Y0161787D01*
X0065354Y0161787D01*
X0065354Y0161213D01*
X0062567Y0161213D01*
X0062567Y0159728D01*
X0062669Y0159346D01*
X0062867Y0159004D01*
X0063146Y0158725D01*
X0063488Y0158527D01*
X0063870Y0158425D01*
X0065354Y0158425D01*
X0065354Y0161213D01*
X0065929Y0161213D01*
X0068717Y0161213D01*
X0068717Y0159728D01*
X0068614Y0159346D01*
X0068417Y0159004D01*
X0068138Y0158725D01*
X0067796Y0158527D01*
X0067414Y0158425D01*
X0065929Y0158425D01*
X0065929Y0161213D01*
X0065354Y0161277D02*
X0062517Y0161277D01*
X0062567Y0161787D02*
X0065354Y0161787D01*
X0065354Y0164575D01*
X0063870Y0164575D01*
X0063488Y0164473D01*
X0063146Y0164275D01*
X0062867Y0163996D01*
X0062669Y0163654D01*
X0062567Y0163272D01*
X0062567Y0161787D01*
X0062567Y0162275D02*
X0062517Y0162275D01*
X0062517Y0163274D02*
X0062567Y0163274D01*
X0063143Y0164272D02*
X0061858Y0164272D01*
X0062095Y0166269D02*
X0066188Y0166269D01*
X0066188Y0167268D02*
X0062095Y0167268D01*
X0062095Y0168266D02*
X0066188Y0168266D01*
X0066333Y0169265D02*
X0061950Y0169265D01*
X0065354Y0164272D02*
X0065929Y0164272D01*
X0065929Y0163274D02*
X0065354Y0163274D01*
X0065354Y0162275D02*
X0065929Y0162275D01*
X0065929Y0160278D02*
X0065354Y0160278D01*
X0065354Y0159280D02*
X0065929Y0159280D01*
X0065929Y0157283D02*
X0065354Y0157283D01*
X0065354Y0156284D02*
X0065929Y0156284D01*
X0062567Y0154287D02*
X0062517Y0154287D01*
X0062517Y0153289D02*
X0062604Y0153289D01*
X0062338Y0151292D02*
X0063445Y0151292D01*
X0063655Y0146299D02*
X0062129Y0146299D01*
X0062572Y0145301D02*
X0063212Y0145301D01*
X0063267Y0145396D02*
X0063069Y0145054D01*
X0062967Y0144672D01*
X0062967Y0143187D01*
X0065754Y0143187D01*
X0065754Y0142613D01*
X0062967Y0142613D01*
X0062967Y0141128D01*
X0063069Y0140746D01*
X0063267Y0140404D01*
X0063546Y0140125D01*
X0063888Y0139927D01*
X0064270Y0139825D01*
X0065754Y0139825D01*
X0065754Y0142613D01*
X0066329Y0142613D01*
X0066329Y0143187D01*
X0069117Y0143187D01*
X0069117Y0144672D01*
X0069014Y0145054D01*
X0068817Y0145396D01*
X0068538Y0145675D01*
X0068196Y0145873D01*
X0067814Y0145975D01*
X0066329Y0145975D01*
X0066329Y0143187D01*
X0065754Y0143187D01*
X0065754Y0145975D01*
X0064270Y0145975D01*
X0063888Y0145873D01*
X0063546Y0145675D01*
X0063267Y0145396D01*
X0062967Y0144302D02*
X0062817Y0144302D01*
X0062817Y0143303D02*
X0062967Y0143303D01*
X0062817Y0142613D02*
X0062817Y0141128D01*
X0062714Y0140746D01*
X0062517Y0140404D01*
X0062238Y0140125D01*
X0061896Y0139927D01*
X0061514Y0139825D01*
X0060029Y0139825D01*
X0060029Y0142613D01*
X0062817Y0142613D01*
X0062817Y0142305D02*
X0062967Y0142305D01*
X0062967Y0141306D02*
X0062817Y0141306D01*
X0062421Y0140308D02*
X0063363Y0140308D01*
X0065754Y0140308D02*
X0066329Y0140308D01*
X0066329Y0139825D02*
X0067814Y0139825D01*
X0068196Y0139927D01*
X0068538Y0140125D01*
X0068817Y0140404D01*
X0069014Y0140746D01*
X0069117Y0141128D01*
X0069117Y0142613D01*
X0066329Y0142613D01*
X0066329Y0139825D01*
X0066329Y0141306D02*
X0065754Y0141306D01*
X0065754Y0142305D02*
X0066329Y0142305D01*
X0066329Y0143303D02*
X0065754Y0143303D01*
X0065754Y0144302D02*
X0066329Y0144302D01*
X0066329Y0145301D02*
X0065754Y0145301D01*
X0068429Y0146299D02*
X0069955Y0146299D01*
X0070229Y0145775D02*
X0069467Y0145013D01*
X0069467Y0140787D01*
X0070229Y0140025D01*
X0074455Y0140025D01*
X0075156Y0140726D01*
X0075945Y0140400D01*
X0076939Y0140400D01*
X0077858Y0140781D01*
X0078561Y0141484D01*
X0078942Y0142403D01*
X0078942Y0143397D01*
X0078561Y0144316D01*
X0077858Y0145019D01*
X0076939Y0145400D01*
X0075945Y0145400D01*
X0075156Y0145074D01*
X0074455Y0145775D01*
X0070229Y0145775D01*
X0069754Y0145301D02*
X0068872Y0145301D01*
X0069117Y0144302D02*
X0069467Y0144302D01*
X0069467Y0143303D02*
X0069117Y0143303D01*
X0069117Y0142305D02*
X0069467Y0142305D01*
X0069467Y0141306D02*
X0069117Y0141306D01*
X0068721Y0140308D02*
X0069946Y0140308D01*
X0071748Y0136314D02*
X0078985Y0136314D01*
X0078867Y0136196D02*
X0078669Y0135854D01*
X0078567Y0135472D01*
X0078567Y0133987D01*
X0081354Y0133987D01*
X0081354Y0133413D01*
X0078567Y0133413D01*
X0078567Y0131928D01*
X0078669Y0131546D01*
X0078867Y0131204D01*
X0079146Y0130925D01*
X0079488Y0130727D01*
X0079870Y0130625D01*
X0081354Y0130625D01*
X0081354Y0133413D01*
X0081929Y0133413D01*
X0081929Y0133987D01*
X0084717Y0133987D01*
X0084717Y0135472D01*
X0084614Y0135854D01*
X0084417Y0136196D01*
X0084138Y0136475D01*
X0083796Y0136673D01*
X0083414Y0136775D01*
X0081929Y0136775D01*
X0081929Y0133987D01*
X0081354Y0133987D01*
X0081354Y0136775D01*
X0079870Y0136775D01*
X0079488Y0136673D01*
X0079146Y0136475D01*
X0078867Y0136196D01*
X0078567Y0135315D02*
X0072341Y0135315D01*
X0072341Y0134317D02*
X0078567Y0134317D01*
X0078567Y0133318D02*
X0072341Y0133318D01*
X0072341Y0132320D02*
X0078567Y0132320D01*
X0078799Y0131321D02*
X0072341Y0131321D01*
X0072341Y0130323D02*
X0079277Y0130323D01*
X0078767Y0129324D02*
X0072341Y0129324D01*
X0072341Y0128326D02*
X0078767Y0128326D01*
X0078767Y0127327D02*
X0072341Y0127327D01*
X0072341Y0126329D02*
X0078767Y0126329D01*
X0079023Y0125330D02*
X0072341Y0125330D01*
X0072341Y0124332D02*
X0079742Y0124332D01*
X0079742Y0123333D02*
X0072696Y0123333D01*
X0073694Y0122335D02*
X0079742Y0122335D01*
X0079742Y0121336D02*
X0074693Y0121336D01*
X0075691Y0120338D02*
X0079742Y0120338D01*
X0079742Y0119339D02*
X0076690Y0119339D01*
X0077688Y0118341D02*
X0079742Y0118341D01*
X0079742Y0117342D02*
X0078687Y0117342D01*
X0076308Y0114347D02*
X0046042Y0114347D01*
X0046042Y0115345D02*
X0075310Y0115345D01*
X0074311Y0116344D02*
X0046042Y0116344D01*
X0046042Y0117342D02*
X0073313Y0117342D01*
X0072314Y0118341D02*
X0046042Y0118341D01*
X0046042Y0119339D02*
X0071316Y0119339D01*
X0070317Y0120338D02*
X0046042Y0120338D01*
X0046042Y0121336D02*
X0057852Y0121336D01*
X0057143Y0122335D02*
X0046042Y0122335D01*
X0046042Y0123333D02*
X0057143Y0123333D01*
X0057143Y0124332D02*
X0046042Y0124332D01*
X0046042Y0125330D02*
X0057143Y0125330D01*
X0057143Y0126329D02*
X0046042Y0126329D01*
X0046042Y0127327D02*
X0057143Y0127327D01*
X0057143Y0128326D02*
X0046042Y0128326D01*
X0046042Y0129324D02*
X0057143Y0129324D01*
X0057143Y0130323D02*
X0046042Y0130323D01*
X0046042Y0131321D02*
X0057143Y0131321D01*
X0057143Y0132320D02*
X0046042Y0132320D01*
X0046847Y0133318D02*
X0057143Y0133318D01*
X0057143Y0134317D02*
X0047846Y0134317D01*
X0048844Y0135315D02*
X0057143Y0135315D01*
X0057735Y0136314D02*
X0049843Y0136314D01*
X0050841Y0137312D02*
X0096042Y0137312D01*
X0096042Y0136314D02*
X0090716Y0136314D01*
X0088342Y0133700D02*
X0095342Y0133700D01*
X0094552Y0131321D02*
X0090951Y0131321D01*
X0090496Y0130673D02*
X0090114Y0130775D01*
X0088629Y0130775D01*
X0088629Y0127987D01*
X0091417Y0127987D01*
X0091417Y0129472D01*
X0091314Y0129854D01*
X0091117Y0130196D01*
X0090838Y0130475D01*
X0090496Y0130673D01*
X0090990Y0130323D02*
X0096042Y0130323D01*
X0096042Y0129324D02*
X0091417Y0129324D01*
X0091417Y0128326D02*
X0096042Y0128326D01*
X0096042Y0127327D02*
X0091417Y0127327D01*
X0091417Y0127413D02*
X0091417Y0125928D01*
X0091314Y0125546D01*
X0091117Y0125204D01*
X0090838Y0124925D01*
X0090496Y0124727D01*
X0090114Y0124625D01*
X0088629Y0124625D01*
X0088629Y0127413D01*
X0088629Y0127987D01*
X0088054Y0127987D01*
X0088054Y0127413D01*
X0085267Y0127413D01*
X0085267Y0125928D01*
X0085369Y0125546D01*
X0085567Y0125204D01*
X0085846Y0124925D01*
X0086188Y0124727D01*
X0086570Y0124625D01*
X0088054Y0124625D01*
X0088054Y0127413D01*
X0088629Y0127413D01*
X0091417Y0127413D01*
X0091417Y0126329D02*
X0096042Y0126329D01*
X0096042Y0125330D02*
X0091190Y0125330D01*
X0088629Y0125330D02*
X0088054Y0125330D01*
X0088054Y0126329D02*
X0088629Y0126329D01*
X0088629Y0127327D02*
X0088054Y0127327D01*
X0088054Y0127987D02*
X0085267Y0127987D01*
X0085267Y0129472D01*
X0085369Y0129854D01*
X0085567Y0130196D01*
X0085846Y0130475D01*
X0086188Y0130673D01*
X0086570Y0130775D01*
X0088054Y0130775D01*
X0088054Y0127987D01*
X0088054Y0128326D02*
X0088629Y0128326D01*
X0088629Y0129324D02*
X0088054Y0129324D01*
X0088054Y0130323D02*
X0088629Y0130323D01*
X0085694Y0130323D02*
X0084007Y0130323D01*
X0083796Y0130727D02*
X0084138Y0130925D01*
X0084417Y0131204D01*
X0084614Y0131546D01*
X0084717Y0131928D01*
X0084717Y0133413D01*
X0081929Y0133413D01*
X0081929Y0130625D01*
X0083414Y0130625D01*
X0083796Y0130727D01*
X0084485Y0131321D02*
X0085732Y0131321D01*
X0085467Y0132320D02*
X0084717Y0132320D01*
X0084717Y0133318D02*
X0085467Y0133318D01*
X0085467Y0134317D02*
X0084717Y0134317D01*
X0084717Y0135315D02*
X0085467Y0135315D01*
X0085968Y0136314D02*
X0084299Y0136314D01*
X0081929Y0136314D02*
X0081354Y0136314D01*
X0081354Y0135315D02*
X0081929Y0135315D01*
X0081929Y0134317D02*
X0081354Y0134317D01*
X0081354Y0133318D02*
X0081929Y0133318D01*
X0081929Y0132320D02*
X0081354Y0132320D01*
X0081354Y0131321D02*
X0081929Y0131321D01*
X0084517Y0129324D02*
X0085267Y0129324D01*
X0085267Y0128326D02*
X0084517Y0128326D01*
X0084517Y0127327D02*
X0085267Y0127327D01*
X0085267Y0126329D02*
X0084517Y0126329D01*
X0084260Y0125330D02*
X0085494Y0125330D01*
X0083542Y0124332D02*
X0096042Y0124332D01*
X0096042Y0123333D02*
X0083542Y0123333D01*
X0083542Y0122335D02*
X0096042Y0122335D01*
X0096042Y0121336D02*
X0083542Y0121336D01*
X0083542Y0120338D02*
X0096042Y0120338D01*
X0096042Y0119339D02*
X0083542Y0119339D01*
X0083542Y0118341D02*
X0096042Y0118341D01*
X0096042Y0117342D02*
X0083542Y0117342D01*
X0083915Y0116344D02*
X0096042Y0116344D01*
X0096042Y0115345D02*
X0084142Y0115345D01*
X0083953Y0114347D02*
X0093933Y0114347D01*
X0095042Y0112100D02*
X0092142Y0112100D01*
X0086142Y0106100D01*
X0086142Y0099400D01*
X0083837Y0100368D02*
X0083542Y0100368D01*
X0083542Y0101366D02*
X0084342Y0101366D01*
X0084342Y0102365D02*
X0083542Y0102365D01*
X0083542Y0103363D02*
X0084342Y0103363D01*
X0084342Y0104362D02*
X0083542Y0104362D01*
X0083542Y0105360D02*
X0084342Y0105360D01*
X0084342Y0106359D02*
X0083542Y0106359D01*
X0083542Y0107357D02*
X0084853Y0107357D01*
X0085852Y0108356D02*
X0083542Y0108356D01*
X0083542Y0109354D02*
X0086850Y0109354D01*
X0087849Y0110353D02*
X0083542Y0110353D01*
X0083542Y0111351D02*
X0088847Y0111351D01*
X0089846Y0112350D02*
X0083542Y0112350D01*
X0083542Y0113348D02*
X0090844Y0113348D01*
X0091941Y0109354D02*
X0096042Y0109354D01*
X0096042Y0108356D02*
X0090943Y0108356D01*
X0089944Y0107357D02*
X0096042Y0107357D01*
X0096042Y0106359D02*
X0088946Y0106359D01*
X0087947Y0105360D02*
X0096436Y0105360D01*
X0097435Y0104362D02*
X0087942Y0104362D01*
X0087942Y0103363D02*
X0098433Y0103363D01*
X0099432Y0102365D02*
X0087942Y0102365D01*
X0087942Y0101366D02*
X0100430Y0101366D01*
X0101429Y0100368D02*
X0088447Y0100368D01*
X0088642Y0099369D02*
X0102427Y0099369D01*
X0103426Y0098370D02*
X0088421Y0098370D01*
X0087649Y0097372D02*
X0104424Y0097372D01*
X0104567Y0095375D02*
X0104117Y0095375D01*
X0099342Y0090382D02*
X0097228Y0090382D01*
X0097396Y0090427D02*
X0097738Y0090625D01*
X0098017Y0090904D01*
X0098214Y0091246D01*
X0098317Y0091628D01*
X0098317Y0093113D01*
X0095529Y0093113D01*
X0095529Y0093687D01*
X0098317Y0093687D01*
X0098317Y0095172D01*
X0098214Y0095554D01*
X0098017Y0095896D01*
X0097738Y0096175D01*
X0097396Y0096373D01*
X0097014Y0096475D01*
X0095529Y0096475D01*
X0095529Y0093687D01*
X0094954Y0093687D01*
X0094954Y0093113D01*
X0092167Y0093113D01*
X0092167Y0091628D01*
X0092269Y0091246D01*
X0092467Y0090904D01*
X0092746Y0090625D01*
X0093088Y0090427D01*
X0093470Y0090325D01*
X0094954Y0090325D01*
X0094954Y0093113D01*
X0095529Y0093113D01*
X0095529Y0090325D01*
X0097014Y0090325D01*
X0097396Y0090427D01*
X0097396Y0090173D02*
X0097014Y0090275D01*
X0095529Y0090275D01*
X0095529Y0087487D01*
X0098317Y0087487D01*
X0098317Y0088972D01*
X0098214Y0089354D01*
X0098017Y0089696D01*
X0097738Y0089975D01*
X0097396Y0090173D01*
X0098197Y0089384D02*
X0098438Y0089384D01*
X0098367Y0088385D02*
X0098317Y0088385D01*
X0098367Y0087387D02*
X0095529Y0087387D01*
X0095529Y0087487D02*
X0095529Y0086913D01*
X0098317Y0086913D01*
X0098317Y0085428D01*
X0098214Y0085046D01*
X0098017Y0084704D01*
X0097738Y0084425D01*
X0097396Y0084227D01*
X0097014Y0084125D01*
X0095529Y0084125D01*
X0095529Y0086913D01*
X0094954Y0086913D01*
X0094954Y0087487D01*
X0092167Y0087487D01*
X0092167Y0088972D01*
X0092269Y0089354D01*
X0092467Y0089696D01*
X0092746Y0089975D01*
X0093088Y0090173D01*
X0093470Y0090275D01*
X0094954Y0090275D01*
X0094954Y0087487D01*
X0095529Y0087487D01*
X0094954Y0087387D02*
X0083542Y0087387D01*
X0083542Y0088385D02*
X0092167Y0088385D01*
X0092287Y0089384D02*
X0083542Y0089384D01*
X0083542Y0090382D02*
X0093256Y0090382D01*
X0092233Y0091381D02*
X0083542Y0091381D01*
X0083542Y0092379D02*
X0092167Y0092379D01*
X0092167Y0093687D02*
X0094954Y0093687D01*
X0094954Y0096475D01*
X0093470Y0096475D01*
X0093088Y0096373D01*
X0092746Y0096175D01*
X0092467Y0095896D01*
X0092269Y0095554D01*
X0092167Y0095172D01*
X0092167Y0093687D01*
X0092167Y0094376D02*
X0083542Y0094376D01*
X0083542Y0093378D02*
X0094954Y0093378D01*
X0095529Y0093378D02*
X0098367Y0093378D01*
X0098367Y0094376D02*
X0098317Y0094376D01*
X0098262Y0095375D02*
X0098367Y0095375D01*
X0097392Y0096373D02*
X0111291Y0096373D01*
X0110421Y0095375D02*
X0110317Y0095375D01*
X0110317Y0094376D02*
X0110367Y0094376D01*
X0110317Y0093378D02*
X0113154Y0093378D01*
X0113729Y0093378D02*
X0118732Y0093378D01*
X0120142Y0095500D02*
X0109325Y0106317D01*
X0109325Y0107300D01*
X0109342Y0107283D01*
X0105774Y0106359D02*
X0105396Y0106359D01*
X0105396Y0107357D02*
X0099642Y0107357D01*
X0100529Y0106359D02*
X0102707Y0106359D01*
X0102707Y0105360D02*
X0101527Y0105360D01*
X0102526Y0104362D02*
X0102809Y0104362D01*
X0103524Y0103363D02*
X0109733Y0103363D01*
X0110732Y0102365D02*
X0104523Y0102365D01*
X0105521Y0101366D02*
X0111730Y0101366D01*
X0112274Y0100368D02*
X0106520Y0100368D01*
X0105774Y0104362D02*
X0105396Y0104362D01*
X0105396Y0105360D02*
X0105774Y0105360D01*
X0105774Y0108356D02*
X0105396Y0108356D01*
X0105396Y0109354D02*
X0105774Y0109354D01*
X0105774Y0110353D02*
X0105396Y0110353D01*
X0095529Y0096373D02*
X0094954Y0096373D01*
X0094954Y0095375D02*
X0095529Y0095375D01*
X0095529Y0094376D02*
X0094954Y0094376D01*
X0094954Y0092379D02*
X0095529Y0092379D01*
X0095529Y0091381D02*
X0094954Y0091381D01*
X0094954Y0090382D02*
X0095529Y0090382D01*
X0095529Y0089384D02*
X0094954Y0089384D01*
X0094954Y0088385D02*
X0095529Y0088385D01*
X0095529Y0086388D02*
X0094954Y0086388D01*
X0094954Y0085390D02*
X0095529Y0085390D01*
X0095529Y0084391D02*
X0094954Y0084391D01*
X0094954Y0083393D02*
X0095529Y0083393D01*
X0095529Y0082394D02*
X0094954Y0082394D01*
X0094954Y0081396D02*
X0095529Y0081396D01*
X0095529Y0080713D02*
X0098317Y0080713D01*
X0098317Y0079228D01*
X0098214Y0078846D01*
X0098017Y0078504D01*
X0097738Y0078225D01*
X0097396Y0078027D01*
X0097014Y0077925D01*
X0095529Y0077925D01*
X0095529Y0080713D01*
X0095529Y0080397D02*
X0094954Y0080397D01*
X0094954Y0079399D02*
X0095529Y0079399D01*
X0095529Y0078400D02*
X0094954Y0078400D01*
X0097913Y0078400D02*
X0098853Y0078400D01*
X0098367Y0079399D02*
X0098317Y0079399D01*
X0098317Y0080397D02*
X0098367Y0080397D01*
X0098367Y0081396D02*
X0098317Y0081396D01*
X0098317Y0082394D02*
X0098367Y0082394D01*
X0098647Y0083393D02*
X0098076Y0083393D01*
X0097679Y0084391D02*
X0099062Y0084391D01*
X0098367Y0085390D02*
X0098306Y0085390D01*
X0098317Y0086388D02*
X0098367Y0086388D01*
X0098367Y0091381D02*
X0098250Y0091381D01*
X0098317Y0092379D02*
X0098367Y0092379D01*
X0093091Y0096373D02*
X0083542Y0096373D01*
X0083542Y0095375D02*
X0092221Y0095375D01*
X0084634Y0097372D02*
X0083542Y0097372D01*
X0083542Y0098370D02*
X0083862Y0098370D01*
X0083642Y0099369D02*
X0083542Y0099369D01*
X0077942Y0101366D02*
X0077880Y0101366D01*
X0077942Y0102365D02*
X0077466Y0102365D01*
X0077942Y0103363D02*
X0076948Y0103363D01*
X0076327Y0104362D02*
X0077942Y0104362D01*
X0077942Y0105360D02*
X0075582Y0105360D01*
X0074682Y0106359D02*
X0077942Y0106359D01*
X0077942Y0107357D02*
X0073581Y0107357D01*
X0072198Y0108356D02*
X0077942Y0108356D01*
X0077942Y0109354D02*
X0070293Y0109354D01*
X0066862Y0110353D02*
X0077942Y0110353D01*
X0077942Y0111351D02*
X0046042Y0111351D01*
X0046042Y0110353D02*
X0062622Y0110353D01*
X0064242Y0110353D02*
X0065242Y0110353D01*
X0065242Y0109354D02*
X0064242Y0109354D01*
X0064242Y0108356D02*
X0065242Y0108356D01*
X0065242Y0107357D02*
X0064242Y0107357D01*
X0064242Y0106359D02*
X0065242Y0106359D01*
X0065242Y0105360D02*
X0064242Y0105360D01*
X0064242Y0104362D02*
X0065242Y0104362D01*
X0065242Y0103363D02*
X0064242Y0103363D01*
X0064242Y0102365D02*
X0065242Y0102365D01*
X0065242Y0101366D02*
X0064242Y0101366D01*
X0064242Y0100368D02*
X0065242Y0100368D01*
X0065242Y0099369D02*
X0064242Y0099369D01*
X0064242Y0098370D02*
X0065242Y0098370D01*
X0065242Y0097372D02*
X0064242Y0097372D01*
X0064242Y0096373D02*
X0046042Y0096373D01*
X0046042Y0095375D02*
X0050785Y0095375D01*
X0050742Y0095812D02*
X0050877Y0094443D01*
X0051145Y0093094D01*
X0051544Y0091778D01*
X0052071Y0090507D01*
X0052719Y0089294D01*
X0053483Y0088150D01*
X0054356Y0087087D01*
X0055329Y0086114D01*
X0056392Y0085242D01*
X0057536Y0084477D01*
X0058749Y0083829D01*
X0060020Y0083302D01*
X0061336Y0082903D01*
X0062685Y0082635D01*
X0064054Y0082500D01*
X0064242Y0082500D01*
X0064242Y0096000D01*
X0050742Y0096000D01*
X0050742Y0095812D01*
X0050890Y0094376D02*
X0046042Y0094376D01*
X0046042Y0093378D02*
X0051089Y0093378D01*
X0051362Y0092379D02*
X0046042Y0092379D01*
X0046042Y0091381D02*
X0051709Y0091381D01*
X0052137Y0090382D02*
X0046042Y0090382D01*
X0046042Y0089384D02*
X0052671Y0089384D01*
X0053326Y0088385D02*
X0046042Y0088385D01*
X0046042Y0087387D02*
X0054110Y0087387D01*
X0055054Y0086388D02*
X0046042Y0086388D01*
X0046042Y0085390D02*
X0056211Y0085390D01*
X0057697Y0084391D02*
X0046042Y0084391D01*
X0046042Y0083393D02*
X0059802Y0083393D01*
X0064242Y0083393D02*
X0065242Y0083393D01*
X0065242Y0084391D02*
X0064242Y0084391D01*
X0064242Y0085390D02*
X0065242Y0085390D01*
X0065242Y0086388D02*
X0064242Y0086388D01*
X0064242Y0087387D02*
X0065242Y0087387D01*
X0065242Y0088385D02*
X0064242Y0088385D01*
X0064242Y0089384D02*
X0065242Y0089384D01*
X0065242Y0090382D02*
X0064242Y0090382D01*
X0064242Y0091381D02*
X0065242Y0091381D01*
X0065242Y0092379D02*
X0064242Y0092379D01*
X0064242Y0093378D02*
X0065242Y0093378D01*
X0065242Y0094376D02*
X0064242Y0094376D01*
X0064242Y0095375D02*
X0065242Y0095375D01*
X0071787Y0084391D02*
X0072829Y0084391D01*
X0073342Y0083393D02*
X0069682Y0083393D01*
X0073342Y0082394D02*
X0046042Y0082394D01*
X0046042Y0081396D02*
X0073342Y0081396D01*
X0073342Y0080397D02*
X0046042Y0080397D01*
X0046042Y0079399D02*
X0073342Y0079399D01*
X0073342Y0078400D02*
X0046042Y0078400D01*
X0046042Y0077402D02*
X0073342Y0077402D01*
X0073342Y0076403D02*
X0046042Y0076403D01*
X0046042Y0075405D02*
X0073342Y0075405D01*
X0073342Y0074406D02*
X0046042Y0074406D01*
X0046042Y0073408D02*
X0073342Y0073408D01*
X0073342Y0072409D02*
X0046042Y0072409D01*
X0046042Y0071411D02*
X0057599Y0071411D01*
X0057143Y0070412D02*
X0046042Y0070412D01*
X0046042Y0069414D02*
X0057143Y0069414D01*
X0057143Y0068415D02*
X0046042Y0068415D01*
X0046042Y0067417D02*
X0057143Y0067417D01*
X0057143Y0066418D02*
X0046811Y0066418D01*
X0047809Y0065420D02*
X0057143Y0065420D01*
X0057143Y0064421D02*
X0048808Y0064421D01*
X0049806Y0063423D02*
X0057143Y0063423D01*
X0057143Y0062424D02*
X0050805Y0062424D01*
X0051803Y0061426D02*
X0057143Y0061426D01*
X0057143Y0060427D02*
X0052802Y0060427D01*
X0053800Y0059429D02*
X0057143Y0059429D01*
X0057143Y0058430D02*
X0054799Y0058430D01*
X0055797Y0057432D02*
X0057143Y0057432D01*
X0052870Y0052439D02*
X0039842Y0052439D01*
X0039842Y0053437D02*
X0051872Y0053437D01*
X0050873Y0054436D02*
X0039842Y0054436D01*
X0039842Y0055434D02*
X0049875Y0055434D01*
X0048876Y0056433D02*
X0039842Y0056433D01*
X0039842Y0057432D02*
X0047878Y0057432D01*
X0046879Y0058430D02*
X0039842Y0058430D01*
X0039842Y0059429D02*
X0045881Y0059429D01*
X0044882Y0060427D02*
X0039842Y0060427D01*
X0039842Y0061426D02*
X0043884Y0061426D01*
X0042885Y0062424D02*
X0039842Y0062424D01*
X0039842Y0063423D02*
X0041407Y0063423D01*
X0040442Y0064421D02*
X0039842Y0064421D01*
X0039842Y0065420D02*
X0040442Y0065420D01*
X0040442Y0066418D02*
X0039842Y0066418D01*
X0039842Y0067417D02*
X0040442Y0067417D01*
X0040442Y0068415D02*
X0039842Y0068415D01*
X0039842Y0069414D02*
X0040442Y0069414D01*
X0040442Y0070412D02*
X0039842Y0070412D01*
X0039842Y0071411D02*
X0040442Y0071411D01*
X0040442Y0072409D02*
X0039842Y0072409D01*
X0039842Y0073408D02*
X0040442Y0073408D01*
X0040442Y0074406D02*
X0039842Y0074406D01*
X0039842Y0075405D02*
X0040442Y0075405D01*
X0040442Y0076403D02*
X0039842Y0076403D01*
X0039842Y0077402D02*
X0040442Y0077402D01*
X0040442Y0078400D02*
X0039842Y0078400D01*
X0039842Y0079399D02*
X0040442Y0079399D01*
X0040442Y0080397D02*
X0039842Y0080397D01*
X0039842Y0081396D02*
X0040442Y0081396D01*
X0040442Y0082394D02*
X0039842Y0082394D01*
X0039842Y0083393D02*
X0040442Y0083393D01*
X0040442Y0084391D02*
X0039842Y0084391D01*
X0039842Y0085390D02*
X0040442Y0085390D01*
X0040442Y0086388D02*
X0039842Y0086388D01*
X0039842Y0087387D02*
X0040442Y0087387D01*
X0040442Y0088385D02*
X0039842Y0088385D01*
X0039842Y0089384D02*
X0040442Y0089384D01*
X0040442Y0090382D02*
X0039842Y0090382D01*
X0039842Y0091381D02*
X0040442Y0091381D01*
X0040442Y0092379D02*
X0039842Y0092379D01*
X0039842Y0093378D02*
X0040442Y0093378D01*
X0040442Y0094376D02*
X0039842Y0094376D01*
X0039842Y0095375D02*
X0040442Y0095375D01*
X0040442Y0096373D02*
X0039842Y0096373D01*
X0039842Y0097372D02*
X0040442Y0097372D01*
X0040442Y0098370D02*
X0039842Y0098370D01*
X0039842Y0099369D02*
X0040442Y0099369D01*
X0040442Y0100368D02*
X0039842Y0100368D01*
X0039842Y0101366D02*
X0040442Y0101366D01*
X0040442Y0102365D02*
X0039842Y0102365D01*
X0039842Y0103363D02*
X0040442Y0103363D01*
X0040442Y0104362D02*
X0039842Y0104362D01*
X0039842Y0105360D02*
X0040442Y0105360D01*
X0040442Y0106359D02*
X0039842Y0106359D01*
X0039842Y0107357D02*
X0040442Y0107357D01*
X0040442Y0108356D02*
X0039842Y0108356D01*
X0039842Y0109354D02*
X0040442Y0109354D01*
X0040442Y0110353D02*
X0039842Y0110353D01*
X0039842Y0111351D02*
X0040442Y0111351D01*
X0040442Y0112350D02*
X0039842Y0112350D01*
X0039842Y0113348D02*
X0040442Y0113348D01*
X0040442Y0114347D02*
X0039842Y0114347D01*
X0039842Y0115345D02*
X0040442Y0115345D01*
X0040442Y0116344D02*
X0039842Y0116344D01*
X0039842Y0117342D02*
X0040442Y0117342D01*
X0040442Y0118341D02*
X0039842Y0118341D01*
X0039842Y0119339D02*
X0040442Y0119339D01*
X0040442Y0120338D02*
X0039842Y0120338D01*
X0039842Y0121336D02*
X0040442Y0121336D01*
X0040442Y0122335D02*
X0039842Y0122335D01*
X0039842Y0123333D02*
X0040442Y0123333D01*
X0040442Y0124332D02*
X0039842Y0124332D01*
X0039842Y0125330D02*
X0040442Y0125330D01*
X0040442Y0126329D02*
X0039842Y0126329D01*
X0039842Y0127327D02*
X0040442Y0127327D01*
X0040442Y0128326D02*
X0039842Y0128326D01*
X0039842Y0129324D02*
X0040442Y0129324D01*
X0040442Y0130323D02*
X0039842Y0130323D01*
X0039842Y0131321D02*
X0040442Y0131321D01*
X0040442Y0132320D02*
X0039842Y0132320D01*
X0039842Y0133318D02*
X0040442Y0133318D01*
X0040442Y0134317D02*
X0039842Y0134317D01*
X0039842Y0135315D02*
X0040442Y0135315D01*
X0051840Y0138311D02*
X0096042Y0138311D01*
X0096042Y0139309D02*
X0052838Y0139309D01*
X0053837Y0140308D02*
X0057063Y0140308D01*
X0056667Y0141306D02*
X0054835Y0141306D01*
X0055834Y0142305D02*
X0056667Y0142305D01*
X0059454Y0142305D02*
X0060029Y0142305D01*
X0060029Y0143303D02*
X0059454Y0143303D01*
X0059454Y0144302D02*
X0060029Y0144302D01*
X0060029Y0145301D02*
X0059454Y0145301D01*
X0059454Y0141306D02*
X0060029Y0141306D01*
X0060029Y0140308D02*
X0059454Y0140308D01*
X0068917Y0147298D02*
X0069467Y0147298D01*
X0069467Y0148296D02*
X0068917Y0148296D01*
X0069115Y0149295D02*
X0069467Y0149295D01*
X0074729Y0146299D02*
X0096960Y0146299D01*
X0096042Y0145301D02*
X0077179Y0145301D01*
X0075704Y0145301D02*
X0074929Y0145301D01*
X0078567Y0144302D02*
X0096042Y0144302D01*
X0096042Y0143303D02*
X0078942Y0143303D01*
X0078901Y0142305D02*
X0096042Y0142305D01*
X0096042Y0141306D02*
X0078384Y0141306D01*
X0074738Y0140308D02*
X0096042Y0140308D01*
X0097958Y0147298D02*
X0078375Y0147298D01*
X0078898Y0148296D02*
X0098576Y0148296D01*
X0098576Y0149295D02*
X0078942Y0149295D01*
X0078571Y0150293D02*
X0098576Y0150293D01*
X0108657Y0150293D02*
X0162181Y0150293D01*
X0160568Y0149295D02*
X0108657Y0149295D01*
X0108657Y0148296D02*
X0159536Y0148296D01*
X0158925Y0147298D02*
X0108657Y0147298D01*
X0108657Y0146299D02*
X0158567Y0146299D01*
X0158503Y0144302D02*
X0108657Y0144302D01*
X0108657Y0145301D02*
X0163142Y0145301D01*
X0164142Y0145301D02*
X0168842Y0145301D01*
X0168842Y0146299D02*
X0168717Y0146299D01*
X0168842Y0147298D02*
X0168358Y0147298D01*
X0168842Y0148296D02*
X0167747Y0148296D01*
X0166715Y0149295D02*
X0168842Y0149295D01*
X0168842Y0150293D02*
X0165102Y0150293D01*
X0166904Y0151292D02*
X0168842Y0151292D01*
X0168842Y0152290D02*
X0167890Y0152290D01*
X0168303Y0153289D02*
X0168842Y0153289D01*
X0168842Y0154287D02*
X0168642Y0154287D01*
X0168642Y0155286D02*
X0168842Y0155286D01*
X0168842Y0156284D02*
X0168563Y0156284D01*
X0168842Y0157283D02*
X0168150Y0157283D01*
X0167532Y0158281D02*
X0168842Y0158281D01*
X0168842Y0159280D02*
X0166533Y0159280D01*
X0165067Y0160278D02*
X0168842Y0160278D01*
X0168842Y0161277D02*
X0166890Y0161277D01*
X0167884Y0162275D02*
X0168842Y0162275D01*
X0168842Y0163274D02*
X0168297Y0163274D01*
X0168642Y0164272D02*
X0168842Y0164272D01*
X0168842Y0165271D02*
X0168642Y0165271D01*
X0168569Y0166269D02*
X0168842Y0166269D01*
X0168842Y0167268D02*
X0168156Y0167268D01*
X0167547Y0168266D02*
X0168842Y0168266D01*
X0168842Y0169265D02*
X0166548Y0169265D01*
X0158986Y0163274D02*
X0158854Y0163274D01*
X0158659Y0162275D02*
X0159400Y0162275D01*
X0158980Y0153289D02*
X0108657Y0153289D01*
X0108657Y0152290D02*
X0159394Y0152290D01*
X0160379Y0151292D02*
X0108657Y0151292D01*
X0108657Y0143303D02*
X0158758Y0143303D01*
X0159245Y0142305D02*
X0108657Y0142305D01*
X0108657Y0141306D02*
X0160081Y0141306D01*
X0161593Y0140308D02*
X0108657Y0140308D01*
X0108657Y0139309D02*
X0160780Y0139309D01*
X0159782Y0138311D02*
X0108657Y0138311D01*
X0108657Y0137312D02*
X0159146Y0137312D01*
X0158733Y0136314D02*
X0108657Y0136314D01*
X0108657Y0135315D02*
X0158642Y0135315D01*
X0158642Y0134317D02*
X0142415Y0134317D01*
X0142909Y0133318D02*
X0158968Y0133318D01*
X0159381Y0132320D02*
X0142909Y0132320D01*
X0142909Y0131321D02*
X0160349Y0131321D01*
X0162109Y0130323D02*
X0142909Y0130323D01*
X0142909Y0129324D02*
X0160795Y0129324D01*
X0159797Y0128326D02*
X0142909Y0128326D01*
X0142909Y0127327D02*
X0159152Y0127327D01*
X0158739Y0126329D02*
X0142791Y0126329D01*
X0148859Y0110353D02*
X0162037Y0110353D01*
X0165246Y0110353D02*
X0168842Y0110353D01*
X0168842Y0111351D02*
X0166964Y0111351D01*
X0167915Y0112350D02*
X0168842Y0112350D01*
X0168842Y0113348D02*
X0168328Y0113348D01*
X0168642Y0114347D02*
X0168842Y0114347D01*
X0168842Y0115345D02*
X0168642Y0115345D01*
X0168539Y0116344D02*
X0168842Y0116344D01*
X0168842Y0117342D02*
X0168125Y0117342D01*
X0167472Y0118341D02*
X0168842Y0118341D01*
X0168842Y0119339D02*
X0166473Y0119339D01*
X0165210Y0120338D02*
X0168842Y0120338D01*
X0168842Y0121336D02*
X0166949Y0121336D01*
X0167908Y0122335D02*
X0168842Y0122335D01*
X0168842Y0123333D02*
X0168322Y0123333D01*
X0168642Y0124332D02*
X0168842Y0124332D01*
X0168842Y0125330D02*
X0168642Y0125330D01*
X0168545Y0126329D02*
X0168842Y0126329D01*
X0168842Y0127327D02*
X0168131Y0127327D01*
X0167487Y0128326D02*
X0168842Y0128326D01*
X0168842Y0129324D02*
X0166489Y0129324D01*
X0165174Y0130323D02*
X0168842Y0130323D01*
X0168842Y0131321D02*
X0166934Y0131321D01*
X0167902Y0132320D02*
X0168842Y0132320D01*
X0168842Y0133318D02*
X0168316Y0133318D01*
X0168642Y0134317D02*
X0168842Y0134317D01*
X0168842Y0135315D02*
X0168642Y0135315D01*
X0168551Y0136314D02*
X0168842Y0136314D01*
X0168842Y0137312D02*
X0168137Y0137312D01*
X0167502Y0138311D02*
X0168842Y0138311D01*
X0168842Y0139309D02*
X0166503Y0139309D01*
X0165691Y0140308D02*
X0168842Y0140308D01*
X0168842Y0141306D02*
X0167202Y0141306D01*
X0168039Y0142305D02*
X0168842Y0142305D01*
X0168842Y0143303D02*
X0168526Y0143303D01*
X0168780Y0144302D02*
X0168842Y0144302D01*
X0158642Y0125330D02*
X0118947Y0125330D01*
X0119428Y0124332D02*
X0158642Y0124332D01*
X0158962Y0123333D02*
X0119442Y0123333D01*
X0119012Y0122335D02*
X0159375Y0122335D01*
X0160334Y0121336D02*
X0118742Y0121336D01*
X0124842Y0116300D02*
X0130942Y0110200D01*
X0130942Y0107337D01*
X0130979Y0107300D01*
X0131885Y0090382D02*
X0159258Y0090382D01*
X0158845Y0089384D02*
X0132385Y0089384D01*
X0132385Y0088385D02*
X0158642Y0088385D01*
X0159784Y0081396D02*
X0121432Y0081396D01*
X0121042Y0080397D02*
X0159078Y0080397D01*
X0166279Y0073408D02*
X0168842Y0073408D01*
X0168842Y0074406D02*
X0167502Y0074406D01*
X0168206Y0075405D02*
X0168842Y0075405D01*
X0168842Y0076403D02*
X0168623Y0076403D01*
X0168842Y0072409D02*
X0165821Y0072409D01*
X0167202Y0071411D02*
X0168842Y0071411D01*
X0168842Y0070412D02*
X0168013Y0070412D01*
X0168427Y0069414D02*
X0168842Y0069414D01*
X0168842Y0068415D02*
X0168642Y0068415D01*
X0168642Y0067417D02*
X0168842Y0067417D01*
X0168842Y0066418D02*
X0168440Y0066418D01*
X0168842Y0065420D02*
X0168026Y0065420D01*
X0167234Y0064421D02*
X0168842Y0064421D01*
X0168842Y0063423D02*
X0165898Y0063423D01*
X0165785Y0062424D02*
X0168842Y0062424D01*
X0168842Y0061426D02*
X0167187Y0061426D01*
X0168007Y0060427D02*
X0168842Y0060427D01*
X0168842Y0059429D02*
X0168421Y0059429D01*
X0168642Y0058430D02*
X0168842Y0058430D01*
X0168842Y0057432D02*
X0168642Y0057432D01*
X0168446Y0056433D02*
X0168842Y0056433D01*
X0168842Y0055434D02*
X0168033Y0055434D01*
X0167249Y0054436D02*
X0168842Y0054436D01*
X0168842Y0053437D02*
X0165934Y0053437D01*
X0166188Y0052439D02*
X0168842Y0052439D01*
X0168842Y0051440D02*
X0167455Y0051440D01*
X0168183Y0050442D02*
X0168842Y0050442D01*
X0168842Y0049443D02*
X0168608Y0049443D01*
X0168820Y0048445D02*
X0168842Y0048445D01*
X0168842Y0047446D02*
X0164142Y0047446D01*
X0163142Y0047446D02*
X0155342Y0047446D01*
X0155342Y0048445D02*
X0158463Y0048445D01*
X0158676Y0049443D02*
X0155342Y0049443D01*
X0155342Y0050442D02*
X0159101Y0050442D01*
X0159828Y0051440D02*
X0155342Y0051440D01*
X0155342Y0052439D02*
X0161096Y0052439D01*
X0161350Y0053437D02*
X0155342Y0053437D01*
X0155342Y0054436D02*
X0160035Y0054436D01*
X0159251Y0055434D02*
X0155342Y0055434D01*
X0155342Y0056433D02*
X0158837Y0056433D01*
X0158642Y0057432D02*
X0155342Y0057432D01*
X0155342Y0058430D02*
X0158642Y0058430D01*
X0158863Y0059429D02*
X0155342Y0059429D01*
X0155342Y0059013D02*
X0155342Y0059013D01*
X0155342Y0060427D02*
X0159277Y0060427D01*
X0160096Y0061426D02*
X0155342Y0061426D01*
X0154813Y0062424D02*
X0161498Y0062424D01*
X0161386Y0063423D02*
X0153814Y0063423D01*
X0152816Y0064421D02*
X0160050Y0064421D01*
X0159257Y0065420D02*
X0151817Y0065420D01*
X0150819Y0066418D02*
X0158844Y0066418D01*
X0158642Y0067417D02*
X0149820Y0067417D01*
X0148822Y0068415D02*
X0158642Y0068415D01*
X0158857Y0069414D02*
X0147823Y0069414D01*
X0146825Y0070412D02*
X0159270Y0070412D01*
X0149391Y0060427D02*
X0107898Y0060427D01*
X0108896Y0059429D02*
X0150142Y0059429D01*
X0148093Y0058430D02*
X0147100Y0058430D01*
X0149242Y0056200D02*
X0144342Y0056200D01*
X0146567Y0053437D02*
X0150142Y0053437D01*
X0155739Y0046448D02*
X0158646Y0046448D01*
X0159054Y0045449D02*
X0156738Y0045449D01*
X0157737Y0044451D02*
X0159737Y0044451D01*
X0158735Y0043452D02*
X0160917Y0043452D01*
X0161570Y0042454D02*
X0159734Y0042454D01*
X0165713Y0042454D02*
X0168842Y0042454D01*
X0168842Y0043452D02*
X0166367Y0043452D01*
X0167547Y0044451D02*
X0168842Y0044451D01*
X0168842Y0045449D02*
X0168229Y0045449D01*
X0168638Y0046448D02*
X0168842Y0046448D01*
X0154727Y0032469D02*
X0129669Y0032469D01*
X0128671Y0033467D02*
X0153729Y0033467D01*
X0152730Y0034466D02*
X0119942Y0034466D01*
X0119942Y0035464D02*
X0151732Y0035464D01*
X0150733Y0036463D02*
X0119942Y0036463D01*
X0119942Y0037461D02*
X0150142Y0037461D01*
X0155726Y0031470D02*
X0130668Y0031470D01*
X0131666Y0030472D02*
X0156724Y0030472D01*
X0157723Y0029473D02*
X0132665Y0029473D01*
X0133663Y0028475D02*
X0158642Y0028475D01*
X0158642Y0027476D02*
X0134662Y0027476D01*
X0135660Y0026478D02*
X0158819Y0026478D01*
X0159233Y0025479D02*
X0149351Y0025479D01*
X0149055Y0025775D02*
X0149756Y0025074D01*
X0150545Y0025400D01*
X0151539Y0025400D01*
X0152458Y0025019D01*
X0153161Y0024316D01*
X0153542Y0023397D01*
X0153542Y0022403D01*
X0153161Y0021484D01*
X0152458Y0020781D01*
X0151539Y0020400D01*
X0150545Y0020400D01*
X0149756Y0020726D01*
X0149055Y0020025D01*
X0144829Y0020025D01*
X0144067Y0020787D01*
X0144067Y0025013D01*
X0144829Y0025775D01*
X0149055Y0025775D01*
X0147042Y0023000D02*
X0146942Y0022900D01*
X0151042Y0022900D01*
X0151748Y0020487D02*
X0159124Y0020487D01*
X0158690Y0019488D02*
X0094842Y0019488D01*
X0094177Y0018490D02*
X0158470Y0018490D01*
X0158631Y0016493D02*
X0072192Y0016493D01*
X0074942Y0017491D02*
X0163142Y0017491D01*
X0159692Y0014496D02*
X0074942Y0014496D01*
X0074942Y0015494D02*
X0159032Y0015494D01*
X0160855Y0013497D02*
X0074819Y0013497D01*
X0074942Y0018490D02*
X0082107Y0018490D01*
X0081108Y0019488D02*
X0074823Y0019488D01*
X0074137Y0020487D02*
X0080110Y0020487D01*
X0080442Y0022700D02*
X0075242Y0022700D01*
X0075215Y0022727D01*
X0068122Y0022727D01*
X0068071Y0022778D01*
X0067964Y0022778D01*
X0063942Y0026800D01*
X0063942Y0028500D01*
X0066245Y0029473D02*
X0083967Y0029473D01*
X0083967Y0029387D02*
X0086754Y0029387D01*
X0086754Y0028813D01*
X0083967Y0028813D01*
X0083967Y0027626D01*
X0083937Y0027697D01*
X0083045Y0028590D01*
X0081879Y0029073D01*
X0080616Y0029073D01*
X0079450Y0028590D01*
X0078557Y0027697D01*
X0078074Y0026531D01*
X0078074Y0025269D01*
X0078393Y0024500D01*
X0075987Y0024500D01*
X0075961Y0024527D01*
X0072302Y0024527D01*
X0072610Y0025269D01*
X0072610Y0026531D01*
X0072126Y0027697D01*
X0071234Y0028590D01*
X0070067Y0029073D01*
X0068805Y0029073D01*
X0067639Y0028590D01*
X0066746Y0027697D01*
X0066408Y0026880D01*
X0066103Y0027184D01*
X0066442Y0028003D01*
X0066442Y0028997D01*
X0066061Y0029916D01*
X0065477Y0030500D01*
X0065677Y0030700D01*
X0083967Y0030700D01*
X0083967Y0029387D01*
X0083967Y0028475D02*
X0083160Y0028475D01*
X0083967Y0030472D02*
X0065506Y0030472D01*
X0066442Y0028475D02*
X0067523Y0028475D01*
X0066655Y0027476D02*
X0066224Y0027476D01*
X0062142Y0026478D02*
X0039842Y0026478D01*
X0039842Y0027476D02*
X0061660Y0027476D01*
X0061442Y0028475D02*
X0039842Y0028475D01*
X0039842Y0029473D02*
X0061639Y0029473D01*
X0062378Y0030472D02*
X0039842Y0030472D01*
X0039842Y0031470D02*
X0061662Y0031470D01*
X0061442Y0032469D02*
X0039842Y0032469D01*
X0039842Y0033467D02*
X0061636Y0033467D01*
X0062372Y0034466D02*
X0039842Y0034466D01*
X0039842Y0035464D02*
X0067374Y0035464D01*
X0067374Y0036463D02*
X0059367Y0036463D01*
X0059325Y0036421D02*
X0060494Y0037589D01*
X0060871Y0038500D01*
X0061046Y0038325D01*
X0061388Y0038127D01*
X0061770Y0038025D01*
X0063254Y0038025D01*
X0063254Y0040813D01*
X0063829Y0040813D01*
X0063829Y0041387D01*
X0066617Y0041387D01*
X0066617Y0042872D01*
X0066514Y0043254D01*
X0066317Y0043596D01*
X0066038Y0043875D01*
X0065696Y0044073D01*
X0065314Y0044175D01*
X0063829Y0044175D01*
X0063829Y0041387D01*
X0063254Y0041387D01*
X0063254Y0044175D01*
X0061770Y0044175D01*
X0061388Y0044073D01*
X0061046Y0043875D01*
X0060767Y0043596D01*
X0060569Y0043254D01*
X0060467Y0042872D01*
X0060467Y0042322D01*
X0059325Y0043464D01*
X0057798Y0044097D01*
X0056145Y0044097D01*
X0054618Y0043464D01*
X0053450Y0042296D01*
X0052817Y0040769D01*
X0052817Y0039116D01*
X0053450Y0037589D01*
X0054618Y0036421D01*
X0056145Y0035788D01*
X0057798Y0035788D01*
X0059325Y0036421D01*
X0060366Y0037461D02*
X0067374Y0037461D01*
X0066317Y0038604D02*
X0066514Y0038946D01*
X0066617Y0039328D01*
X0066617Y0040813D01*
X0063829Y0040813D01*
X0063829Y0038025D01*
X0065314Y0038025D01*
X0065696Y0038127D01*
X0066038Y0038325D01*
X0066317Y0038604D01*
X0066173Y0038460D02*
X0071130Y0038460D01*
X0071130Y0039458D02*
X0072130Y0039458D01*
X0072130Y0039200D02*
X0072130Y0043350D01*
X0074583Y0043350D01*
X0074965Y0043247D01*
X0075307Y0043050D01*
X0075586Y0042771D01*
X0075784Y0042429D01*
X0075886Y0042047D01*
X0075886Y0039200D01*
X0072130Y0039200D01*
X0072130Y0038460D02*
X0078598Y0038460D01*
X0078598Y0039458D02*
X0075886Y0039458D01*
X0075886Y0040457D02*
X0078598Y0040457D01*
X0078598Y0041455D02*
X0075886Y0041455D01*
X0075769Y0042454D02*
X0078663Y0042454D01*
X0079552Y0044451D02*
X0074731Y0044451D01*
X0074898Y0045449D02*
X0079385Y0045449D01*
X0079385Y0046448D02*
X0074898Y0046448D01*
X0074898Y0047446D02*
X0079385Y0047446D01*
X0079385Y0048445D02*
X0074898Y0048445D01*
X0074898Y0049443D02*
X0079385Y0049443D01*
X0079385Y0050442D02*
X0074898Y0050442D01*
X0074898Y0051440D02*
X0079385Y0051440D01*
X0079385Y0052439D02*
X0074898Y0052439D01*
X0077915Y0053437D02*
X0080041Y0053437D01*
X0080963Y0054436D02*
X0078414Y0054436D01*
X0078442Y0055434D02*
X0080963Y0055434D01*
X0081295Y0056433D02*
X0078044Y0056433D01*
X0076604Y0057432D02*
X0082080Y0057432D01*
X0081529Y0058430D02*
X0080954Y0058430D01*
X0080954Y0059429D02*
X0081529Y0059429D01*
X0081529Y0060427D02*
X0080954Y0060427D01*
X0080954Y0061087D02*
X0078167Y0061087D01*
X0078167Y0062572D01*
X0078269Y0062954D01*
X0078467Y0063296D01*
X0078746Y0063575D01*
X0079088Y0063773D01*
X0079470Y0063875D01*
X0080954Y0063875D01*
X0080954Y0061087D01*
X0080954Y0061426D02*
X0081529Y0061426D01*
X0081529Y0062424D02*
X0080954Y0062424D01*
X0080954Y0063423D02*
X0081529Y0063423D01*
X0083890Y0063423D02*
X0099811Y0063423D01*
X0098812Y0064421D02*
X0096798Y0064421D01*
X0097366Y0065420D02*
X0097814Y0065420D01*
X0100809Y0062424D02*
X0084317Y0062424D01*
X0084317Y0061426D02*
X0101808Y0061426D01*
X0102806Y0060427D02*
X0084317Y0060427D01*
X0084317Y0059429D02*
X0103805Y0059429D01*
X0104803Y0058430D02*
X0084090Y0058430D01*
X0086192Y0057432D02*
X0093891Y0057432D01*
X0093106Y0056433D02*
X0086977Y0056433D01*
X0087310Y0055434D02*
X0092774Y0055434D01*
X0092774Y0054436D02*
X0087310Y0054436D01*
X0086924Y0053437D02*
X0093160Y0053437D01*
X0094021Y0052439D02*
X0086063Y0052439D01*
X0085922Y0049443D02*
X0087879Y0049443D01*
X0087967Y0049596D02*
X0087769Y0049254D01*
X0087667Y0048872D01*
X0087667Y0047387D01*
X0090454Y0047387D01*
X0090454Y0046813D01*
X0087667Y0046813D01*
X0087667Y0045328D01*
X0087769Y0044946D01*
X0087967Y0044604D01*
X0088246Y0044325D01*
X0088588Y0044127D01*
X0088970Y0044025D01*
X0090454Y0044025D01*
X0090454Y0046813D01*
X0091029Y0046813D01*
X0091029Y0047387D01*
X0093817Y0047387D01*
X0093817Y0048872D01*
X0093714Y0049254D01*
X0093517Y0049596D01*
X0093238Y0049875D01*
X0092896Y0050073D01*
X0092514Y0050175D01*
X0091029Y0050175D01*
X0091029Y0047387D01*
X0090454Y0047387D01*
X0090454Y0050175D01*
X0088970Y0050175D01*
X0088588Y0050073D01*
X0088246Y0049875D01*
X0087967Y0049596D01*
X0087667Y0048445D02*
X0085922Y0048445D01*
X0085922Y0047446D02*
X0087667Y0047446D01*
X0087667Y0046448D02*
X0085922Y0046448D01*
X0085922Y0045449D02*
X0087667Y0045449D01*
X0088120Y0044451D02*
X0085755Y0044451D01*
X0084554Y0043452D02*
X0088106Y0043452D01*
X0090454Y0044451D02*
X0091029Y0044451D01*
X0091029Y0044025D02*
X0092514Y0044025D01*
X0092896Y0044127D01*
X0093238Y0044325D01*
X0093517Y0044604D01*
X0093714Y0044946D01*
X0093817Y0045328D01*
X0093817Y0046813D01*
X0091029Y0046813D01*
X0091029Y0044025D01*
X0091029Y0045449D02*
X0090454Y0045449D01*
X0090454Y0046448D02*
X0091029Y0046448D01*
X0091029Y0047446D02*
X0090454Y0047446D01*
X0090454Y0048445D02*
X0091029Y0048445D01*
X0091029Y0049443D02*
X0090454Y0049443D01*
X0093605Y0049443D02*
X0114425Y0049443D01*
X0113351Y0048445D02*
X0093817Y0048445D01*
X0093817Y0047446D02*
X0113042Y0047446D01*
X0113147Y0046448D02*
X0093817Y0046448D01*
X0093817Y0045449D02*
X0113757Y0045449D01*
X0113354Y0044451D02*
X0093364Y0044451D01*
X0093378Y0043452D02*
X0113042Y0043452D01*
X0113145Y0042454D02*
X0093617Y0042454D01*
X0093617Y0041455D02*
X0113751Y0041455D01*
X0113842Y0040457D02*
X0093617Y0040457D01*
X0093617Y0039458D02*
X0113842Y0039458D01*
X0113842Y0038460D02*
X0093090Y0038460D01*
X0091642Y0037461D02*
X0113842Y0037461D01*
X0113842Y0036463D02*
X0091625Y0036463D01*
X0091142Y0035464D02*
X0113160Y0035464D01*
X0112162Y0034466D02*
X0086163Y0034466D01*
X0087329Y0029387D02*
X0090117Y0029387D01*
X0090117Y0030700D01*
X0090167Y0030700D01*
X0090167Y0026987D01*
X0090929Y0026225D01*
X0095155Y0026225D01*
X0095806Y0026876D01*
X0095663Y0026531D01*
X0095663Y0025269D01*
X0095806Y0024924D01*
X0095155Y0025575D01*
X0090929Y0025575D01*
X0090167Y0024813D01*
X0090167Y0021100D01*
X0090117Y0021100D01*
X0090117Y0022413D01*
X0087329Y0022413D01*
X0087329Y0022987D01*
X0090117Y0022987D01*
X0090117Y0024472D01*
X0090014Y0024854D01*
X0089817Y0025196D01*
X0089538Y0025475D01*
X0089196Y0025673D01*
X0088814Y0025775D01*
X0087329Y0025775D01*
X0087329Y0022987D01*
X0086754Y0022987D01*
X0086754Y0022413D01*
X0083967Y0022413D01*
X0083967Y0021720D01*
X0082644Y0023044D01*
X0083045Y0023210D01*
X0083937Y0024103D01*
X0083967Y0024174D01*
X0083967Y0022987D01*
X0086754Y0022987D01*
X0086754Y0025775D01*
X0085270Y0025775D01*
X0084888Y0025673D01*
X0084546Y0025475D01*
X0084421Y0025350D01*
X0084421Y0026450D01*
X0084546Y0026325D01*
X0084888Y0026127D01*
X0085270Y0026025D01*
X0086754Y0026025D01*
X0086754Y0028813D01*
X0087329Y0028813D01*
X0087329Y0029387D01*
X0087329Y0028813D02*
X0090117Y0028813D01*
X0090117Y0027328D01*
X0090014Y0026946D01*
X0089817Y0026604D01*
X0089538Y0026325D01*
X0089196Y0026127D01*
X0088814Y0026025D01*
X0087329Y0026025D01*
X0087329Y0028813D01*
X0087329Y0028475D02*
X0086754Y0028475D01*
X0086754Y0027476D02*
X0087329Y0027476D01*
X0087329Y0026478D02*
X0086754Y0026478D01*
X0086754Y0025479D02*
X0087329Y0025479D01*
X0087329Y0024481D02*
X0086754Y0024481D01*
X0086754Y0023482D02*
X0087329Y0023482D01*
X0087329Y0022484D02*
X0090167Y0022484D01*
X0090167Y0023482D02*
X0090117Y0023482D01*
X0090114Y0024481D02*
X0090167Y0024481D01*
X0089531Y0025479D02*
X0090833Y0025479D01*
X0090676Y0026478D02*
X0089690Y0026478D01*
X0090117Y0027476D02*
X0090167Y0027476D01*
X0090167Y0028475D02*
X0090117Y0028475D01*
X0090117Y0029473D02*
X0090167Y0029473D01*
X0090167Y0030472D02*
X0090117Y0030472D01*
X0092442Y0032500D02*
X0063942Y0032500D01*
X0065512Y0034466D02*
X0067837Y0034466D01*
X0067374Y0039458D02*
X0066617Y0039458D01*
X0066617Y0040457D02*
X0067374Y0040457D01*
X0067374Y0041455D02*
X0066617Y0041455D01*
X0066617Y0042454D02*
X0067491Y0042454D01*
X0066400Y0043452D02*
X0080754Y0043452D01*
X0078598Y0037461D02*
X0075886Y0037461D01*
X0075886Y0036463D02*
X0078598Y0036463D01*
X0078598Y0035464D02*
X0075886Y0035464D01*
X0075423Y0034466D02*
X0079144Y0034466D01*
X0079334Y0028475D02*
X0071349Y0028475D01*
X0072218Y0027476D02*
X0078466Y0027476D01*
X0078074Y0026478D02*
X0072610Y0026478D01*
X0072610Y0025479D02*
X0078074Y0025479D01*
X0080442Y0022700D02*
X0083842Y0019300D01*
X0092442Y0019300D01*
X0093042Y0019900D01*
X0093042Y0022700D01*
X0112142Y0022700D01*
X0118142Y0028700D01*
X0118142Y0044600D01*
X0115542Y0047200D01*
X0115542Y0043200D02*
X0115642Y0043100D01*
X0115642Y0035400D01*
X0109342Y0029100D01*
X0093042Y0029100D01*
X0093042Y0031900D01*
X0092442Y0032500D01*
X0094020Y0033467D02*
X0111163Y0033467D01*
X0110165Y0032469D02*
X0094842Y0032469D01*
X0094242Y0033246D02*
X0094242Y0033246D01*
X0095660Y0031470D02*
X0109166Y0031470D01*
X0107793Y0027300D02*
X0107474Y0026531D01*
X0107474Y0025269D01*
X0107793Y0024500D01*
X0101691Y0024500D01*
X0102010Y0025269D01*
X0102010Y0026531D01*
X0101691Y0027300D01*
X0107793Y0027300D01*
X0107474Y0026478D02*
X0102010Y0026478D01*
X0102010Y0025479D02*
X0107474Y0025479D01*
X0113473Y0021485D02*
X0120522Y0021485D01*
X0120522Y0021484D02*
X0121226Y0020781D01*
X0122145Y0020400D01*
X0123139Y0020400D01*
X0123927Y0020726D01*
X0124629Y0020025D01*
X0128855Y0020025D01*
X0129617Y0020787D01*
X0129617Y0025013D01*
X0128855Y0025775D01*
X0124629Y0025775D01*
X0123927Y0025074D01*
X0123139Y0025400D01*
X0122145Y0025400D01*
X0121226Y0025019D01*
X0120522Y0024316D01*
X0120142Y0023397D01*
X0120142Y0022403D01*
X0120522Y0021484D01*
X0120142Y0022484D02*
X0114471Y0022484D01*
X0115470Y0023482D02*
X0120177Y0023482D01*
X0120687Y0024481D02*
X0116468Y0024481D01*
X0117467Y0025479D02*
X0124333Y0025479D01*
X0122642Y0022900D02*
X0126742Y0022900D01*
X0129316Y0020487D02*
X0130167Y0020487D01*
X0129867Y0021485D02*
X0129617Y0021485D01*
X0129617Y0022484D02*
X0129867Y0022484D01*
X0129867Y0023482D02*
X0129617Y0023482D01*
X0129617Y0024481D02*
X0129867Y0024481D01*
X0130333Y0025479D02*
X0129151Y0025479D01*
X0130286Y0026478D02*
X0118465Y0026478D01*
X0119464Y0027476D02*
X0129288Y0027476D01*
X0128289Y0028475D02*
X0119942Y0028475D01*
X0121557Y0029473D02*
X0127291Y0029473D01*
X0124167Y0020487D02*
X0123348Y0020487D01*
X0121935Y0020487D02*
X0095816Y0020487D01*
X0095663Y0025479D02*
X0095251Y0025479D01*
X0095408Y0026478D02*
X0095663Y0026478D01*
X0090167Y0021485D02*
X0090117Y0021485D01*
X0086754Y0022484D02*
X0083204Y0022484D01*
X0083317Y0023482D02*
X0083967Y0023482D01*
X0084421Y0025479D02*
X0084553Y0025479D01*
X0072130Y0040457D02*
X0071130Y0040457D01*
X0071130Y0041455D02*
X0072130Y0041455D01*
X0072130Y0042454D02*
X0071130Y0042454D01*
X0068529Y0044451D02*
X0065881Y0044451D01*
X0063829Y0043452D02*
X0063254Y0043452D01*
X0063254Y0042454D02*
X0063829Y0042454D01*
X0063829Y0041455D02*
X0063254Y0041455D01*
X0063254Y0040457D02*
X0063829Y0040457D01*
X0063829Y0039458D02*
X0063254Y0039458D01*
X0063254Y0038460D02*
X0063829Y0038460D01*
X0060911Y0038460D02*
X0060854Y0038460D01*
X0060467Y0042454D02*
X0060335Y0042454D01*
X0060684Y0043452D02*
X0059337Y0043452D01*
X0057557Y0045449D02*
X0051641Y0045449D01*
X0051474Y0045851D02*
X0050495Y0046831D01*
X0049215Y0047361D01*
X0043468Y0047361D01*
X0042189Y0046831D01*
X0041210Y0045851D01*
X0040680Y0044572D01*
X0040680Y0043187D01*
X0041210Y0041908D01*
X0042189Y0040928D01*
X0043468Y0040398D01*
X0049215Y0040398D01*
X0050495Y0040928D01*
X0051474Y0041908D01*
X0052004Y0043187D01*
X0052004Y0044572D01*
X0051474Y0045851D01*
X0050878Y0046448D02*
X0057006Y0046448D01*
X0056942Y0047446D02*
X0039842Y0047446D01*
X0039842Y0046448D02*
X0041806Y0046448D01*
X0041043Y0045449D02*
X0039842Y0045449D01*
X0039842Y0044451D02*
X0040680Y0044451D01*
X0040680Y0043452D02*
X0039842Y0043452D01*
X0039842Y0042454D02*
X0040983Y0042454D01*
X0041662Y0041455D02*
X0039842Y0041455D01*
X0039842Y0040457D02*
X0043327Y0040457D01*
X0039842Y0039458D02*
X0052817Y0039458D01*
X0052817Y0040457D02*
X0049356Y0040457D01*
X0051022Y0041455D02*
X0053102Y0041455D01*
X0053608Y0042454D02*
X0051700Y0042454D01*
X0052004Y0043452D02*
X0054606Y0043452D01*
X0052004Y0044451D02*
X0061203Y0044451D01*
X0057293Y0048445D02*
X0039842Y0048445D01*
X0039842Y0049443D02*
X0055866Y0049443D01*
X0054867Y0050442D02*
X0039842Y0050442D01*
X0039842Y0051440D02*
X0053869Y0051440D01*
X0053089Y0038460D02*
X0039842Y0038460D01*
X0039842Y0037461D02*
X0053578Y0037461D01*
X0054576Y0036463D02*
X0039842Y0036463D01*
X0039842Y0025479D02*
X0062460Y0025479D01*
X0061629Y0024481D02*
X0039842Y0024481D01*
X0039842Y0023482D02*
X0054321Y0023482D01*
X0054618Y0023779D02*
X0053450Y0022611D01*
X0052817Y0021084D01*
X0052817Y0019431D01*
X0053450Y0017904D01*
X0054618Y0016736D01*
X0056145Y0016103D01*
X0057798Y0016103D01*
X0059325Y0016736D01*
X0060494Y0017904D01*
X0061126Y0019431D01*
X0061126Y0021084D01*
X0060494Y0022611D01*
X0059325Y0023779D01*
X0057798Y0024412D01*
X0056145Y0024412D01*
X0054618Y0023779D01*
X0053397Y0022484D02*
X0039842Y0022484D01*
X0039842Y0021485D02*
X0052984Y0021485D01*
X0052817Y0020487D02*
X0039842Y0020487D01*
X0039842Y0019488D02*
X0042711Y0019488D01*
X0041407Y0018490D02*
X0039842Y0018490D01*
X0039842Y0017491D02*
X0040878Y0017491D01*
X0040680Y0016493D02*
X0039842Y0016493D01*
X0039842Y0015494D02*
X0040735Y0015494D01*
X0041149Y0014496D02*
X0039842Y0014496D01*
X0039842Y0013497D02*
X0042061Y0013497D01*
X0049972Y0019488D02*
X0052817Y0019488D01*
X0053207Y0018490D02*
X0051277Y0018490D01*
X0051806Y0017491D02*
X0053863Y0017491D01*
X0055205Y0016493D02*
X0052004Y0016493D01*
X0051948Y0015494D02*
X0061142Y0015494D01*
X0061142Y0014496D02*
X0051535Y0014496D01*
X0050622Y0013497D02*
X0061142Y0013497D01*
X0061142Y0016493D02*
X0058738Y0016493D01*
X0060080Y0017491D02*
X0061142Y0017491D01*
X0061142Y0018490D02*
X0060736Y0018490D01*
X0061126Y0019488D02*
X0061142Y0019488D01*
X0061126Y0020487D02*
X0062029Y0020487D01*
X0062095Y0021485D02*
X0060960Y0021485D01*
X0060546Y0022484D02*
X0061478Y0022484D01*
X0061353Y0023482D02*
X0059622Y0023482D01*
X0063942Y0023300D02*
X0063942Y0016500D01*
X0072341Y0057432D02*
X0075279Y0057432D01*
X0072624Y0058430D02*
X0072341Y0058430D01*
X0072341Y0059429D02*
X0072367Y0059429D01*
X0072341Y0060427D02*
X0072367Y0060427D01*
X0072341Y0061426D02*
X0072367Y0061426D01*
X0072341Y0062424D02*
X0072367Y0062424D01*
X0072341Y0063423D02*
X0072876Y0063423D01*
X0072833Y0064421D02*
X0072341Y0064421D01*
X0072341Y0065420D02*
X0072367Y0065420D01*
X0072341Y0066418D02*
X0072367Y0066418D01*
X0072341Y0067417D02*
X0072367Y0067417D01*
X0072341Y0068415D02*
X0072367Y0068415D01*
X0072341Y0069414D02*
X0072667Y0069414D01*
X0072341Y0070412D02*
X0073342Y0070412D01*
X0073342Y0071411D02*
X0071885Y0071411D01*
X0077142Y0071411D02*
X0077342Y0071411D01*
X0077462Y0070412D02*
X0077142Y0070412D01*
X0077816Y0069414D02*
X0078093Y0069414D01*
X0078117Y0068415D02*
X0078367Y0068415D01*
X0078367Y0067417D02*
X0078117Y0067417D01*
X0078117Y0066418D02*
X0078367Y0066418D01*
X0078367Y0065420D02*
X0078117Y0065420D01*
X0077651Y0064421D02*
X0078833Y0064421D01*
X0078593Y0063423D02*
X0077607Y0063423D01*
X0078117Y0062424D02*
X0078167Y0062424D01*
X0078167Y0061426D02*
X0078117Y0061426D01*
X0078117Y0060427D02*
X0078167Y0060427D01*
X0078167Y0059429D02*
X0078117Y0059429D01*
X0077860Y0058430D02*
X0078394Y0058430D01*
X0077637Y0072409D02*
X0077142Y0072409D01*
X0077142Y0073408D02*
X0077942Y0073408D01*
X0077942Y0074406D02*
X0077142Y0074406D01*
X0077142Y0075405D02*
X0077942Y0075405D01*
X0077942Y0076403D02*
X0077142Y0076403D01*
X0077142Y0077402D02*
X0077942Y0077402D01*
X0077942Y0078400D02*
X0077142Y0078400D01*
X0077142Y0079399D02*
X0077942Y0079399D01*
X0077942Y0080397D02*
X0077142Y0080397D01*
X0077142Y0081396D02*
X0077942Y0081396D01*
X0077942Y0082394D02*
X0077142Y0082394D01*
X0077142Y0083393D02*
X0077942Y0083393D01*
X0077942Y0084391D02*
X0077654Y0084391D01*
X0077742Y0085390D02*
X0077942Y0085390D01*
X0077942Y0086388D02*
X0077414Y0086388D01*
X0077942Y0087387D02*
X0076254Y0087387D01*
X0076157Y0088385D02*
X0077942Y0088385D01*
X0077942Y0089384D02*
X0076813Y0089384D01*
X0077346Y0090382D02*
X0077942Y0090382D01*
X0077942Y0091381D02*
X0077775Y0091381D01*
X0083542Y0086388D02*
X0092167Y0086388D01*
X0092177Y0085390D02*
X0083542Y0085390D01*
X0086142Y0081900D02*
X0105242Y0062800D01*
X0132742Y0062800D01*
X0133842Y0063900D01*
X0136355Y0061426D02*
X0137328Y0061426D01*
X0136967Y0062424D02*
X0136717Y0062424D01*
X0136717Y0063423D02*
X0136967Y0063423D01*
X0136967Y0064421D02*
X0136717Y0064421D01*
X0136717Y0065420D02*
X0136967Y0065420D01*
X0139842Y0063900D02*
X0144742Y0063900D01*
X0146801Y0062424D02*
X0147394Y0062424D01*
X0148392Y0061426D02*
X0145301Y0061426D01*
X0144183Y0061426D02*
X0142355Y0061426D01*
X0141584Y0058430D02*
X0141100Y0058430D01*
X0141217Y0057432D02*
X0141467Y0057432D01*
X0141467Y0056433D02*
X0141217Y0056433D01*
X0141217Y0055434D02*
X0141467Y0055434D01*
X0141467Y0054436D02*
X0141217Y0054436D01*
X0140567Y0053437D02*
X0142116Y0053437D01*
X0135584Y0058430D02*
X0109895Y0058430D01*
X0108797Y0054436D02*
X0099121Y0054436D01*
X0099121Y0055434D02*
X0107799Y0055434D01*
X0107879Y0055354D02*
X0107879Y0055354D01*
X0106800Y0056433D02*
X0098788Y0056433D01*
X0098003Y0057432D02*
X0105802Y0057432D01*
X0109830Y0078400D02*
X0110771Y0078400D01*
X0110367Y0079399D02*
X0110317Y0079399D01*
X0110317Y0080397D02*
X0110367Y0080397D01*
X0110367Y0081396D02*
X0110317Y0081396D01*
X0110317Y0082394D02*
X0110367Y0082394D01*
X0110607Y0083393D02*
X0110037Y0083393D01*
X0109621Y0084391D02*
X0111004Y0084391D01*
X0110377Y0085390D02*
X0110317Y0085390D01*
X0110317Y0086388D02*
X0110367Y0086388D01*
X0110317Y0087387D02*
X0113154Y0087387D01*
X0113154Y0087487D02*
X0110367Y0087487D01*
X0110367Y0088972D01*
X0110469Y0089354D01*
X0110667Y0089696D01*
X0110946Y0089975D01*
X0111288Y0090173D01*
X0111670Y0090275D01*
X0113154Y0090275D01*
X0113154Y0087487D01*
X0113154Y0088385D02*
X0113729Y0088385D01*
X0113729Y0089384D02*
X0113154Y0089384D01*
X0113154Y0090382D02*
X0113729Y0090382D01*
X0113729Y0091381D02*
X0113154Y0091381D01*
X0113154Y0092379D02*
X0113729Y0092379D01*
X0111456Y0090382D02*
X0109342Y0090382D01*
X0110246Y0089384D02*
X0110487Y0089384D01*
X0110367Y0088385D02*
X0110317Y0088385D01*
X0110317Y0091381D02*
X0110433Y0091381D01*
X0110367Y0092379D02*
X0110317Y0092379D01*
X0115879Y0084391D02*
X0117598Y0084391D01*
X0116847Y0083393D02*
X0116276Y0083393D01*
X0116517Y0082394D02*
X0116642Y0082394D01*
X0116517Y0081396D02*
X0116852Y0081396D01*
X0148973Y0104362D02*
X0168842Y0104362D01*
X0168842Y0105360D02*
X0149011Y0105360D01*
X0149011Y0106359D02*
X0168842Y0106359D01*
X0168842Y0107357D02*
X0149011Y0107357D01*
X0149011Y0108356D02*
X0168842Y0108356D01*
X0168842Y0109354D02*
X0149011Y0109354D01*
X0106175Y0126329D02*
X0105113Y0126329D01*
X0104916Y0127327D02*
X0106057Y0127327D01*
X0106057Y0128326D02*
X0104523Y0128326D01*
X0104523Y0129324D02*
X0106057Y0129324D01*
X0106057Y0130323D02*
X0104523Y0130323D01*
X0077942Y0112350D02*
X0046042Y0112350D01*
X0046042Y0113348D02*
X0077307Y0113348D01*
X0059191Y0109354D02*
X0046042Y0109354D01*
X0046042Y0108356D02*
X0057286Y0108356D01*
X0055903Y0107357D02*
X0046042Y0107357D01*
X0046042Y0106359D02*
X0054801Y0106359D01*
X0053902Y0105360D02*
X0046042Y0105360D01*
X0046042Y0104362D02*
X0053157Y0104362D01*
X0052536Y0103363D02*
X0046042Y0103363D01*
X0046042Y0102365D02*
X0052017Y0102365D01*
X0051604Y0101366D02*
X0046042Y0101366D01*
X0046042Y0100368D02*
X0051285Y0100368D01*
X0051038Y0099369D02*
X0046042Y0099369D01*
X0046042Y0098370D02*
X0050858Y0098370D01*
X0050760Y0097372D02*
X0046042Y0097372D01*
X0055468Y0153289D02*
X0056767Y0153289D01*
X0062410Y0159280D02*
X0062708Y0159280D01*
X0062567Y0160278D02*
X0062517Y0160278D01*
X0068576Y0159280D02*
X0069467Y0159280D01*
X0069467Y0160278D02*
X0068717Y0160278D01*
X0049426Y0160278D02*
X0048458Y0160278D01*
X0048458Y0161277D02*
X0049426Y0161277D01*
X0049426Y0162275D02*
X0048458Y0162275D01*
X0048458Y0165271D02*
X0049426Y0165271D01*
X0049426Y0166269D02*
X0048458Y0166269D01*
X0048458Y0167268D02*
X0049426Y0167268D01*
X0049426Y0168266D02*
X0048458Y0168266D01*
X0136659Y0025479D02*
X0138533Y0025479D01*
X0143351Y0025479D02*
X0144533Y0025479D01*
X0144067Y0024481D02*
X0143817Y0024481D01*
X0143817Y0023482D02*
X0144067Y0023482D01*
X0144067Y0022484D02*
X0143817Y0022484D01*
X0143817Y0021485D02*
X0144067Y0021485D01*
X0144367Y0020487D02*
X0143516Y0020487D01*
X0138367Y0020487D02*
X0137548Y0020487D01*
X0136135Y0020487D02*
X0135316Y0020487D01*
X0149516Y0020487D02*
X0150335Y0020487D01*
X0153162Y0021485D02*
X0159873Y0021485D01*
X0161184Y0022484D02*
X0153542Y0022484D01*
X0153507Y0023482D02*
X0161242Y0023482D01*
X0159990Y0024481D02*
X0152997Y0024481D01*
D30*
X0063942Y0023300D03*
X0078242Y0167500D03*
D31*
X0072642Y0167500D03*
X0079242Y0159700D03*
X0079242Y0155700D03*
X0076442Y0148900D03*
X0076442Y0142900D03*
X0092542Y0126000D03*
X0095342Y0133700D03*
X0105342Y0128900D03*
X0108742Y0123900D03*
X0113742Y0123900D03*
X0116942Y0123800D03*
X0111242Y0114700D03*
X0107342Y0114600D03*
X0108142Y0101300D03*
X0113742Y0098300D03*
X0120142Y0095500D03*
X0122642Y0092800D03*
X0121842Y0101600D03*
X0119142Y0082400D03*
X0115842Y0069500D03*
X0112542Y0065500D03*
X0105342Y0069500D03*
X0094942Y0066100D03*
X0084942Y0071200D03*
X0085642Y0075400D03*
X0086142Y0081900D03*
X0079842Y0071200D03*
X0075242Y0085100D03*
X0086142Y0099400D03*
X0095042Y0112100D03*
X0081642Y0115300D03*
X0075942Y0055000D03*
X0065442Y0051200D03*
X0059442Y0047100D03*
X0063942Y0032500D03*
X0063942Y0028500D03*
X0075342Y0025900D03*
X0079442Y0020200D03*
X0089142Y0037000D03*
X0104742Y0025900D03*
X0115542Y0043200D03*
X0115542Y0047200D03*
X0124542Y0040500D03*
X0121542Y0036100D03*
X0120642Y0031800D03*
X0122642Y0022900D03*
X0136842Y0022900D03*
X0151042Y0022900D03*
X0149242Y0056200D03*
X0144742Y0063900D03*
X0150242Y0096900D03*
X0142742Y0114000D03*
D32*
X0145342Y0101600D02*
X0126463Y0101600D01*
X0126463Y0097678D01*
X0126642Y0097500D01*
X0126463Y0101600D02*
X0126463Y0107115D01*
X0126648Y0107300D01*
X0126463Y0101600D02*
X0121842Y0101600D01*
X0107442Y0093400D02*
X0106970Y0093400D01*
X0107442Y0092928D01*
X0107442Y0087200D01*
X0106970Y0087200D01*
X0107442Y0086728D01*
X0107442Y0081000D01*
X0107442Y0074900D01*
X0107342Y0074800D01*
X0107442Y0074900D02*
X0113242Y0074900D01*
X0119142Y0080800D01*
X0119142Y0082400D01*
X0107442Y0081000D02*
X0101242Y0081000D01*
X0101242Y0086935D01*
X0101506Y0087200D01*
X0106970Y0087200D01*
X0101506Y0087200D02*
X0101242Y0087200D01*
X0101242Y0093240D01*
X0101402Y0093400D01*
X0101242Y0093400D01*
X0101402Y0093400D02*
X0106970Y0093400D01*
X0084942Y0071200D02*
X0081642Y0074600D01*
X0081642Y0115300D01*
X0081642Y0127700D01*
X0079842Y0113500D02*
X0079842Y0071200D01*
X0081242Y0067000D02*
X0082142Y0066100D01*
X0094942Y0066100D01*
X0082654Y0048700D02*
X0082654Y0039442D01*
X0084312Y0041100D01*
X0090742Y0041100D01*
X0089142Y0037000D02*
X0084354Y0037000D01*
X0082654Y0038700D01*
X0082654Y0039442D01*
X0071630Y0048700D02*
X0070030Y0047100D01*
X0063542Y0047100D01*
X0059442Y0047100D01*
X0056796Y0051200D02*
X0042821Y0065175D01*
X0042342Y0065175D01*
X0042342Y0144210D01*
X0048942Y0150810D01*
X0053332Y0155200D01*
X0059642Y0155200D01*
X0059642Y0161500D01*
X0059642Y0166979D01*
X0059221Y0167400D01*
X0069063Y0167400D02*
X0072542Y0167400D01*
X0072642Y0167500D01*
X0072342Y0160700D02*
X0073342Y0159700D01*
X0079242Y0159700D01*
X0079242Y0155700D02*
X0078188Y0155700D01*
X0074414Y0151925D01*
X0069059Y0151925D01*
X0066034Y0148900D01*
X0059742Y0148900D01*
X0044142Y0133300D01*
X0044142Y0066400D01*
X0055542Y0055000D01*
X0075942Y0055000D01*
X0075242Y0060800D02*
X0075242Y0067000D01*
X0075242Y0085100D01*
X0079842Y0113500D02*
X0064742Y0128600D01*
X0064742Y0128883D01*
X0072342Y0142900D02*
X0076442Y0142900D01*
X0076442Y0148900D02*
X0072342Y0148900D01*
X0066042Y0148900D02*
X0066034Y0148900D01*
X0145342Y0101600D02*
X0150142Y0096800D01*
X0150242Y0096900D01*
X0129442Y0040500D02*
X0124542Y0040500D01*
X0127651Y0031800D02*
X0120642Y0031800D01*
X0127651Y0031800D02*
X0136551Y0022900D01*
X0132742Y0022900D01*
X0136551Y0022900D02*
X0136842Y0022900D01*
X0140942Y0022900D01*
X0065442Y0051200D02*
X0056796Y0051200D01*
M02*
