G75*
%MOIN*%
%OFA0B0*%
%FSLAX25Y25*%
%IPPOS*%
%LPD*%
%AMOC8*
5,1,8,0,0,1.08239X$1,22.5*
%
%ADD10C,0.00000*%
%ADD11R,0.03150X0.03150*%
%ADD12R,0.03346X0.01969*%
%ADD13R,0.04724X0.01181*%
%ADD14R,0.01181X0.04724*%
%ADD15R,0.03937X0.05512*%
%ADD16C,0.01535*%
%ADD17R,0.07600X0.21000*%
%ADD18R,0.06693X0.03150*%
%ADD19R,0.05315X0.01575*%
%ADD20R,0.07480X0.05906*%
%ADD21R,0.07480X0.07087*%
%ADD22R,0.01575X0.04724*%
%ADD23R,0.04724X0.01575*%
%ADD24R,0.03937X0.04528*%
%ADD25C,0.00100*%
%ADD26R,0.02769X0.01181*%
D10*
X0038342Y0011500D02*
X0038342Y0171500D01*
X0170342Y0171500D01*
X0170342Y0011500D01*
X0038342Y0011500D01*
X0067763Y0025900D02*
X0067765Y0025981D01*
X0067771Y0026063D01*
X0067781Y0026144D01*
X0067795Y0026224D01*
X0067812Y0026303D01*
X0067834Y0026382D01*
X0067859Y0026459D01*
X0067888Y0026536D01*
X0067921Y0026610D01*
X0067958Y0026683D01*
X0067997Y0026754D01*
X0068041Y0026823D01*
X0068087Y0026890D01*
X0068137Y0026954D01*
X0068190Y0027016D01*
X0068246Y0027076D01*
X0068304Y0027132D01*
X0068366Y0027186D01*
X0068430Y0027237D01*
X0068496Y0027284D01*
X0068564Y0027328D01*
X0068635Y0027369D01*
X0068707Y0027406D01*
X0068782Y0027440D01*
X0068857Y0027470D01*
X0068935Y0027496D01*
X0069013Y0027519D01*
X0069092Y0027537D01*
X0069172Y0027552D01*
X0069253Y0027563D01*
X0069334Y0027570D01*
X0069416Y0027573D01*
X0069497Y0027572D01*
X0069578Y0027567D01*
X0069659Y0027558D01*
X0069740Y0027545D01*
X0069820Y0027528D01*
X0069898Y0027508D01*
X0069976Y0027483D01*
X0070053Y0027455D01*
X0070128Y0027423D01*
X0070201Y0027388D01*
X0070272Y0027349D01*
X0070342Y0027306D01*
X0070409Y0027261D01*
X0070475Y0027212D01*
X0070537Y0027160D01*
X0070597Y0027104D01*
X0070654Y0027046D01*
X0070709Y0026986D01*
X0070760Y0026922D01*
X0070808Y0026857D01*
X0070853Y0026789D01*
X0070895Y0026719D01*
X0070933Y0026647D01*
X0070968Y0026573D01*
X0070999Y0026498D01*
X0071026Y0026421D01*
X0071049Y0026343D01*
X0071069Y0026264D01*
X0071085Y0026184D01*
X0071097Y0026103D01*
X0071105Y0026022D01*
X0071109Y0025941D01*
X0071109Y0025859D01*
X0071105Y0025778D01*
X0071097Y0025697D01*
X0071085Y0025616D01*
X0071069Y0025536D01*
X0071049Y0025457D01*
X0071026Y0025379D01*
X0070999Y0025302D01*
X0070968Y0025227D01*
X0070933Y0025153D01*
X0070895Y0025081D01*
X0070853Y0025011D01*
X0070808Y0024943D01*
X0070760Y0024878D01*
X0070709Y0024814D01*
X0070654Y0024754D01*
X0070597Y0024696D01*
X0070537Y0024640D01*
X0070475Y0024588D01*
X0070409Y0024539D01*
X0070342Y0024494D01*
X0070273Y0024451D01*
X0070201Y0024412D01*
X0070128Y0024377D01*
X0070053Y0024345D01*
X0069976Y0024317D01*
X0069898Y0024292D01*
X0069820Y0024272D01*
X0069740Y0024255D01*
X0069659Y0024242D01*
X0069578Y0024233D01*
X0069497Y0024228D01*
X0069416Y0024227D01*
X0069334Y0024230D01*
X0069253Y0024237D01*
X0069172Y0024248D01*
X0069092Y0024263D01*
X0069013Y0024281D01*
X0068935Y0024304D01*
X0068857Y0024330D01*
X0068782Y0024360D01*
X0068707Y0024394D01*
X0068635Y0024431D01*
X0068564Y0024472D01*
X0068496Y0024516D01*
X0068430Y0024563D01*
X0068366Y0024614D01*
X0068304Y0024668D01*
X0068246Y0024724D01*
X0068190Y0024784D01*
X0068137Y0024846D01*
X0068087Y0024910D01*
X0068041Y0024977D01*
X0067997Y0025046D01*
X0067958Y0025117D01*
X0067921Y0025190D01*
X0067888Y0025264D01*
X0067859Y0025341D01*
X0067834Y0025418D01*
X0067812Y0025497D01*
X0067795Y0025576D01*
X0067781Y0025656D01*
X0067771Y0025737D01*
X0067765Y0025819D01*
X0067763Y0025900D01*
X0079574Y0025900D02*
X0079576Y0025981D01*
X0079582Y0026063D01*
X0079592Y0026144D01*
X0079606Y0026224D01*
X0079623Y0026303D01*
X0079645Y0026382D01*
X0079670Y0026459D01*
X0079699Y0026536D01*
X0079732Y0026610D01*
X0079769Y0026683D01*
X0079808Y0026754D01*
X0079852Y0026823D01*
X0079898Y0026890D01*
X0079948Y0026954D01*
X0080001Y0027016D01*
X0080057Y0027076D01*
X0080115Y0027132D01*
X0080177Y0027186D01*
X0080241Y0027237D01*
X0080307Y0027284D01*
X0080375Y0027328D01*
X0080446Y0027369D01*
X0080518Y0027406D01*
X0080593Y0027440D01*
X0080668Y0027470D01*
X0080746Y0027496D01*
X0080824Y0027519D01*
X0080903Y0027537D01*
X0080983Y0027552D01*
X0081064Y0027563D01*
X0081145Y0027570D01*
X0081227Y0027573D01*
X0081308Y0027572D01*
X0081389Y0027567D01*
X0081470Y0027558D01*
X0081551Y0027545D01*
X0081631Y0027528D01*
X0081709Y0027508D01*
X0081787Y0027483D01*
X0081864Y0027455D01*
X0081939Y0027423D01*
X0082012Y0027388D01*
X0082083Y0027349D01*
X0082153Y0027306D01*
X0082220Y0027261D01*
X0082286Y0027212D01*
X0082348Y0027160D01*
X0082408Y0027104D01*
X0082465Y0027046D01*
X0082520Y0026986D01*
X0082571Y0026922D01*
X0082619Y0026857D01*
X0082664Y0026789D01*
X0082706Y0026719D01*
X0082744Y0026647D01*
X0082779Y0026573D01*
X0082810Y0026498D01*
X0082837Y0026421D01*
X0082860Y0026343D01*
X0082880Y0026264D01*
X0082896Y0026184D01*
X0082908Y0026103D01*
X0082916Y0026022D01*
X0082920Y0025941D01*
X0082920Y0025859D01*
X0082916Y0025778D01*
X0082908Y0025697D01*
X0082896Y0025616D01*
X0082880Y0025536D01*
X0082860Y0025457D01*
X0082837Y0025379D01*
X0082810Y0025302D01*
X0082779Y0025227D01*
X0082744Y0025153D01*
X0082706Y0025081D01*
X0082664Y0025011D01*
X0082619Y0024943D01*
X0082571Y0024878D01*
X0082520Y0024814D01*
X0082465Y0024754D01*
X0082408Y0024696D01*
X0082348Y0024640D01*
X0082286Y0024588D01*
X0082220Y0024539D01*
X0082153Y0024494D01*
X0082084Y0024451D01*
X0082012Y0024412D01*
X0081939Y0024377D01*
X0081864Y0024345D01*
X0081787Y0024317D01*
X0081709Y0024292D01*
X0081631Y0024272D01*
X0081551Y0024255D01*
X0081470Y0024242D01*
X0081389Y0024233D01*
X0081308Y0024228D01*
X0081227Y0024227D01*
X0081145Y0024230D01*
X0081064Y0024237D01*
X0080983Y0024248D01*
X0080903Y0024263D01*
X0080824Y0024281D01*
X0080746Y0024304D01*
X0080668Y0024330D01*
X0080593Y0024360D01*
X0080518Y0024394D01*
X0080446Y0024431D01*
X0080375Y0024472D01*
X0080307Y0024516D01*
X0080241Y0024563D01*
X0080177Y0024614D01*
X0080115Y0024668D01*
X0080057Y0024724D01*
X0080001Y0024784D01*
X0079948Y0024846D01*
X0079898Y0024910D01*
X0079852Y0024977D01*
X0079808Y0025046D01*
X0079769Y0025117D01*
X0079732Y0025190D01*
X0079699Y0025264D01*
X0079670Y0025341D01*
X0079645Y0025418D01*
X0079623Y0025497D01*
X0079606Y0025576D01*
X0079592Y0025656D01*
X0079582Y0025737D01*
X0079576Y0025819D01*
X0079574Y0025900D01*
X0097163Y0025900D02*
X0097165Y0025981D01*
X0097171Y0026063D01*
X0097181Y0026144D01*
X0097195Y0026224D01*
X0097212Y0026303D01*
X0097234Y0026382D01*
X0097259Y0026459D01*
X0097288Y0026536D01*
X0097321Y0026610D01*
X0097358Y0026683D01*
X0097397Y0026754D01*
X0097441Y0026823D01*
X0097487Y0026890D01*
X0097537Y0026954D01*
X0097590Y0027016D01*
X0097646Y0027076D01*
X0097704Y0027132D01*
X0097766Y0027186D01*
X0097830Y0027237D01*
X0097896Y0027284D01*
X0097964Y0027328D01*
X0098035Y0027369D01*
X0098107Y0027406D01*
X0098182Y0027440D01*
X0098257Y0027470D01*
X0098335Y0027496D01*
X0098413Y0027519D01*
X0098492Y0027537D01*
X0098572Y0027552D01*
X0098653Y0027563D01*
X0098734Y0027570D01*
X0098816Y0027573D01*
X0098897Y0027572D01*
X0098978Y0027567D01*
X0099059Y0027558D01*
X0099140Y0027545D01*
X0099220Y0027528D01*
X0099298Y0027508D01*
X0099376Y0027483D01*
X0099453Y0027455D01*
X0099528Y0027423D01*
X0099601Y0027388D01*
X0099672Y0027349D01*
X0099742Y0027306D01*
X0099809Y0027261D01*
X0099875Y0027212D01*
X0099937Y0027160D01*
X0099997Y0027104D01*
X0100054Y0027046D01*
X0100109Y0026986D01*
X0100160Y0026922D01*
X0100208Y0026857D01*
X0100253Y0026789D01*
X0100295Y0026719D01*
X0100333Y0026647D01*
X0100368Y0026573D01*
X0100399Y0026498D01*
X0100426Y0026421D01*
X0100449Y0026343D01*
X0100469Y0026264D01*
X0100485Y0026184D01*
X0100497Y0026103D01*
X0100505Y0026022D01*
X0100509Y0025941D01*
X0100509Y0025859D01*
X0100505Y0025778D01*
X0100497Y0025697D01*
X0100485Y0025616D01*
X0100469Y0025536D01*
X0100449Y0025457D01*
X0100426Y0025379D01*
X0100399Y0025302D01*
X0100368Y0025227D01*
X0100333Y0025153D01*
X0100295Y0025081D01*
X0100253Y0025011D01*
X0100208Y0024943D01*
X0100160Y0024878D01*
X0100109Y0024814D01*
X0100054Y0024754D01*
X0099997Y0024696D01*
X0099937Y0024640D01*
X0099875Y0024588D01*
X0099809Y0024539D01*
X0099742Y0024494D01*
X0099673Y0024451D01*
X0099601Y0024412D01*
X0099528Y0024377D01*
X0099453Y0024345D01*
X0099376Y0024317D01*
X0099298Y0024292D01*
X0099220Y0024272D01*
X0099140Y0024255D01*
X0099059Y0024242D01*
X0098978Y0024233D01*
X0098897Y0024228D01*
X0098816Y0024227D01*
X0098734Y0024230D01*
X0098653Y0024237D01*
X0098572Y0024248D01*
X0098492Y0024263D01*
X0098413Y0024281D01*
X0098335Y0024304D01*
X0098257Y0024330D01*
X0098182Y0024360D01*
X0098107Y0024394D01*
X0098035Y0024431D01*
X0097964Y0024472D01*
X0097896Y0024516D01*
X0097830Y0024563D01*
X0097766Y0024614D01*
X0097704Y0024668D01*
X0097646Y0024724D01*
X0097590Y0024784D01*
X0097537Y0024846D01*
X0097487Y0024910D01*
X0097441Y0024977D01*
X0097397Y0025046D01*
X0097358Y0025117D01*
X0097321Y0025190D01*
X0097288Y0025264D01*
X0097259Y0025341D01*
X0097234Y0025418D01*
X0097212Y0025497D01*
X0097195Y0025576D01*
X0097181Y0025656D01*
X0097171Y0025737D01*
X0097165Y0025819D01*
X0097163Y0025900D01*
X0108974Y0025900D02*
X0108976Y0025981D01*
X0108982Y0026063D01*
X0108992Y0026144D01*
X0109006Y0026224D01*
X0109023Y0026303D01*
X0109045Y0026382D01*
X0109070Y0026459D01*
X0109099Y0026536D01*
X0109132Y0026610D01*
X0109169Y0026683D01*
X0109208Y0026754D01*
X0109252Y0026823D01*
X0109298Y0026890D01*
X0109348Y0026954D01*
X0109401Y0027016D01*
X0109457Y0027076D01*
X0109515Y0027132D01*
X0109577Y0027186D01*
X0109641Y0027237D01*
X0109707Y0027284D01*
X0109775Y0027328D01*
X0109846Y0027369D01*
X0109918Y0027406D01*
X0109993Y0027440D01*
X0110068Y0027470D01*
X0110146Y0027496D01*
X0110224Y0027519D01*
X0110303Y0027537D01*
X0110383Y0027552D01*
X0110464Y0027563D01*
X0110545Y0027570D01*
X0110627Y0027573D01*
X0110708Y0027572D01*
X0110789Y0027567D01*
X0110870Y0027558D01*
X0110951Y0027545D01*
X0111031Y0027528D01*
X0111109Y0027508D01*
X0111187Y0027483D01*
X0111264Y0027455D01*
X0111339Y0027423D01*
X0111412Y0027388D01*
X0111483Y0027349D01*
X0111553Y0027306D01*
X0111620Y0027261D01*
X0111686Y0027212D01*
X0111748Y0027160D01*
X0111808Y0027104D01*
X0111865Y0027046D01*
X0111920Y0026986D01*
X0111971Y0026922D01*
X0112019Y0026857D01*
X0112064Y0026789D01*
X0112106Y0026719D01*
X0112144Y0026647D01*
X0112179Y0026573D01*
X0112210Y0026498D01*
X0112237Y0026421D01*
X0112260Y0026343D01*
X0112280Y0026264D01*
X0112296Y0026184D01*
X0112308Y0026103D01*
X0112316Y0026022D01*
X0112320Y0025941D01*
X0112320Y0025859D01*
X0112316Y0025778D01*
X0112308Y0025697D01*
X0112296Y0025616D01*
X0112280Y0025536D01*
X0112260Y0025457D01*
X0112237Y0025379D01*
X0112210Y0025302D01*
X0112179Y0025227D01*
X0112144Y0025153D01*
X0112106Y0025081D01*
X0112064Y0025011D01*
X0112019Y0024943D01*
X0111971Y0024878D01*
X0111920Y0024814D01*
X0111865Y0024754D01*
X0111808Y0024696D01*
X0111748Y0024640D01*
X0111686Y0024588D01*
X0111620Y0024539D01*
X0111553Y0024494D01*
X0111484Y0024451D01*
X0111412Y0024412D01*
X0111339Y0024377D01*
X0111264Y0024345D01*
X0111187Y0024317D01*
X0111109Y0024292D01*
X0111031Y0024272D01*
X0110951Y0024255D01*
X0110870Y0024242D01*
X0110789Y0024233D01*
X0110708Y0024228D01*
X0110627Y0024227D01*
X0110545Y0024230D01*
X0110464Y0024237D01*
X0110383Y0024248D01*
X0110303Y0024263D01*
X0110224Y0024281D01*
X0110146Y0024304D01*
X0110068Y0024330D01*
X0109993Y0024360D01*
X0109918Y0024394D01*
X0109846Y0024431D01*
X0109775Y0024472D01*
X0109707Y0024516D01*
X0109641Y0024563D01*
X0109577Y0024614D01*
X0109515Y0024668D01*
X0109457Y0024724D01*
X0109401Y0024784D01*
X0109348Y0024846D01*
X0109298Y0024910D01*
X0109252Y0024977D01*
X0109208Y0025046D01*
X0109169Y0025117D01*
X0109132Y0025190D01*
X0109099Y0025264D01*
X0109070Y0025341D01*
X0109045Y0025418D01*
X0109023Y0025497D01*
X0109006Y0025576D01*
X0108992Y0025656D01*
X0108982Y0025737D01*
X0108976Y0025819D01*
X0108974Y0025900D01*
X0094274Y0055000D02*
X0094276Y0055081D01*
X0094282Y0055163D01*
X0094292Y0055244D01*
X0094306Y0055324D01*
X0094323Y0055403D01*
X0094345Y0055482D01*
X0094370Y0055559D01*
X0094399Y0055636D01*
X0094432Y0055710D01*
X0094469Y0055783D01*
X0094508Y0055854D01*
X0094552Y0055923D01*
X0094598Y0055990D01*
X0094648Y0056054D01*
X0094701Y0056116D01*
X0094757Y0056176D01*
X0094815Y0056232D01*
X0094877Y0056286D01*
X0094941Y0056337D01*
X0095007Y0056384D01*
X0095075Y0056428D01*
X0095146Y0056469D01*
X0095218Y0056506D01*
X0095293Y0056540D01*
X0095368Y0056570D01*
X0095446Y0056596D01*
X0095524Y0056619D01*
X0095603Y0056637D01*
X0095683Y0056652D01*
X0095764Y0056663D01*
X0095845Y0056670D01*
X0095927Y0056673D01*
X0096008Y0056672D01*
X0096089Y0056667D01*
X0096170Y0056658D01*
X0096251Y0056645D01*
X0096331Y0056628D01*
X0096409Y0056608D01*
X0096487Y0056583D01*
X0096564Y0056555D01*
X0096639Y0056523D01*
X0096712Y0056488D01*
X0096783Y0056449D01*
X0096853Y0056406D01*
X0096920Y0056361D01*
X0096986Y0056312D01*
X0097048Y0056260D01*
X0097108Y0056204D01*
X0097165Y0056146D01*
X0097220Y0056086D01*
X0097271Y0056022D01*
X0097319Y0055957D01*
X0097364Y0055889D01*
X0097406Y0055819D01*
X0097444Y0055747D01*
X0097479Y0055673D01*
X0097510Y0055598D01*
X0097537Y0055521D01*
X0097560Y0055443D01*
X0097580Y0055364D01*
X0097596Y0055284D01*
X0097608Y0055203D01*
X0097616Y0055122D01*
X0097620Y0055041D01*
X0097620Y0054959D01*
X0097616Y0054878D01*
X0097608Y0054797D01*
X0097596Y0054716D01*
X0097580Y0054636D01*
X0097560Y0054557D01*
X0097537Y0054479D01*
X0097510Y0054402D01*
X0097479Y0054327D01*
X0097444Y0054253D01*
X0097406Y0054181D01*
X0097364Y0054111D01*
X0097319Y0054043D01*
X0097271Y0053978D01*
X0097220Y0053914D01*
X0097165Y0053854D01*
X0097108Y0053796D01*
X0097048Y0053740D01*
X0096986Y0053688D01*
X0096920Y0053639D01*
X0096853Y0053594D01*
X0096784Y0053551D01*
X0096712Y0053512D01*
X0096639Y0053477D01*
X0096564Y0053445D01*
X0096487Y0053417D01*
X0096409Y0053392D01*
X0096331Y0053372D01*
X0096251Y0053355D01*
X0096170Y0053342D01*
X0096089Y0053333D01*
X0096008Y0053328D01*
X0095927Y0053327D01*
X0095845Y0053330D01*
X0095764Y0053337D01*
X0095683Y0053348D01*
X0095603Y0053363D01*
X0095524Y0053381D01*
X0095446Y0053404D01*
X0095368Y0053430D01*
X0095293Y0053460D01*
X0095218Y0053494D01*
X0095146Y0053531D01*
X0095075Y0053572D01*
X0095007Y0053616D01*
X0094941Y0053663D01*
X0094877Y0053714D01*
X0094815Y0053768D01*
X0094757Y0053824D01*
X0094701Y0053884D01*
X0094648Y0053946D01*
X0094598Y0054010D01*
X0094552Y0054077D01*
X0094508Y0054146D01*
X0094469Y0054217D01*
X0094432Y0054290D01*
X0094399Y0054364D01*
X0094370Y0054441D01*
X0094345Y0054518D01*
X0094323Y0054597D01*
X0094306Y0054676D01*
X0094292Y0054756D01*
X0094282Y0054837D01*
X0094276Y0054919D01*
X0094274Y0055000D01*
X0082463Y0055000D02*
X0082465Y0055081D01*
X0082471Y0055163D01*
X0082481Y0055244D01*
X0082495Y0055324D01*
X0082512Y0055403D01*
X0082534Y0055482D01*
X0082559Y0055559D01*
X0082588Y0055636D01*
X0082621Y0055710D01*
X0082658Y0055783D01*
X0082697Y0055854D01*
X0082741Y0055923D01*
X0082787Y0055990D01*
X0082837Y0056054D01*
X0082890Y0056116D01*
X0082946Y0056176D01*
X0083004Y0056232D01*
X0083066Y0056286D01*
X0083130Y0056337D01*
X0083196Y0056384D01*
X0083264Y0056428D01*
X0083335Y0056469D01*
X0083407Y0056506D01*
X0083482Y0056540D01*
X0083557Y0056570D01*
X0083635Y0056596D01*
X0083713Y0056619D01*
X0083792Y0056637D01*
X0083872Y0056652D01*
X0083953Y0056663D01*
X0084034Y0056670D01*
X0084116Y0056673D01*
X0084197Y0056672D01*
X0084278Y0056667D01*
X0084359Y0056658D01*
X0084440Y0056645D01*
X0084520Y0056628D01*
X0084598Y0056608D01*
X0084676Y0056583D01*
X0084753Y0056555D01*
X0084828Y0056523D01*
X0084901Y0056488D01*
X0084972Y0056449D01*
X0085042Y0056406D01*
X0085109Y0056361D01*
X0085175Y0056312D01*
X0085237Y0056260D01*
X0085297Y0056204D01*
X0085354Y0056146D01*
X0085409Y0056086D01*
X0085460Y0056022D01*
X0085508Y0055957D01*
X0085553Y0055889D01*
X0085595Y0055819D01*
X0085633Y0055747D01*
X0085668Y0055673D01*
X0085699Y0055598D01*
X0085726Y0055521D01*
X0085749Y0055443D01*
X0085769Y0055364D01*
X0085785Y0055284D01*
X0085797Y0055203D01*
X0085805Y0055122D01*
X0085809Y0055041D01*
X0085809Y0054959D01*
X0085805Y0054878D01*
X0085797Y0054797D01*
X0085785Y0054716D01*
X0085769Y0054636D01*
X0085749Y0054557D01*
X0085726Y0054479D01*
X0085699Y0054402D01*
X0085668Y0054327D01*
X0085633Y0054253D01*
X0085595Y0054181D01*
X0085553Y0054111D01*
X0085508Y0054043D01*
X0085460Y0053978D01*
X0085409Y0053914D01*
X0085354Y0053854D01*
X0085297Y0053796D01*
X0085237Y0053740D01*
X0085175Y0053688D01*
X0085109Y0053639D01*
X0085042Y0053594D01*
X0084973Y0053551D01*
X0084901Y0053512D01*
X0084828Y0053477D01*
X0084753Y0053445D01*
X0084676Y0053417D01*
X0084598Y0053392D01*
X0084520Y0053372D01*
X0084440Y0053355D01*
X0084359Y0053342D01*
X0084278Y0053333D01*
X0084197Y0053328D01*
X0084116Y0053327D01*
X0084034Y0053330D01*
X0083953Y0053337D01*
X0083872Y0053348D01*
X0083792Y0053363D01*
X0083713Y0053381D01*
X0083635Y0053404D01*
X0083557Y0053430D01*
X0083482Y0053460D01*
X0083407Y0053494D01*
X0083335Y0053531D01*
X0083264Y0053572D01*
X0083196Y0053616D01*
X0083130Y0053663D01*
X0083066Y0053714D01*
X0083004Y0053768D01*
X0082946Y0053824D01*
X0082890Y0053884D01*
X0082837Y0053946D01*
X0082787Y0054010D01*
X0082741Y0054077D01*
X0082697Y0054146D01*
X0082658Y0054217D01*
X0082621Y0054290D01*
X0082588Y0054364D01*
X0082559Y0054441D01*
X0082534Y0054518D01*
X0082512Y0054597D01*
X0082495Y0054676D01*
X0082481Y0054756D01*
X0082471Y0054837D01*
X0082465Y0054919D01*
X0082463Y0055000D01*
D11*
X0066742Y0066600D03*
X0066742Y0072600D03*
X0066742Y0079400D03*
X0066742Y0085400D03*
X0066742Y0092400D03*
X0066742Y0098400D03*
X0058342Y0116900D03*
X0052342Y0116900D03*
X0052342Y0139100D03*
X0058342Y0139100D03*
X0072342Y0142947D03*
X0072342Y0148853D03*
X0074742Y0131000D03*
X0074742Y0125000D03*
X0089042Y0157600D03*
X0095042Y0157600D03*
X0101342Y0157600D03*
X0107342Y0157600D03*
X0113642Y0157600D03*
X0119642Y0157600D03*
X0126442Y0157600D03*
X0126442Y0151600D03*
X0132742Y0151600D03*
X0132742Y0157600D03*
X0139042Y0157600D03*
X0139042Y0151600D03*
X0145342Y0151600D03*
X0145342Y0157600D03*
X0148342Y0118800D03*
X0154342Y0118800D03*
X0154342Y0112500D03*
X0148342Y0112500D03*
X0147242Y0092800D03*
X0147242Y0086500D03*
X0147242Y0080200D03*
X0153242Y0080200D03*
X0153242Y0086500D03*
X0153242Y0092800D03*
X0146895Y0022900D03*
X0140989Y0022900D03*
X0132695Y0022900D03*
X0126789Y0022900D03*
D12*
X0107787Y0162231D03*
X0107787Y0166169D03*
X0100897Y0166169D03*
X0100897Y0162231D03*
D13*
X0081704Y0111264D03*
X0081704Y0109295D03*
X0081704Y0107327D03*
X0081704Y0105358D03*
X0081704Y0103390D03*
X0081704Y0101421D03*
X0081704Y0099453D03*
X0081704Y0097484D03*
X0081704Y0095516D03*
X0081704Y0093547D03*
X0081704Y0091579D03*
X0081704Y0089610D03*
X0081704Y0087642D03*
X0081704Y0085673D03*
X0081704Y0083705D03*
X0081704Y0081736D03*
X0126980Y0081736D03*
X0126980Y0083705D03*
X0126980Y0085673D03*
X0126980Y0087642D03*
X0126980Y0089610D03*
X0126980Y0091579D03*
X0126980Y0093547D03*
X0126980Y0095516D03*
X0126980Y0097484D03*
X0126980Y0099453D03*
X0126980Y0101421D03*
X0126980Y0103390D03*
X0126980Y0105358D03*
X0126980Y0107327D03*
X0126980Y0109295D03*
X0126980Y0111264D03*
D14*
X0119106Y0119138D03*
X0117137Y0119138D03*
X0115169Y0119138D03*
X0113200Y0119138D03*
X0111232Y0119138D03*
X0109263Y0119138D03*
X0107295Y0119138D03*
X0105326Y0119138D03*
X0103358Y0119138D03*
X0101389Y0119138D03*
X0099421Y0119138D03*
X0097452Y0119138D03*
X0095484Y0119138D03*
X0093515Y0119138D03*
X0091547Y0119138D03*
X0089578Y0119138D03*
X0089578Y0073862D03*
X0091547Y0073862D03*
X0093515Y0073862D03*
X0095484Y0073862D03*
X0097452Y0073862D03*
X0099421Y0073862D03*
X0101389Y0073862D03*
X0103358Y0073862D03*
X0105326Y0073862D03*
X0107295Y0073862D03*
X0109263Y0073862D03*
X0111232Y0073862D03*
X0113200Y0073862D03*
X0115169Y0073862D03*
X0117137Y0073862D03*
X0119106Y0073862D03*
D15*
X0120382Y0142769D03*
X0112902Y0142769D03*
X0108082Y0142769D03*
X0104342Y0151431D03*
X0100602Y0142769D03*
X0095782Y0142769D03*
X0088302Y0142769D03*
X0092042Y0151431D03*
X0116642Y0151431D03*
D16*
X0067961Y0137272D02*
X0064377Y0137272D01*
X0067961Y0137272D02*
X0067961Y0131326D01*
X0064377Y0131326D01*
X0064377Y0137272D01*
X0064377Y0132860D02*
X0067961Y0132860D01*
X0067961Y0134394D02*
X0064377Y0134394D01*
X0064377Y0135928D02*
X0067961Y0135928D01*
X0067961Y0124674D02*
X0064377Y0124674D01*
X0067961Y0124674D02*
X0067961Y0118728D01*
X0064377Y0118728D01*
X0064377Y0124674D01*
X0064377Y0120262D02*
X0067961Y0120262D01*
X0067961Y0121796D02*
X0064377Y0121796D01*
X0064377Y0123330D02*
X0067961Y0123330D01*
X0046307Y0124674D02*
X0042723Y0124674D01*
X0046307Y0124674D02*
X0046307Y0118728D01*
X0042723Y0118728D01*
X0042723Y0124674D01*
X0042723Y0120262D02*
X0046307Y0120262D01*
X0046307Y0121796D02*
X0042723Y0121796D01*
X0042723Y0123330D02*
X0046307Y0123330D01*
X0046307Y0137272D02*
X0042723Y0137272D01*
X0046307Y0137272D02*
X0046307Y0131326D01*
X0042723Y0131326D01*
X0042723Y0137272D01*
X0042723Y0132860D02*
X0046307Y0132860D01*
X0046307Y0134394D02*
X0042723Y0134394D01*
X0042723Y0135928D02*
X0046307Y0135928D01*
D17*
X0051342Y0101400D03*
X0051342Y0063400D03*
D18*
X0151342Y0125107D03*
X0151342Y0138493D03*
D19*
X0056873Y0035218D03*
X0056873Y0032659D03*
X0056873Y0030100D03*
X0056873Y0027541D03*
X0056873Y0024982D03*
D20*
X0046342Y0026163D03*
X0046342Y0034037D03*
D21*
X0046342Y0042698D03*
X0046342Y0017502D03*
D22*
X0125818Y0034571D03*
X0128968Y0034571D03*
X0132117Y0034571D03*
X0135267Y0034571D03*
X0138417Y0034571D03*
X0141566Y0034571D03*
X0144716Y0034571D03*
X0147865Y0034571D03*
X0147865Y0068429D03*
X0144716Y0068429D03*
X0141566Y0068429D03*
X0138417Y0068429D03*
X0135267Y0068429D03*
X0132117Y0068429D03*
X0128968Y0068429D03*
X0125818Y0068429D03*
D23*
X0119913Y0062524D03*
X0119913Y0059374D03*
X0119913Y0056224D03*
X0119913Y0053075D03*
X0119913Y0049925D03*
X0119913Y0046776D03*
X0119913Y0043626D03*
X0119913Y0040476D03*
X0153771Y0040476D03*
X0153771Y0043626D03*
X0153771Y0046776D03*
X0153771Y0049925D03*
X0153771Y0053075D03*
X0153771Y0056224D03*
X0153771Y0059374D03*
X0153771Y0062524D03*
D24*
X0114584Y0037022D03*
X0104742Y0037022D03*
X0099884Y0043878D03*
X0094899Y0037022D03*
X0090042Y0043878D03*
X0085184Y0037022D03*
X0080199Y0043878D03*
X0075342Y0037022D03*
X0065499Y0037022D03*
X0065499Y0014778D03*
X0075342Y0014778D03*
X0085184Y0014778D03*
X0094899Y0014778D03*
X0104742Y0014778D03*
X0114584Y0014778D03*
X0099884Y0066122D03*
X0090042Y0066122D03*
X0080199Y0066122D03*
D25*
X0073543Y0154905D02*
X0071141Y0154905D01*
X0071141Y0160495D01*
X0073543Y0160495D01*
X0073543Y0154905D01*
X0073543Y0154932D02*
X0071141Y0154932D01*
X0071141Y0155031D02*
X0073543Y0155031D01*
X0073543Y0155130D02*
X0071141Y0155130D01*
X0071141Y0155228D02*
X0073543Y0155228D01*
X0073543Y0155327D02*
X0071141Y0155327D01*
X0071141Y0155425D02*
X0073543Y0155425D01*
X0073543Y0155524D02*
X0071141Y0155524D01*
X0071141Y0155622D02*
X0073543Y0155622D01*
X0073543Y0155721D02*
X0071141Y0155721D01*
X0071141Y0155819D02*
X0073543Y0155819D01*
X0073543Y0155918D02*
X0071141Y0155918D01*
X0071141Y0156016D02*
X0073543Y0156016D01*
X0073543Y0156115D02*
X0071141Y0156115D01*
X0071141Y0156213D02*
X0073543Y0156213D01*
X0073543Y0156312D02*
X0071141Y0156312D01*
X0071141Y0156410D02*
X0073543Y0156410D01*
X0073543Y0156509D02*
X0071141Y0156509D01*
X0071141Y0156607D02*
X0073543Y0156607D01*
X0073543Y0156706D02*
X0071141Y0156706D01*
X0071141Y0156804D02*
X0073543Y0156804D01*
X0073543Y0156903D02*
X0071141Y0156903D01*
X0071141Y0157001D02*
X0073543Y0157001D01*
X0073543Y0157100D02*
X0071141Y0157100D01*
X0071141Y0157198D02*
X0073543Y0157198D01*
X0073543Y0157297D02*
X0071141Y0157297D01*
X0071141Y0157395D02*
X0073543Y0157395D01*
X0073543Y0157494D02*
X0071141Y0157494D01*
X0071141Y0157592D02*
X0073543Y0157592D01*
X0073543Y0157691D02*
X0071141Y0157691D01*
X0071141Y0157789D02*
X0073543Y0157789D01*
X0073543Y0157888D02*
X0071141Y0157888D01*
X0071141Y0157986D02*
X0073543Y0157986D01*
X0073543Y0158085D02*
X0071141Y0158085D01*
X0071141Y0158183D02*
X0073543Y0158183D01*
X0073543Y0158282D02*
X0071141Y0158282D01*
X0071141Y0158380D02*
X0073543Y0158380D01*
X0073543Y0158479D02*
X0071141Y0158479D01*
X0071141Y0158577D02*
X0073543Y0158577D01*
X0073543Y0158676D02*
X0071141Y0158676D01*
X0071141Y0158774D02*
X0073543Y0158774D01*
X0073543Y0158873D02*
X0071141Y0158873D01*
X0071141Y0158971D02*
X0073543Y0158971D01*
X0073543Y0159070D02*
X0071141Y0159070D01*
X0071141Y0159168D02*
X0073543Y0159168D01*
X0073543Y0159267D02*
X0071141Y0159267D01*
X0071141Y0159365D02*
X0073543Y0159365D01*
X0073543Y0159464D02*
X0071141Y0159464D01*
X0071141Y0159563D02*
X0073543Y0159563D01*
X0073543Y0159661D02*
X0071141Y0159661D01*
X0071141Y0159760D02*
X0073543Y0159760D01*
X0073543Y0159858D02*
X0071141Y0159858D01*
X0071141Y0159957D02*
X0073543Y0159957D01*
X0073543Y0160055D02*
X0071141Y0160055D01*
X0071141Y0160154D02*
X0073543Y0160154D01*
X0073543Y0160252D02*
X0071141Y0160252D01*
X0071141Y0160351D02*
X0073543Y0160351D01*
X0073543Y0160449D02*
X0071141Y0160449D01*
D26*
X0068792Y0159669D03*
X0068792Y0157700D03*
X0068792Y0155731D03*
X0075891Y0155731D03*
X0075891Y0157700D03*
X0075891Y0159669D03*
M02*
