%
M48
M72
T01C0.01200
T02C0.01378
T03C0.02362
T04C0.03346
T05C0.03937
T06C0.04000
%
T01
X63942Y28500
X63942Y32500
X75342Y25900
X79442Y20200
X89142Y37000
X104742Y25900
X120642Y31800
X121542Y36100
X124542Y40500
X115542Y43200
X115542Y47200
X112542Y65500
X115842Y69500
X105342Y69500
X94942Y66100
X75942Y55000
X65442Y51200
X59442Y47100
X79842Y71200
X84942Y71200
X85642Y75400
X86142Y81900
X75242Y85100
X86142Y99400
X95042Y112100
X107342Y114600
X111242Y114700
X113742Y123900
X116942Y123800
X108742Y123900
X105342Y128900
X95342Y133700
X92542Y126000
X81642Y115300
X76442Y142900
X76442Y148900
X79242Y155700
X79242Y159700
X72642Y167500
X108142Y101300
X113742Y98300
X120142Y95500
X122642Y92800
X121842Y101600
X119142Y82400
X144742Y63900
X149242Y56200
X151042Y22900
X136842Y22900
X122642Y22900
X150242Y96900
X142742Y114000
T02
X78242Y167500
X63942Y23300
T03
X46342Y16320
X46342Y43880
T04
X56972Y20257
X69436Y25900
X56972Y39943
X81247Y25900
X98836Y25900
X110647Y25900
X95947Y55000
X84136Y55000
T05
X48942Y150810
X48942Y164590
T06
X163642Y27900
X163642Y17900
X163642Y37900
X163642Y47900
X163642Y57900
X163642Y67900
X163642Y77900
X163642Y87900
X163642Y97900
X163642Y115100
X163642Y125100
X163642Y135100
X163642Y145100
X163642Y155100
X163642Y165100
M30
